<mxfile host="65bd71144e">
    <diagram id="5bn7vWPMgYY8hAeGCGKq" name="Page-1">
        <mxGraphModel dx="1372" dy="621" grid="0" gridSize="10" guides="1" tooltips="1" connect="1" arrows="1" fold="1" page="0" pageScale="1" pageWidth="1100" pageHeight="850" background="#000000" math="0" shadow="0">
            <root>
                <mxCell id="0"/>
                <mxCell id="1" parent="0"/>
                <mxCell id="24" value="" style="rounded=1;whiteSpace=wrap;html=1;" vertex="1" parent="1">
                    <mxGeometry x="80" y="25" width="600" height="405" as="geometry"/>
                </mxCell>
                <mxCell id="14" style="edgeStyle=none;html=1;exitX=1;exitY=0.5;exitDx=0;exitDy=0;entryX=0;entryY=0.5;entryDx=0;entryDy=0;strokeWidth=2;" edge="1" parent="1" source="12" target="11">
                    <mxGeometry relative="1" as="geometry"/>
                </mxCell>
                <mxCell id="23" style="edgeStyle=none;html=1;exitX=0.5;exitY=1;exitDx=0;exitDy=0;strokeWidth=2;" edge="1" parent="1" source="12" target="21">
                    <mxGeometry relative="1" as="geometry">
                        <Array as="points">
                            <mxPoint x="420" y="376"/>
                        </Array>
                    </mxGeometry>
                </mxCell>
                <mxCell id="12" value="" style="rounded=1;whiteSpace=wrap;html=1;" vertex="1" parent="1">
                    <mxGeometry x="381.77" y="63.5" width="80" height="240" as="geometry"/>
                </mxCell>
                <mxCell id="2" value="PDF File" style="aspect=fixed;html=1;points=[];align=center;image;fontSize=12;image=img/lib/azure2/general/File.svg;" vertex="1" parent="1">
                    <mxGeometry x="120" y="149.5" width="56.00000000000001" height="69" as="geometry"/>
                </mxCell>
                <mxCell id="13" style="edgeStyle=none;html=1;entryX=0;entryY=0.5;entryDx=0;entryDy=0;strokeWidth=2;" edge="1" parent="1" target="12">
                    <mxGeometry relative="1" as="geometry">
                        <mxPoint x="308" y="183.8422566576969" as="sourcePoint"/>
                    </mxGeometry>
                </mxCell>
                <mxCell id="6" value="json" style="aspect=fixed;html=1;points=[];align=center;image;fontSize=12;image=img/lib/azure2/general/File.svg;" vertex="1" parent="1">
                    <mxGeometry x="410" y="74.5" width="23.54" height="29" as="geometry"/>
                </mxCell>
                <mxCell id="9" value="Markdown" style="aspect=fixed;html=1;points=[];align=center;image;fontSize=12;image=img/lib/azure2/general/File.svg;" vertex="1" parent="1">
                    <mxGeometry x="410" y="200" width="23.54" height="29" as="geometry"/>
                </mxCell>
                <mxCell id="10" value="Tables" style="aspect=fixed;html=1;points=[];align=center;image;fontSize=12;image=img/lib/azure2/general/File.svg;" vertex="1" parent="1">
                    <mxGeometry x="410" y="140" width="23.54" height="29" as="geometry"/>
                </mxCell>
                <mxCell id="22" style="edgeStyle=none;html=1;strokeWidth=2;entryX=0.504;entryY=-0.019;entryDx=0;entryDy=0;entryPerimeter=0;" edge="1" parent="1" source="11" target="21">
                    <mxGeometry relative="1" as="geometry">
                        <mxPoint x="690" y="350" as="targetPoint"/>
                    </mxGeometry>
                </mxCell>
                <mxCell id="11" value="Embedding" style="shape=image;verticalLabelPosition=bottom;labelBackgroundColor=default;verticalAlign=top;aspect=fixed;imageAspect=0;image=data:image/png,iVBORw0KGgoAAAANSUhEUgAAAj0AAAKVCAYAAAAk3lqCAAAAAXNSR0IArs4c6QAAAARnQU1BAACxjwv8YQUAAAAJcEhZcwAAFiUAABYlAUlSJPAAAP+lSURBVHhe7L0FuBxF9r/fX1Zxt0WDBHd3d7eEBHdZ3GFZ3N19cYfg7h7c3SG4+8Lu/v7zz3uSz3Bupefm3uTOdM/MeZ+npr2n5FTV6apTVf+XZVllsAuCIAiCIGhpRhm6DYIgCIIgaGlC6QmCIAiCoC0IpScIgiAIgrYglJ4gCIIgCNqCUHqCIAiCIGgLQukJgiAIgqAtCKUnCIIgCIK2IJSeIAiCIAjaglB6giAIgiBoC0LpCYIgCIKgLQilJwiCIAiCtiCUniAIgiAI2oJQeoIgCIIgaAtC6QmCIAiCoC0IpScIgiAIgrYglJ4gCIIgCNqCUHqCIAiCIGgLQukJgiAIgqAtCKUnCIIgCIK2IJSeIAiCIAjaglB6giAIgiBoC0LpCYIgCIKgLQilJwiCIAiCtiCUniAIgiAI2oJQeoIgCIIgaAtC6QmCIAiCoC0IpScIgiAIgrYglJ4gCIIgCNqCUHqCIAiCIGgLQukJgiAIgqAtCKUnCIIgCIK2IJSeIAiCIAjaglB6giAIgiBoC0LpCYIgCIKgLQilJwiCIAiCtiCUniAIgiAI2oJQeoIgCIIgaAtC6QmCIAiCoC0IpScIgiAIgrYglJ4gCIIgCNqCUHqCIAiCIGgLQukJgiAIgqAtCKUnCIIgCIK2IJSeIAiCIAjaglB6giAIgiBoC0LpCYI6M8ooo2T/93//Z/vadgb3dOW+IuiO38oahiAI2pdQeoKgzlQqlaF7v+MVAvZRjNJ94LgRyoP+w/+XP6d9hcWfA7/vSe8LgiAoklB6gqDOoChIWUi3wh+n96f3iq4qHl3B/1+KP4dCJj/p/3G+NUvovpSR8WcQBMHIQOmTX6IGQdDjqMLPUwZqwTO63ysdneGf6UlSv/x//9//Z+dw7A+PevkrCIKgK4TSEwR1Iq+CV9eVzg9PAeAdwH2jjTZaNuGEE2Zjjz129uc//zn7y1/+kv3pT3/K/vCHP9g13B//+Ec7xz7Xa4GC8r///c/cf/7zn+zf//539ttvv9mWc//973/Nce6XX37Jvv766+zLL780fyhcPnxpWHUsxSglvT8IgqARhNITBHWASh1S5QAFRa0jOpfeM95442VTTz11NvHEE9v+GGOMYcrDmGOOmU055ZSm+Pz1r38155We0UcfvYPSw/Va4AeUGik9KDap0sP5X3/9Nfvxxx+zjz/+OPvoo4/sOdz333+fffDBB9nnn39ujucVDsFxXsuUj5sgCIJGEkpPENQB38LhFRrtc33SSSfNpptuumyiiSYyJWXUUUc1BQdlZ9ppp83+9re/ZeOPP3421lhj2f047kOp4T2pguGPRxS9g/fJz4RDLUGcQyFCEXrvvfdMEULp+fbbb00R4tpPP/1kStJzzz1nipP8pvfJ74qfIAiCRhFKTxDUAV/JQ+/evbPJJ588G2eccaz1BkVmmmmmyWaYYQZTblB2aKmhNQelRqAYSBHR1isPHikX3cUrJbWe13UcflILDrCPQvTdd9+ZkoPy8+GHH2ZPPPGEKUB0jf3www+mGL311lvZp59+au8LpScIgkZDCRdKT9B2qBLPo7Nrw4NnUQJmmWUWU3CmmGIKs8GZa665TPFB4aFlZ9xxx7WuKE/e/0ox4J3+Ovsjg/8f9vVuv03/T/u6LuVHcA64rntQgmgJQiHCJuiFF16wbrFBgwaZMoQi9Nprr1mXWhAEQb0JpSdoS3wlDlTealVRhS7Se1O4Ptlkk5kyQ3cVSs5SSy1lx9NPP711UdF6g5LDe6TAtDI+vqQccQ4lCN5+++3siy++sO6xgQMHZp999pkpQ2xRjnhG6cFzii//XqVZEARBVwmlJ2hbvDKjClSGxqDKVvf4fZhgggmyeeed11p05p9/fjM+nn322U3pofuKd/FeSJ8FVeStig+v4lKKDLDFUBp7IZSdV1991eyEXn75ZVOAnn76abvmn9F72KJE/r//9/+q/+PvCYIgyCOUnqCtUQUqpPyoAtV1HPu03GBkrFadlVde2UZTYZSslhxVxCg9ep6tlCn25VoVH2dA2Ilbjokfhd/fp2t0h73xxhvZXXfdZfY/dIO9+eab1iUmY2rgfenz/lj3BUEQiFB6grZElSKKSi17ElWqs802m42owuB40UUXzeabbz5r1cH4WPdBWtmyD2lLhSr/VoZwKtyKEx9mlBvFm65rX8c4bIE++eST7LHHHsuefPJJawF69913rVtMXWUe/x96ZxAEgaCEiJIhaDuk0PgK1oNSw2gr3CqrrJLNNNNM2YwzzmgT/vGsWi5AFa3O6V2+Ahf6Tz3TqhBO4kMorhR+H0fa+nN6XvHJPsPkGf2F8kPXFwbQKEAoRmpd8/Gq9wVBEIhQeoK2xFeyUmI4R/cVI68wRJ555pmzOeaYw+xzaBFShcpzvoL1Fa3QdX8f5N3bihDuVOlJ44Jj0Ln0utIE/D208DAE/plnnskeeeSR7MUXX8yeeuqpqgE09+rdQRAEHkqSKB2CtoUKEoVmscUWsy6sZZddNltppZXMTgebnDxUOVPB+pYdUOUs1I3DeT2je9J7WwniBEfYheJC8Qc+7sDHURo/HNMVyVbvZSbo999/P7vuuutsODx2P9j/MFdQ+u4gCAJKlSgZgqaEym9EKjZVmr169TLHcPNdd93VDJSZINC/M/0Pjj26xnmv4Kji9hW4jnU/rlUhXnBe6fFh9yheFCd+X+/RcYruha+++ip7/vnns5tuuil76aWXsldeecXOdYb+IwiC9oDSInJ80HT4SlCVqfCVoyo0VW7Ml0P3FTY7K6ywQrb00kvbelbY6qQVoH9PUE5o+ZGiKWjlwdZnwIABNis0+yyLkRo+6xkvIxBKUBC0LuTyyOFB06EKii2VVK2KStdZlRxDZIaZb7jhhtlCCy1ksyJzXuheof8IyotPL9+ShGMdMOb9ufPOO7MHHnjAWn9Qfpj7J0Vpzfv8fhAErUUoPUHTQuVUq2LSNZQaFB2Mkvv3758tvPDCNseOrut5VXSevHNBuVD6+S3ppvRlywSIDHtH8bnjjjts+DvHwqczz6jliO7KIAhai1B6gqZElZrHV14oO6x1hevbt6+NxmI5CJ5RxZaia5B2mQTlJrUDUqtPms7M73PppZdmd999txk8M/mhbyECntd7giBoLULpCVoCVW7Y7GCcTMvO5ptvni244IK2yKdHFSRo6+F6KD3NgVdMlF6kn85zzqcj+1xjFfirr746u/322235C2aBDoKg9aE0CKUnaDpUkemrfNRRR7Uh58yevPHGG2eLLLKIHet6CudxtVp8eCbvuaA8KA3BpxX7Oi90r66xRTnC5oeWn1tuucX2WfUd9L70PUEQNDfk7MjVQdPhKzYmD2TBz7XXXtvWwmIWZZQZVW66V07nqPSYi0fvYZunBAXlRDY3pCUo/ZS2Smelr1qAfBpznfW8mOjwsssuy+69917rApOxs54NgqA1CKUnaEqorJhTZ6qpprKVzplnZ9ZZZ7VrVFRSZvy+5tGRsqOtnsGF0tNcKN1ASk6Kvy50zsNyFvfdd1921VVX2UzP2PsEQdBahNITFIYqKZQPwbGvpPIqp7/+9a/ZJJNMYq072267rY3IYlZlkCITykswPCRbqYwxsuuSSy4xmx9afZjgULIK3J8nl0EQlJ9QeoJCUUUCVCSpouOPUWToymKV8379+tlyESg/wD205KDw+HcGQS0kV9p6uWGOH0Z3ofxcf/31pgj9/PPPVXn0W6H3BEFQXkLpCRqOryjU3ZRXYXAfjuu07jBzMrMob7311jbRIM/qHp7XO6KVJ+gqw1NUWNn9oYceyi666CKb56fWshaSQbYwvPcGQVAMGDQcNGQ3CBpLqqzkwTVad5hBeeedd8523HFHa92RYpNWNDqvc0HQVaR8e9lhviemQJhnnnls/4MPPjAjZ+71siZZ9oq4zgVBUB5C6QkKobNKQddo3WEx0DXWWCM7/PDDsyWXXNJsd3QdB6qodAx+PwjykOxJfqSw6BjY0mXKxJYYzDO7N609tAD99NNPdg94OWZfLgiCckHOjpwZlAJVNFQWY445ZrboootaV9byyy+fjTbaaMNUIqpYfKsP8B69KwhqQWsNIDepzHhZ0nUxaNCg7IILLsjOOuus7LPPPht6tqP8BkFQTqKlJygEX4mAjlntnLWxmHPnqKOOshFazLIMqoBqdS3gOJ9WUkEwPPLkRfIEUpC4j+7Wueee27pZX375ZbvGCu7cq/uCICgn5PT4LAkKw1c2zKpMZbLppptmq6++ejbhhBPaeSof0L3pMXBOyo4/HwS1QEGRvEh+fKuhPwadA55B0XnjjTeyc889N7vyyiurQ9tBz4YSFATlIlp6grqQp3j4CkSo0uHrebnllsv22WefbNVVV7VjoXtEegw6l54Pglp4eUllJz0GnZNDnlHMmUJhnHHGyZ5//vnsl19+qSpGXkESfj8IgsZDDhySM4OgjqiwV0UAnKPrCgVn3XXXzfbee28blg55ClIQlA3mhqI1h3l9brvtNpsZnPW7UH4AeUfOcWr1wTBaS2gEQdBYQukJGg4VAJUBo7PmmGOObJtttjEbHoyXVUEEQbOALKPQoKi//fbb2dFHH51de+212ffffz+MwgPcx7lQfIKg8UT3VtDjeMVFW6FjFJ5VVlklO+igg2zCQUZn+XvT54KgzEhexx13XLNLQ75feOEFs/sB38IJYesTBMVATo2WnqAu8EVLYa8Cn4qBpn0qBAyV99xzz2z22WevXvP3hdITlJ1UkfEwhw/LV+yyyy62kCnyHIpOEBRPKD1Bw0AJokVnww03zPbYYw+b6VaKERUCW451bxCUGeRVig9bFHodA60899xzT7bJJpuYEoTdj1d8vKIfBEFjCKUnqDsU7lQIGCnz5cuQdOx3VODnFf7R0hOUnc4UFq7JsXDpIYcckt1www3Zb7/9NvSOMGgOgiIIm56gLnilhaUj5pprrmz//ffP1l9//ar9jm/d4dg/0wpKT16lqHDlXcsjLx78s1zXcfpuf214pO9Jn9O7Ra33dvU+T/p/qV/KjGQY5FeOUWY4xo033ni2dhz3Pvvss9V7giBoPKH0BCOFCvZ0X/A1u+yyy2YHHnigGSwz4zJwH8pO2o2V945mhoqO8FDJKVza6lxepQkc++uQd7+HazhVxtrWclz/3//+Z+mk5wX7+g9t/XWe8+mn+/09oDjw+3T1pMquntcx+P2ygd8kw/K3HPGpa7ixxx47m3POOe0D4IknnrC48/AM6P40DoMg6BnIaZG7ghGGwlqVlWCfyo2Cn4kG9913X1tOgvt0LwV7K6NKiy9+KRTEiQ+34kKKgJxvJRDc4+FYTvH666+/Zj/88IM5FsT8+eefh979u38E/mAGbLoZ5cYYY4zq/2hhV7ZCfpK/9b8Kk855dG8K5whnKgf+HXnPNRM+LohXwvrNN99k5513XnbwwQfbau15cQas6K6RX0EQ9Byh9AQjhCorCnNfOVGAc41za665pk04yBcuFb/ua/bKrCtQoRMXCjf7OO2z1X4Kz0r5AOxAWOIAh0LD9r333suefPLJbODAgdVFL/27Ie/dKXpGacZ/M7sw8yfRJYmyyqzDhGPyySe3Ve+lCOkZHP6Vcsc7tN9VpBSkKCzNCPGqcPlwMJoLxYfZx5XOikPgfvY515U0DIKg65ATI1cF3YYC2RfUKtRV6W622Wam8PTu3bt6XujeVkcVl2Cfr3e2XhkCVZDM5vv1119n77//vik0jP556aWXbPSP4Dmc4l7ofWzz8Gkgar1L6J2CFohpp53WlCKU2hlnnNG6blCIpLTofTxHONlPFRqu4XRe/y8FgWP5rVnx8aZw6BwtcQMGDMi23nrrYbq6BHGHAhkEQc9BThy2JAyCbuIL9Z122inbbbfdsimmmKJaqXFeFVlaAbYyVFqqvBVHQFzQvUEX1KBBg7L7778/e+edd2z71ltv2T2qIHlOSgH7nNe7dE8e/v8g7169z5N3Dvx50lB+Yt4lujFRcBdccEEz2qXCpsXI+1tbnFqzeI8UnVZDceXDxjkc51iqAsWHDwTFRZrOQRD0LOTGyFlBt1FLhf8SpZDefvvts9133z2beuqp7TqOgpwtqFDn+VZH4VZ3D1/0xBELUzKKB3f77bdnn3zySTV+dL8qRl/xUSlyrHN6xt8jdA3yroN/n69wta8t72LfpzWwbhoGyYL7dC+zEtMSxJZWIbrIOM9/8c40/b1/WwXFu8JMt6Dim7jkGKX3iiuusKVYdL8gTtJzQRCMHJQ0kauCbqHCWJWYCuatttrKJh2cZpppqpWfr0h1H9dasZLz+Mrqiy++yF599dXsxhtvtLlaUHKIF+5R/HiIK9A1xRX3+33BOX88IvAOKmF1tXT2PvzH/V4J8mktP3KOd3Lcr18/aw2aYYYZzHFNFT/XUZ60z3n9R7NDPCrdFB4ft4QVA/S77rorW2eddYaeDYKgXpALR660DNoaCnIK8R133NEmHqSFR+RVWqoYW72lB+NiFB1W3WZyOsKNk6JA3CguhOKSCh/yrnONe9Jrgnvy3p1S6z7O+Uo5hetSWDz+OdI2vU6rEPdwjeePP/74bJFFFrEuMa6hbEnpYZ/72G9mfDoRFvYJu9LXxzMtPurq6iz+gyAYOULpCXLxFU5eIcx1zlOAo/DsvPPO2VRTTdXhuc7e4a81Gvwiv7OlMqKSlR/lN87rmvcv5zhOw4ARMnY5VF6XXnqpjbJi5FUa9mCIQTRzNi266KK2LMliiy2W/e1vf7O4Ir49xDPnUaR8WuSlF3CsNJKCUQS10l3+Be6Rv7Hxuu6662zZCuC+zt7BNcLH89qC30/Rf6fvpXV2rLHG6nCefe4n3lkxHgN7/Kh7/Lv4Tx3z33n3CM75Y09n14TStLMwcg/+7sr7gvYCiQyJCGoyvEIDWwQUnumnn96+1FXQqGAqIwqPD5v202O/xQGFrY4JL91X9913X3bRRRdlzzzzTHWdJb0rqA2KD7IyySSTZH379s1WW221bJZZZrF5g4hbZErxLxT/QmnBfXI65+8rI96/hIsWn8svv9xs41Rxg8KH0qdzKdzPlAIs4jvppJNmo48+us1+Pv7449voOs5hXK44B95Lyxr36j90Xsds+U/JNI5jznPu888/t/mHaN388ssvLQxs+QjAKJ+WTr23FrxL2zxlBv/WUnI8yIu6aIMgDyQtSuZgGHyBpwIr3ccGYb/99stmm2226he4v95s5BXMFO6+5cGH8e2337YWnQsuuMAKfYajUwl0VjEFv6O4lKwwCoyursUXXzzbYIMNspVXXtmUH9FZt5dPF5F3X9mQn73fmYsJmWIEJChsvuJnaQumC8BWauKJJzalEWUG5QWjcZQd7udZOcUdDlLlUWmB0/9IOQL5MX0Gh7zzDPtsOSY/oPjQSkTaoRwxGzWG/LSIkn/0TuC9+FHvy0N5kevcnz4v/Pkg8CAlIR1BTVSwqEBRYbL88svb0hJMXkdBlBagvrAsG4QBhx/Z4vc8/xIehUtxwPGjjz6aHXvssTb6ionmfJO/KppQerqOj19Q1xcOw/g+ffpYSwVyRrwqrXS/nsV5OdS2zEhuwO+j+Jx99tn2UbHkkktmyy23XDbrrLPaLNq9evUyZZCw0iVFOKXQ8A4pBhzrHPcqntJrfqtrPh5T8s7zfB76X0DxQRHiHN2+dJehCJGHmJfqlltusRbTFPlP+ZWt8hfXvH94t+KC/+NezgWBQFrypTUIhqJCRAUNa2mxtATzsfB1rgJShVtaEJWNtIDmWP5VGH3ByT5zqqDkbLHFFtaqw+RyXAMVqlHA9gzEI3FPWlCpI2M77LCDKT+s1I8yBJIz0k8y6NH1spLKIUip45qWFZEC6I3B88LFufSdannknV2BeJQc8z6/n/6nZF35R/+t/+JYjnP+eZ1XHiLcfDyQzz799NPsueeeyz766CP7wGDuKo/8BP5/gbAqDwdBHkjhsDkvaGvSgsTDcOPDDz88W3HFFa0JPS182KrQKzs+jHlh5hz2CU899VR28sknZ48//rh9meqawg6+IA5GjM7ikHXBmOxyo402ytZdd10bJZhn75PS2bWikbzJj17+FC7iQwoD5/wzwwubj0vdqy3XpGDpXTi9X89yXX7BcZ5jn1acF7oH9Kx/vhb+Pp6nJQj/8XGBzRy2QcxQzohIhveD/JBug6AzkMKOJX0QDIbCR4UQW6BQOe2007L+/ftbJaRzQGHjCzZty4jCIzjG/6pEKWzxP8s/nHTSSdmdd95ptgkUxD5c6Xt4nvdEwds9kCHiVV/o7OOIX5zinPvo1kHZxoAeexYpP8S53tMsSH7ywqq48HFDKwZwH8eEO73Pvwv0vq7g7+W9/l3s8x/DQ88IPat9Hes+5RWfdv4ZwC/kPRz2QR9//LGtPXf99debjZAm9+S5lFrng/YFyQqJCDqggiItMA477DDr3plooonsGgUWW+Gf8+fLhsKkipJj9qlUaG7HvuD000+3yQRp2aHZXWEDv+/Red6pwjzoGkoHxWt6LDgPKD90fe21116m/DAqSfHu5U/bMpKGjeM8/0rh0fX0GPKe1X214H7ZvbA/vPdB3jlQvPMcpPf5ayl5/8U53qkPEZ0DKUG0AqHwYBRNK9Cpp55q1yQHQZAHkpYviUHLk1c45J2jQGJpib///e9Vg9I8Oiv0Ggl+wBEWHfsKIK8A5jpfkRdffLF1ZcluJyg3DMdeeOGFs8033zxbaqmlTBEC0pd0liwjC0pzyUUZSOUwzTfp9TxSedY7dC59p2d47+/sWU/ee7y/Uj/Vopbf/bF/B/kWuyVsgRgy//rrr5s9EAoQ9lB55ZmQHLCVbRFlBPfX+r+g+UGiIkXbEJ+Z04IlheUlmFmYuXi84lBWOiukKCT5egTdx1cjdgKsCs+IEuYYCZoHDJ3HHXdcM7BnsVvW+lIaA5UY8prKuT8XNDekKY68jB0eLbS02NI1jQIEyISUG9GZUhS0JqH0tCE+o1Po+0oApYZjNRMzNH3//ffP5p133uqombKjAjCt0NTaozBTANI0fs4552RXX321jRqJArA5IU2ZowaFh1afVVZZpcMip7pH+1KEuB40L8rrSmfSVfu0ADEc/o033jAbINa9o8taMuDhmby8X+t80Lzw2X7QkN2gXVCmV+HgIYPrHJUIQ9NZIoCvaSoJXLOgSo5w6ljhozn85ptvtlYshsVG607zQyXHSB9G2WHrwaR9dH8p/UGyLVluJnkO8lE+93CODxzKMJY3YdQp8x2ttNJKpgxjA+Sp9Y70XND8REtP0AHfp02zsIxEKQBwwu+XDV9QsY9f1crDlplgjzzySJv/Y9CgQXafFEDd798RlJdaaYVtD0rPtttua7M7U9Epbb3s+v2g+fB5Vnlcx5RjqcJL6y5dX7gnn3zSZr5m6RiPnmXLM0FrES09bY4v9H1BgQ3PpptuWh2ppQJA9/vnygjh8IUeWyZ7o3l7u+22swKP1h2v7ATNieRTsK8lEF544QWr4PjaR/GhUtQ9ZZfhoOvkpafytsoArpP+jPxj2Q6W8VhmmWWyJZZYwuQDA+jU5idoPULpaUNUOLDNq+zXWGMNW0SU6e4pMHxhwr4/LjNS0thir3P++ednRxxxhNnxYPAYtB6STdIcx+KvtOy98sor1kXL6ENs0yQbQfOjdPStM1J0aP3hnI5B9yMPKMKUc/PMM0+29NJL26KszLyO8hPy0ZqE0tOG6AuI0QxqDVElMNdcc5kdD1sqB5/xa+2XEfxHuCi8+IL75z//acbKTGxGWFO4X03jQfOglhtVannpRwsfNj607tECNO2002Zjjz126WU46B7IAGkqJzhPOQc6z1ZKEmu90fqDQsziyUx9QNfoiy++aHZiQWsRSk8booqBrRQeYJ8FHjH203wnKkDkhN8vEvzuKzrvL4auYqxMmFhKgrl3OsO/J2geUhnIgy9+5mF67bXXrFtT3V3Ii54vi0wH3Ye0805oP70up2vaUu5NNdVU2ZxzzmlrC6L8IDO+Zdjfr/1a+PI1KAeh9ASWMQGjT+x4aOLlXF6G7kpGrzdpJaWt/5pjFM8ZZ5yRnXjiiTZhGV/4EK05rUuebEq2gWt0d9G9SZcXFRxf91rIU6TyFZQX0qhWOumadx6dUxcYaY68yO6Hbi+UH1p+kBO6SGk11LNdkZEoa8pHKD1tSF5GXWSRRWxKf4Z20u01vMxcNPgPJScteCjAWJ2ZNcL+9a9/ZR988MHQK0E7gCxIYUc28iomKi66OTmPMStf86D72MoF7UGa3jqmG5SFbmeddVaz+2FgB0ozU17UQu9J3xmUg1B62hAyov8CBmxemMeCxRyhWTKrL1hozWG0zgEHHJDddNNN1trjv7S4L768WhvkWspOLbDpWX/99bN11lnHlHxk3su7nm2WPBCMHKQztn9pq6DSn/O0Ck4zzTTZ7LPPns0000x2jY8rtSBDKi9pGRuUA1IpaoE2QxUDsGVNLexe+KIBrqcZuEx4vwv63B955JHs4IMPzp5//nmz5xGEhTDRChS0DqQrTt2adEuo9a8WK664YrbZZptl888/vw1bxohVsu7lSjITtD6kN2UD8uNlAVnyZaHkjLKFFmSWrjn++OPNSN7DM9zLc53JYlAMofS0IT4zzj333NlZZ51l0/crg/uMXkbwO05+xE7jnnvuyQ499FBr6dF1UFjZ6n4VXkFr4NNW6Q5eBmjFXH311W12cbXu6Jrwz/p3Bq0N6a4yAqSwgJcDyYfKD+aBYmToQw89ZJMceuWHZ/TeoFyQmpEqbQyZdd11161WAuAzehnxBQkrod9xxx02/w4KD6jAScFWSa09URi1DijpqmC83HKMHQbKznLLLWf2O3RTcL/wz+gdUHbFP+g5SHMpOmnZIfnwMgIcS/mhG/3BBx/Mrrnmmuy+++6z9b78u/z7guIhJSNF2hQWZqQ7iOG7oIwNfr9sqBD54Ycfsttuu82WlHjppZfsnAoaj87lXQuan7Rbi3RmtM0KK6yQrbXWWqb4sAYX96X4Z1LyzgWtiW/dSVHZAdj+qBvMlyX//ve/zcCZVd0ZNcoK7+k9QTkgJSNVWgxl0M4y3PTTT2+jmxZYYAFrAQFlUrZ6R9HgH4XD+4mmZZaUOOGEE2woKUQB0554uWXLPFMYKTMiceqpp7ZJNrtKWeQ+aCx5ZYzw5YrkzMM53fPVV1/Zmn7MD3b33XfnLmTsWyaDxkPqRcy3IKoAUshwfNUcdthhNi/PuOOOa/dxv57RflHI3z4M8heg8Fx//fWm8Lz66qt2TvcqfEHroHSXLNQC4+SVV145W3755W2EDXOt5LXuBEFPIrlUaxFTItDSc++999rUGW+++aZdB657eR6eTAc9Tyg9LY6UAb9dfPHFrQm2d+/eNSsFZcwi8AUB+/oyAmbV5SvqqKOO6qDwgA9n0DrkpalPc2x1aN1hZBaTyY033njVLoggaBTYC1JWCT7OHn744eyqq66yVh9agSSTkukoqxoPKRCx3mKQoXD68iBjUQmQKTm++OKLzdYB42VlOs4Lv18U+F3+x+/4E4UHG55jjjmmarQM8m8UIK0J6UtlIiN0jnHMm8JoLFp2WDKAmcQ1saZkIgjqDeVOXjkK2AAxIzyDLVjwmP2gWGJywhbFt44oI3Lcp0+fbJtttrFuLX8+zaxFVhryN+APHKO0MBJE4WEeHh++oLWRDHh5plWH7tm+fftatxaGysiE7g2CRuLlDjlVmYpMssYb0yRMOeWUNrLr888/t4VMdT1oLKH0tCBaPR18BYCdw0EHHVRdakIZE9j6zOqfKwr5iSnfGQpKl9azzz479Go+oQy1HpIDWvzmm2++bIMNNsi23HJLm3uHkYdaO0vprm0ZZDhofbycqXXan2N/9NFHt5ZJZgNHXj/77DP7kAsZbTyh9LQovuInY6EM0MKz5pprZqOOOmr1PJlUX8jq/pIrEvkBo0Am/2JY+pNPPlm9loYPFwpPa6F0BWYLZzHcLbbYwmQYe7S//vWv1evaptQ6HwQ9jVe2vRN8aDKVAjZotEyy/huju6LMaiyh9LQgeZkIm4ddd93VKg8pOcLvQ5pZG43+HyUM2x1GQDDjcq3CgXt1LQqQ1oF0nWCCCUzJQdmhhYe1jxiVJRlWektm5Pz5IGgEyJzkzx/7MoljFB6mDKGVkvl9mNyQZXSCxhBKTxtABbHPPvtkSyyxRPXrOHXgt9qvBxQCaaXkCwbg+O233zbjvxtuuMFafILmZURa4ZhccOONN8422WQTk11GZfEeSGW1M9fu+PwGxEl67MlLp7zn/bl0P72/XfBh1T5bOUF3F11dmBrQ2j5o0KAO6wV6/HPByENsDivhQVNDxeBteshcDPNmq6G8RWYk/EahWKsixG8ffvihLZHBBIqsZhw0N6Qpaa1tLbg+88wz2xB0lo+YbbbZqi07QOtfDEf/nTQuFceKH13XeWDLsX+2u/Hpn0//D+fPdffdrYyPc/Haa69lV1xxRXbllVfah56HuMt7RvGrcj7oOtHS04L4jML+nnvumS277LK2onT6pVwU6f9zrHOai4e5hFjNWOf9PUFzojT0Tudho402MiPlDTfc0Ox2vP2Zl2ndH+RDXPn4It8r3tJKNI1L3ZfngOf9sfDn/LX0vnYmLy7owqW7i3Xh+MCju2t4RJyOOMTcsGpk0DKwevp1112XTTXVVJZR5MpAXuHLSC2GpjNSKzVclt/j66a5UPoJjtUaqfMseou9znrrrWejXLQ0CnC/4H6cKvFgCMSJb90V2uc6+zhay4g/f87DeaF7gK3Pe/45PePvTc8FQ/DxK4gjlB3m88GG8amnnhp6ZQj6WNWz/h0+roPhEy09Lc6+++5r9hB0CZSpokgzKcf/+c9/bA6eM88804aoq2AOmhtkLpU7HbP6OXPtMOfO2muvnU088cTDFPDCvyPvne2Kjyf2fT7nWPuKMxQX7et8Z/jr6TNs+Q/9r8h7JhhCrfhgslhafCaaaCKbzZkZnGXgrHjOI+K3e4TS06KQEWjlOeCAA6oTEZZF6VEhCd4/GPNdeumltq4WoxqC1iBP5pBNWne23357U3oYyquZtyWroGfZSm64lic/7YjiAXxceTjOU0i6End59/jnlSY69kQa1YY48fFCXHGMCQKL5DKRIYM3mMjQGzjrPp+eQfcg1n/PNUFLoErh+OOPz7bbbjvLSJBmtKLAb2mB+M0332RXX311dtJJJ2VvvfVW9XoePNPZ9aBcII/qFqElh5ZHZgZnFXS+ar1MernQeZ3z19j397QraT5I4wyIe9KAVgMmxKMLmX26uVgmwd+rfb/lWb+8B8opo0BpmRhjjDGsfNH9Kns8nAtqk3ZLEn+kz0svvWSDOfgI9HY+/r40roPhQ+xFrLUYFDIsvMiIAEZsqbDCpU3bRaCMqi2F7+23354dcsgh2TPPPNPBb2mm1rXI7M2D0oz13lgriy4tmvGRU43EIj1x2mer5ySzQtfBn29XlBfoHqZbhCUO2P/6669tUd5PPvnE4hAFh0ECP/30k1WqPMe9XNM7hI4V1yg9Ul7Yl9KD8S375GHWPmPkHcsuoAj95S9/sevcF9SGOFY865h90uuVV17JLrnkkuzaa6+1Ea1e3pVGQfcgBiPmWpCTTz4523rrra3gAWUkbX3m6Wl8ZvT/p/Pax1HgUjAfffTR2eWXX27XhX8G0uOg8XQ3Dbh/0UUXzeaee+5ss802y2aZZRarPP3Qc70Tp32dh/T/0utlJfW38P7mHhxxwpb8oG4+PZ+Gk/N0eUixefPNN60lgBl+OUahwTHb74svvmjnZbzM+0V6PKLgP/xEFyXpS2seihBu7LHHziaZZJJssskmsy4bJuRjRB7X1HqUonOKAylbOtb/6b68dwD3QK3rZUJ+BYUNR/owjP2iiy6y8pHRrP7ezuD5rt7bTiANESstBgXL3XffbdOdq2BD+NlvRAFQKwOzr2NBYX3eeedlp5xyihXSXOuJgjioD8iQ0tenMyiNtT/PPPPYPDv9+/e3GcGp6CSDpDFbXKuSxg9I/nE+HnVMvKD06DygsKDgoOhQAdJFxUzlGLqSZ15++WVrzWE9J57Rc2VhnHHGMTsVRuUxipQuTfYpp1CUmHQS2WBNKvwuGZOTEghsFVd+C9rqXmCf9zUzhOGdd97JLrvsMrN5ZF/4sCo+RHocDAEpiVhpMrww+30VDhiHMuSbLypdZyv8fj3wfvPovMBYmfl4WDmdhUT9/em9QeOR7HiURrrmryN/VNp0byyzzDJmoDzvvPNat4ee436fzn6/1fDx4yvyWmHWvVwnHlFoUGww8GcI8w8//GCtomzp9qCrSveWHR9mWn9YDgelB2UIxYfuTlqJuMa8NXSP8Yx/TvHnlUIpz+xLuWHfP+f3mxHCA3RvXXzxxdmFF16Yvffee9XzKT4eFBe17m1HkIaIjSbDCzECrkJPhcHAgQPNpkeVkDKBMn+9CwEVRJ1lNu7BUA/lDANmf19nzwXFInljSxopnUgzulIxUsah8PTq1WuYdPXyCJxrVQi78oLCnMaH4pB97GtorcGo//7777fWG7qmqOweffTR6v16F+/21EqbMuDT2fuL87TyICuM6EPhYX/WWWfNZpppJjtGrvSMws+WZxVedd/pHOg/Od8KEGa6t+jqwsCZfSCcaZwqjiR//nq7g1REbDQhytCpMFPhYBRMUzFKD4WBhJ5jPVdPlNFA/vMZjy0Gl2RcurUo2NNwBOVGhSoOWaP7CiNWVkKfa665qvYaXPdpz75ko9VR/IDiSyhOUHRQct5//337WOEL/tNPPzXDVeVf4ePTx7/ey7kyKj0+veUnndNWigowIoyJKueff35rJaQliJF+dINxDXiPf6/KHJzCrmN/X7OiMIEUHxxyozCnlE0OygLSEDHSZCgTS5gl9Aj5gAEDstVWW60q8LqmfblGIP8B/6mCjVEJzDx6xBFHZE888YSdE/KbfzYoBtIiTQd/ji4IvsZRclg2AhseuifS56i4pXD7yqkdIB6kiOgYR9cUrTrY5uAwOCZP6B7FYRqXoHPEKVuvMEBnz5YB/CXkx878STfYOuusY11h8803n3WFMfeYpuJI0fv1XsV9M6P40ZbWPyk+KMqQpjfHuFQ+2h2ko3y5IugSEnJlcvrE77rrLhstAcoAuq57dVwv0ozn/cE+GRaFBwPmvAIb/DuCYshLOyoQ9lFuFl98cZtvZ6mlljLjVF1nq3QEKT3gFQDw97UqxAfhplWHFs7XX389e/DBB7N33303e+SRR+xrPY1nbYXiyZ+DvPN6lnhuhgovDavHX2PhWVp/FlhgAVO0UbgZEcaQeMkd+H3FQzNDGHx4gDDR4oONDy3mlKng74XO4rZdiRmZmxQVdoJKZa+99sqWXnrpaib397Cv4/TZeuAzmi94MV6+7bbbbA6hdGE9/BUZtDyo8pDssI99xYILLpitueaa2S677GLdDr51x2+Ff177yIT2WxnCzPBxvsZRcJhojhE4VFa07nz33Xd2n+KC+3XsSStuf3+zVepp2PJQ+DyMYKOiZ00+lqshTjH0puyj1UcDN/xzee9pRrxcKL0ZFcdoOOSLaQv8zM3AvXou+B2kIWKlCfECTSagCfiee+6xyQj1VQ3K8KpkQNt6wv/hP/9fHDPq5NBDDzWbBY/ui0xaLkgX0gRj0xlmmMHm22EIOoqPJp1L5SpNQ8kBTnLoz5UV/KiweL/qvPc7x1ISgXAy8zGtOA899FD23HPPmc0Oo6+AZ3Uv6P08B7xL+yl6tta2FSAskIaH8zjFzeijj24ferT8YFNGqyNdX9iUAc/7dIHO3s05nO7Rtkhq+ROIB2SKedn4kETmdF1+T59vd4iViJEmxAs0hqRURKzOSyFQdEb1GRK/qABnJth//etftjwGxstB8aiATNF5WnaYWA5bClZAp1LhC5M0bXUIvxzhVZwgy2w5xule9rmGvQ5LqTz22GM21PzKK6+0ezz+uaBnQC533nnnbLrppsuWXHJJ63KlbPQovlUmKU2VHqB7/Dm/XzboPn788cezgw8+2OZnE8qjhDP4nejeakKUUWXIqK4thnlK0MuQSfGD/EHGw2CTZn3m5AmKR+mjQt6DTGEbRovORhttZGu4LbzwwtbiA2WQr0agOFJ4FVdeCdI15s9hokC6sLCzOPPMM+04D70zL+6D7qG4pJuHVjXsGkkfusO0Ppi/jzhX+um80tGfyztfRggLeZX5sV577TUzkAf8HArPsITS08QoIzKqYf/997dm3bJlUvyDw4CT+Xhuuukma/EJiofCMq9QpJKgG2v99dc3ZWfFFVe0+VJEmeSr3iC7Hh9u7WOnxkzJfGWfc845ZqCPjQXxmz4veLbWtaD7KK5xGIzT8oHdD+UOBtDY+6g7lntB9ysd2eLSPKHzZYUwECZaZBnij6E89pI+bMHvhNLT5PBFvtVWW9kwddnylDGTMjSd4ZXY9ATlgELRQ1cACvTyyy+f7bjjjtZlyugYyZUoeyXQkyicaVxxXoa19957r8k2M+WyYK4qzbxn2iXeGomUdyk+xDFdPlT8dC+ikGIwTislC6D6oe7cy7NKm/RY92i/jBBmHOEiv9LiQwsj67CV3e9FEEpPkyJBpqL65z//Ocxq6mWCZn9GrNx4443WBB2UA8kKMoQhPPY6m2yyiSk8zOjNeVXc2nrZKpuc1QOFW1CxMs8US0M88MADth7SWWedlT388MMm57onfU5xnZ4PRh4f32kco8AwyospArCz4hg7NVp//ASaoDTifWx1zm/LiPwNssEjfCg+yGTIXEeIqYiRJoUvcPXj0iVBJk6/UopAmUx+oY+dEVsYdgblgi5RurJo3cF2B9sALzukpXeqEEjbtAWo1ZAcA/uEWXY711xzjTnWx1LcCOLHHwf1RfHt4z1vny1u9dVXz9Zaay1bH44V4SXT/hnwz5QZ/JmGFbseBo0wuCWdGqTdiZaeJkUZlflSsL1Q5qRZ13+pFIUKDIZQ8iV83XXXFe6n4HcY5ccq/CussILZg1EJoDir8ATJlEeKDgoActYOECfY7bC69a233pqdeuqpNuWChgcTF0Jx5uMRFI8+PonL9L6gZ1A6aF8Q39i80OpMHmBpC+x96BriPqVl+qx/RxnBfzjJEy092PfQxcUah15G251QegpiRDIRz9AnTfMlc1LQpbXffvvZsd6nimhE3t9T8N84MtrTTz9tS2Mw+2xQDjBKxgZs9913t7WymODMKzAqOL0McU7pimsGhacrCoXCWOte7HboymJU0Pnnn28K/BtvvDH0av5w4PRd/IfiT9f8ftDzpPKpdPYwWaSWcKDFR9N9eKd0E36/bHjZAobwo9TRMhlThPwOsRM5rw4ow2gffCFHpqTA9PeBzgPX+ArBuJSvcDIlU6/PO++8NnyYY+ai4CuFd/j/038WCTOEHnPMMbaoqGaeDXqOPLnKOyfGH398W7cI2x0UHo5bGZ+PgDjhHHmss/yh+5jtl2kWbrnlluzmm2825UfvBN6RF89B84Fd5CqrrGJL+VCuAmnr05j9NM07k6NGgX9SvyKntCTSGskM+ExpwkSZkBcGf9zqkGLtE9oCUKaQUHmlBjjmGo57aZZEkUHZQUuniRLjUr7Gsd+holIXFs/UaiLX/xaB/MMXxoEHHmhNyT7MQc/SWaHFNZaJQHFm5toddtjB9nWtlcmLE+SQcCvskkvyE5C3mFxQQ9CZZoERh7wrfSZoDShDSfdFF10023LLLbNll13WymApxzgvN34fVwaQT8m79yNhoIvr8ssvzw4//PDs888/t3vA+71W+dGKEOr2CW2BSMAQQjKYYIQMzZBUTCg1dFstt9xypuQw2aC+Onhegs0+75DC44VX5J1rFGQ45spgWnRaeuhDh3bKWI1AMpGitEd2Jp988myxxRbLtt56axuR5ZVkVfStTGcyp2vKT9jtfPTRRzYEndGGrPHkn68V30Fzo/xC2rJPqwjdvr169eowvJ1yTYpQKhdF4uU4Tz45RysltmhnnHFG9uuvv9o5wkKY2g1SK3Jxg5BQouhQIdGSg3LDFP90VzGKBsWHYYcIoyoor+DgeI8yGsoF7wPOScPX9SLAj8xfgr0RU/B7PysMwchBXCITpLfSHIhb5iPhSxVlZ/PNN7eVqf06WT49WhkvZ+k+YafQZx+7Hc3pwogs1rDj69jHE/v+HUHr4Ct/7TM4hPnPKJNpfa+VVyQfReLlUnJKOMB/YLP+2957721TLegZyXY7QWpFTu5hlAkkfBJEKiO6qzA8ZoE8mlMXWmghMyzlGplN9/t3aJ/rVHSgd+qatswhwj06LgL8gA3EEUccYYbMwocpGDny4pJztBii5PTt29dsFDDQBH+f5KZIGWkEKvAVzjS8XKcri5ZI5JURhnRrpXGK45zO65wqyqC58UqPh1b3nXbaKVt11VWrQ9u5DzlgHydS2Wo0kk/JKmhffqMlE/se5uGim8tf0zPtACFun9A2EAkctjnY4VAZ9e7dO9twww3NEBnlh3l1uEeKjhc8nieDoUD4Jlah9wsJbxngK5luLeaJ+Oabbzr4M+g5VOgiJ8gXEwxij8DSEayI3plMSO5aGVVQ4MPKOZZCkd0O9g4M69U1xVstueU6Lq+iDJoTn+bIik9bjJw33nhj6yrW0HbJibZ6vijwh/zi4RyojkHZYZkUyucff/zRrrUjxEq4HnSDlZnKeOONV5luuukqK6+8cuX888+vvPvuu5XBGSnXAdvBX56VwUpO9byOdS491jnt6z3aL4onn3yysvzyy+fGzeDMVxmcMXOvheu+G2200SpTTz11ZZtttqk8++yzld9++62DnLDvZaRo2WgkCq+Pg8Ffu5XByk5lsEJeWWihharyyBZHnOo4T05DdlvTkd6U2+l5zv3hD3+obLbZZpUXXnih8vPPP5cyP0nOtfV+9PuUCW+99VZl/fXXt7Ahz+0m06iF7AQ9AF8BzHDL6Bi+uNdYYw0bYo79zmC57PBl4NF53ODMZ+fYF/5+3adz2h8s0FUbD479Mz2N91sK/3/sscdmJ554otlJ4A/d7/0cjBzYfSFrdJFidMmW1h4gfuXyZKGeslE0qWzpeHBhb7MpMwSduXZuv/12m1IBOpPL9Jryp/JZ3jNB85GXlmna013M6EdMErydT2dyoHuKQH5ii5PsYsPG7Pjbb7+9de1SbwxWjOxaO0CKRK5N8IKaCnOaERAkKiBGYDHHw7rrrmsKD10N2OmAf8YLX7OSFvg+vpjbZNddd7U1iYKuk8an9lO4hnJDF2mfPn2ylVZayWTNp4HIO9cq1Ior9pFP8hjX2KcZ/9VXXzVFhyHorIAeBF0FWUKOAFtM5rhaeeWVLR8iY6kMokBI/kDbosBvOPmTLfOm0a3LYBOtGZeGIz1uJQhVOOcGC2y1eVsu7zpdC1NOOWVltdVWq1x11VWVzz77rPLf//63Q7Oib1rEtRIKn7pRCN/9999fWWyxxTrEV7jaDtmSrOk4vUdujDHGMHnbZZddKoO/0Dp0c+JSeWsFfFi0jyOfKaw+HnSOLV0RxNNpp51WmWOOOSye6aroLI7Dhctzqcyce+65lS+//LIqe0Jy6GWxDHh/yW/vvfdeZYsttrDwkC98+HDKL+n5FnC5J8MNdhJ0X1jiqHymmGKKygYbbFB59NFHzU5AguSFKs9xrVWg4lGmJ2z/+c9/KnvvvXdlzDHHHCYuw+W7WhWwzrNFuZ5kkkkqW265ZeXxxx+v/PLLLzXlzJ9rBRROv593LIc8kh8//fTTyoABAyrzzz+/xaNXLBWvteI+XLjUIT/alyJw7LHHVj7++ONhPj5wyotyReP9Iof93z333FOZcMIJq2FLw+jD3UIu92Q45ygcEQIq88kmm8wqH4zafv311w6VDcKPE5xDMUAZ0D2tWhkRbgqAvn37RmXSRUeBImNCjtlyTgXNX/7yFyuQiNNbbrml8s0331TlTfIkmVLBy75aQZodha/Wvo8Dwk+4v/3228p9991XWWONNSqjjz56NV4V5+HCddf5/JmeP/zwwyvvv/++yZ6XRZ8f2ZYB+U8Ov5FfzjrrLPuw8q06hI1jf66FXO7JtndUPBLyUUcdtTLDDDNU9thjj8ozzzzTwYLfF7ypk6ApA7QShElhR6njmFFbyy677DBxGa5zh5xJ1rSlwl5yySUrF1xwQeWTTz6pypDkqZbccR7XCihM4PMQ4eMrVS2NbGn9evnllyv77beftcKmcevjOFy47jh9hHj50T5bZA7FB1nEqTyUvJYB5SXyjvwm98EHH1TWXnvtatjyRrG1mMs92fYOYf7rX/9aGX/88Sv9+vWrPPTQQ5Wffvqpg7DgJOiCfRXIwD2qiPRMK+DDT9jI6Jdeemll1llnzY3PcMM638oj9+c//9mmO9h5552tEldrouRI8a349/vetQo+POk+Yacr68MPP6xcccUVldlnn93i0H+weMc5X4Hl3RMuXJ5DbmrJFef33HNPm5bEt/h4VzT4gfyi8sJvKWNuv/1268lQ/vBh88ct4nJPtrWj4hlnnHEqffr0sabyH3/8sSq8chKkPCd0jGD542aHMKjyBTL6999/X9lwww1z4zPc8N2f/vSnyrjjjmtG8XfccUdVwQbJjQqqWo7rav1oBQgTYVH4/D5KNoakt956a2XFFVe05nlfQA9PqQmFJ9zIOLp9vAyxv88++1irifIfcqo8WzTKN6mfdO6rr76qHHzwwfahrzC1qMKDyz3Zlk52O+uss45VPN99911VKOQQaC/UOISIc6mA67o/1wqk4SLcTIwXXVtdd6qUKViosFdaaaXKjTfeaH3sxKeH41S2dA4nmWS/2fCylDrCoy9n9tWCikL43HPPVeabb75h4jSN2/Q653RfuHBdcakc1VIGqD8OPfRQ645GXlN5lsuT+3rDf+An5Slfh6nseOONNypLLLFEhzC1aF7JPdm0TgKpgi+9XsthNMoMrRdeeKFpvQgDwuELXQlyu6NKVnFBHFFhzzvvvLlx28quO5Voei8yh63YcccdV/noo4+q8iXXDsj+ARlS+JXXVBgrPmiGf+WVVypHHnlkB7udcOHK4JS3DzvsMJu+BNlW/ZGWmZJpyXeRyB98TFx00UVVm57u1J9N5nJPtoTzicZ+ekwlRAIzBB0bijfffLMqpKlTQRwMaWXwcYNh99FHH922FVFe4cA52ezgNApC5+k+3WmnnayFTFMegI/XdsJ/XPg44JhrdGWdeeaZNk9RrS/tcOGKcmkZcMopp1RHW6Z5WXKNKwvKb4MGDaqsssoq1XBIAWoxl3uypZyveNjqixvbneWWW65y2223DWOknBa+3rU7igdlXOZEWWuttSxe26VCUiEnWdKxzmnr44N76DNfffXVKw8++GB1vh3fokEFz3G7IFkSige2xAVxRFxhIO/jOFy4srg0j2sfJf2HH37oIOOS7bQVs2jkDz7A7rzzTmuFzgtTi7jck03vOksotFcSlf5XviCV4DgKWn11AoLphZP9dkdxoTh6+umnK0svvXRuXLeqSw0ZveO8nM5hqNyrVy9bfBa7HcmS4lFyBj5uWx2F1YeZeFBXFgsjjjXWWB3i11cy4cKV0Snv012kllycPmq8zOOKRH5QvUfXHAsYp2FqIZd7siUdFRXKTv/+/a1bwX9Rp5q3d+D32x0fNzgq8t69e1scUyHVUgZa3aWVMfKGo/uU5u6vv/7a+vlTOetM7loZhZO8p4qAuKCJnSHATBfhZUmy1ZnCGS5cEc7LI/s6xtj+3nvvNSN8ybfP72VA/pKfKKOYoqVVPy7+MPjnoMGuJRlcONp2sADa/gwzzJAdcsgh2W677ZYN/uq28zjdI7Q/WB46nBd559oJ4gWIh8GZJbv77ruzRx55xBZ21LV2Y3ABUV2UUBA/2223XXbppZdmyy23nC1MyznuJZ5wxB/nFJd6zm9bFeJLYSROfv311+zWW2/N1lxzzeyuu+7KBn8h2zUh2WLb6nETND/I9CeffGKyOuuss2bjjTeeyS7nPWWSZfz3xz/+0VaR//nnn7Mnn3xy6JXWoqoBtbJjgsGBAwdaUyPQlId2K6TlqsXHn8Nxzl9rdxQvNIUyxH9wRrZ4Zjs4Ew8T/63sfHixE+N41VVXtcVX6dNXKwb4fYFMScb8ttUhjArnU089Zctt0Crm4xbn45duQo7bTcbCld+lLZC+TKTlkhZMbz6hrq4yoHJH9Rt+Y4Z91vxTeFrI5Z5sWucFT4Uji2AicCpk5aTEeEHEqdKp5dodxQPx9M4771RWXnnlany3m9KTF1768ZmssTOZ8kgO/fX0nlaEML711luVrbfe2ux2UGgUh8q7vuLQtXDhyuZUBuSVfcgu9RIjXDUdStnyufePPszojj/kkENaMe/lniytQ3jY1koIFZbs05/KKrKMAMmrdPxx3vl0PxgC8UF84vhCX2qppYaJ+1ZzefImWdT+UUcdZS1fKjS87Pj9lPRaZ/eWhTw/cqywy3ZJLr2Xwv+YY46xJTcUt4rPVpajcO3nJMvI93nnnWe9DeSJsuDzrS+78ONrr71m+dOXf4SHYw1nb8K8mnuy1M4LUV5lxLl999238vrrr3cwIGMb9AzKIFT0k08++TBp0OzOZ+Q8GZMj4++www62TpZGaaiFp5UhfJIBFeA65x3Kj/a5j6khmCJiookmqk55nxaancV3uHDN6KirkPM555yzcvfdd1t+AJ9/ikJ5k22q9LAE0wknnNBpngylpwCXRjrL/TN3jBJSW7mgZyAuWW+rVSspPzFXXhjXXHNNG+XAEHRV7l7WWh0fXsG+Ck5tdQ82AhtssIEt9aI49HHsnVp9woVrJYdc77LLLrYqu/ILrkjkB/JpWldSrrE8RV5YcLXyb5ld047eGlwJVUdzAMeDtejslFNOydZbb71s/PHH7zB6a3ACVvdxwchB3A/OENm1116bvfLKK0PPthZeTiRrkqmLLroo23PPPbPpppsuG3XUUasjMvRMq8uY4sOHl3Pks8HKTof4+Pzzz7Njjjkm22GHHbLnn3++OiqLa9yfF1dp/g6CZsXLNzL97LPPZuOOO242yyyzZKONNtrQKx3vazT4C0e+kz84Zh8/jjPOONk999xj5z218m+Z6Th2rolII7p///7ZBRdckK2++uo2NFCFJomihJELRh7i9osvvrBhjdCK8Tr4q6daEADb/fffP3vrrbeyPn36ZGOPPXb1GuHnfjmeaycIL+EmHv785z/b9quvvrKPEIbrHnfccdn333+f/fe//x36xO+FagpxyruCoBVAxr3jY5GPpvvvv3+Y/FBUuYG/fJ0J5EHO/fWvf82WX355u+bLO1GUn0eUpm3pUaSzZe6dXXbZxb66//SnP9k5FcC6j4Txx8GIo7j9+OOPs5tvvjl77733WjJeVQgQtl133TU766yzslVWWSWbaKKJ7BytPv5Lhy3PsJVrdRR+XyD+9ttvNt/OiiuumN17772m7EhmoB3iJQhSvHLw3XffWT6YaaaZsoknnnjo2d9pZB7hv3zexKX5ldYe/PzUU0/ZscLyxz/+saokNQtN3dJDxJ988snZ1ltvnU0xxRTVSkrN69yjhNOxF7xgxFC8MpkccQ2tGK+EabHFFrMK/IADDrACavTRRzdZUjcXW8mYSI9blTTNKShfeumlbMcdd8w222yz7Jtvvsl++OEHu09OeRQoMFPy4jMImpk0nwCKwg033GDmAV9++eXQs8Wich3/kpfJi6o3UXo23HBDu0/hoYFB5X8z0bRKD10L55xzjnVrTTDBBB2UHF9w6ktUx8HIQ1wSrz/99FOH5lnSANcKEMa9997bukyXWGKJbIwxxjC5IsPjJFNykFe4tTqkN7LwzjvvZEcffbQ1g19xxRWm7Og60OUF+iokzlRg+rxLYat7gqAVQK592YC8U5ZQdp533nk2o31KI8sS/os8x5b8B2l+5QOFbuotttiimqdV9qv8axZKV0OlEZgXofPMM0928cUXZ3379jWDMBJBQsL9cuALVH8+GHEUh3yhoPgojskgzVRh1ZIHMvxhhx1mhspTTz21LR8xPHiPCoNmQAWd9qVs1Eo/3YOiomdxdF1deOGFphhirIydF4bKXPP/gR2Dh2tC9/pz7UKe/EkuqWiQqc7kKn2eyjSl1n8EjSGVa+Rd+e2zzz7L7rjjjuzVV1/NvU/5p95IHnx96Y+BARvUuak/m02WSqv0ENlpBubaWmutlZ155pnZUkstZV/f3KdCM4X75YKehfimf5e1ZZoVwpDKDRUNLRasmYVCDchPZxWP8PLWDDLn/egLNxW2xI2+/IB7FA985d12223ZvPPOay1in376abV1h+eaIfxlgLhKZUtyiYLZWaVHHHOfx6dXZ2kQaVQOSIfrr7/ebCO1dmGapvUGOUidPy//UDbONtts2TLLLFOtm7nelbKxTJTOt8rkbMnAinAid4011jCjZYamY1GuxPGFcaMFpl0hfT744IPs22+/LSSjjiySHUEmJlNjj7LpppvaEE3kT3KV3t/sEB7STHkMR5ri2Pd5S3CeFhsWISSeUAzp1vr666+r97PF5bU4BPmozPOoTMPlXQfSA/LSyqM00b7Q80GxMAIWg3+mc/B5T+lWhnSSv/gQ7NevX1W55nyz2fWUTumBvAKTiD7iiCOy3r17W+UkwahVIAT1BWFXBdmM5Pl7wQUXtMocezGQHNKqofAid80cbg9hoaJkq33CrLwlCCsF2/vvv58df/zx2frrr59deeWVw7Ty8Rz36v5gxCANkDE5jiWLxDHln4f4VjqC0lAyqjTRPqRpHBTLo48+mt10003VVdnlyoL8gpwtvfTSTS0/5KTSDVlXxgQimZEg++23nw1JV4ZXpOdFfjMnSLNApTZgwADriyaNfJo1A8gR/qZSAex2MCrEWM/Llhzh4+vGKwXaNiOEB6fKUg78PvfQbUWBvNVWW2X33XefTTbIsHTiQunO/doPuofiWigu/XnJKee079G9es6nBceks9BxpFc5ID0oTxkSPtVUU9mHvdKLa7gi0f8jL+R5eln4EERRg2aTJUJTKt8Sgfq6oZKhoN1rr72yXr162TUSgPNeGLTlvO4J6gv9zxtvvHF24403Dj0zJB0Q/mbIAMqoOBQgwnLaaaeZ8pPKD/dQKKmFkWO2zSxnSiO2ym/a14cFze6PPPKIKYMDBw60r1A9R/xBWgH79wTDR+Vduu/lTHEOtEKuvfba2RxzzGHTJxDfgBKKw84OG5Fffvkl931A+iqN/LuD4iCtSJdNNtkk22OPPewD36eZ8ltRSF5ULz/++OPZoosuatdSGS07lNql9C2JvPnmm5uRJCNolLk9/svbK0K4oL7wtY9Cyhw2ZAbFuwrZsoNflVGZg4Ip1ueff347lqwpXMC9CqOe07VmRGFQxUeYFUa+4l588cXspJNOyh577LHqKL28sHOsyjW9rv2gNoqnvPhSHM8888zZRhttlM0999w2MSYzzo855piWZsS74p/nSSdmwh40aJC1wh577LFmd8d1UDqn6RUUD+mBLSG9GtjLMVpKslGk0iMZ0RbZofUXWZQsNRuEpHRuyy23rLz99tvVFavz3GBFp7pKLcfssw3qC3H81ltvVZZbbrnctGsmN7gSqCyzzDLVFdIlV9rHSQZbSc4UHuUhjllc8N13360cf/zxlcEVbWX00UevGWdy/vzgwrnDcbjhu8GVWYet4nDwV39liSWWqJx88smV559/vjJYkakuass2lVE50hKHPH/99deVgQMHVk455ZTKPPPMU/nzn/9sacZ/RFqVz5EmyMH6669feeGFF6r5k3QtEi9f8tOvv/5aOeyww3LD0QQu92RdXZrhdKxtZwpPmgh5rkx4f3khZiv8NR2r8EK4VNjhygD+eumllypLLbWUpRcZtVkL0THGGKNyzjnnmKyB4tnHtT/nXdnJ86f3v5fFL7/8snLmmWdW5phjjsokk0zSaXpyrVnTuygnpQbn4y6NR47HHnvsygEHHGAVHyv4K52EjnVO+6kD8ioK00MPPVTZa6+9KhNOOGGH/8Rf3m/yQ+qvcPVzxLUvQ8cdd9zKkUceWfnhhx+q6Sg4Jv29qzf8J3IkucJRXlIHpLKjcJRcfnJP1t0RKfpSVMRxvPbaa9tS9mkkc6zM3gzgT/mXbRqePCcB5t7PPvuscvnll1fWWGONyvvvv9/hvqLBn3x98iWqtPTpqv0yO/zJ1zQVDGEhTKmS3ewQJskU4dGx3//xxx8rd9xxR2X11VevTD755NW4SeMrXM87X2EQ5yjg2223XeXuu++ufP7551YO9ASk92+//Vb55JNPKnfeeaeVsWOOOab9Z6209pVwuMY4H99rrbVW5dlnn7X0U14FlU3IBuWV6sV6wv+pbOS/5AeUsmWXXdb8q7rcy5RaFRWmErnck3V1yuxEiM/46667buWVV14ZRkFQwuq47OBH/JuGQ0736DpwPxXQo48+agXf/PPPX5l22mkrU001VeW9994b5vkiwQ/PPPNMZfHFFy+rUHfJ/elPf7JM+8UXX1iYSIOytaqNKJI/v1W4cL/88kvlscceq+ywww6VGWaYofKXv/ylQ9w0c7qW0aUKjj8eddRRK6uttlplwIABlQ8//NBad0kj0q2nkBzwbrqmL774YuvWHW200ar+kMN/kf6NdT7O2Y433niVo446qvLTTz9Z2sn5POyP60n6f9qiSF9yySVWjubJiw9TyVzuybq7NDJWXXVVa86VIpDndK3spP6Wn9kiMKqEqGDRoPkCu+GGGyr9+/evzDbbbNb6oPhB6eGrj2d7shAcWZ566ilTetLCXPvN4KhsqPS9jQRb7TcrCgfbdB95oyX1oIMOsq6s8ccff5h4abZ0LLurFZ98Cffu3btywgknVF5//fUOdmVyPQXv8nLAV/qLL75oXbvTTz/9MH7DzyEHjXNpXHNMIwB1otJMzqcnrhH4/1c9zPbVV1/NbeWR8/VDiVzuybq5vIy06KKLVp588slqExpbEjOvSQ1XZrw/U3/rHMJCRUsLzr/+9a/KKqusUplxxhmrX10SFOIKpUf9+mVSekgv39KTl65ldviX+MZ2QmkDSiMdNxMKhw+DP8Zu58orr7RWBex2kLO8QqnZ0rLMjrjEKZ7V5D/RRBNV9t9//8p9991nNjfK2z7NcD0J71PZqvdTtjz44INm7zPZZJMN43d/HK4+TjKSnp9gggmstYcegDQ/4ziHayT+/5HZn3/+udK3b98OdVYajrwypmCXe7JuTgksN+WUU1buueceayojIkEJrC2Rq2tlBz/jX/ld4dB5lJ1BgwZVzj777Mpiiy1WmWaaaaxrQYWhnOJLSo9/VxlQS49P22ZzjE464ogjLF7zKp1mwvs7dTSR02268847W1eWV66RNbYlLJhaxhHH2I+xHWussWx0Di27tPCqO1VlhPa17Qn8++RUpuJUJl1zzTVmSzLOOOPkhiNcfVxa5vt97K9kc6h0TF0j4f/kD7Yo0eeff76VH2rxSV2t8wW63JN1c75wJTIw1qVZNy9B00huBiQIPhw4lDpadmhOXnLJJc1ex8dHKjQSfJSe77//3t6td5UBlB6UNvm3GR2VP6MkiNNmkrE8JBve8RX2+OOPV/bYY4/KvPPOa1+OPvwqbOX8tXA954hbhovPNddclbPOOqvy2muvdSjzvAIi15PyqPf7/9H7/T7ygk3lBRdcUJl11llzwxKuPi4v/3Fu6qmnrpx++ulmi5WmmT+uJ/oP73QemWKaC9n1pOHIO1cCl3uybk6RQCSdeOKJ1nTnI5OERGnQF5A/z7bs4E8EgS2wj00OhoMoO9NNN11NIfDn2UcJQuhp6QHCz/vKQKsoPTQfQypnzSBrQv717oMPPqgce+yxlYUWWsiUnVoylzrdFy0/PePIw7169bKyjta27777rlrGKa0kc14pkRtZeLd36fvlBH7gI+vhhx+uHH744WZzlBeucPVz5EHyH45egK233tpG8KZp6dOznvB+dYtKRnUeh0K2wQYbdPhoV/nR1XKnwS735Ei7zgpNvnr23nvvyjfffNMh8pSIPkGF7ika+Y/EZ6tz3sn/TA52yy23VLbYYgvrVuiuAHC/urf8/xQNfmgVpUfdW3muaCRH8gtbf86fxyGTTHVANwVG8VNMMcUIFzolLawKc6qE2FfcsKWgz4sr7p100kkru+22W+X222+3sk5pp7IjTUOd07H2Rwa9J3W18P5iVONtt91m3aKUQwpzGtZw9XPEN3GPOYTShm26X0/0P5ILnNAxH/XqwpW/07CUyOWeHGHnA+0DLi2QiNl0002tD5nI8pqjIrbM4D/8mRZc3tF0TT8sRrJzzjlnh9FY3XVe6SkLhPHpp59uaqWH9PA2PTiFzR8XifcLDnmTS8/RYopB6i677GJdE7VmUw7XfZeWaf6Djv00bzO53DrrrFO58MIL7Qudr2SVcz7tmgG65QkDBvAo0sObuDJczztk7O9//7spzj7PQ1lkiZGA1O2p30sqK7kne9yh9OCY0E6GWRQEXukpSwIOD/wowfN+5xhl7tRTT7Vw/u1vf+tQUI6IAITSUx9HWpRZ6ZF85TnvRyrUl19+2YagL7jggsPY7YQbcefzrfKuzuXdxz7Dv5nZmqHGmlFXH0g4r/w0A/IrSjUVGzZJ2IcpPnz8yPl40X64kXNMUvvcc89V5Uj5X8dFgz0YJisoPj5/lFEGWFnxoMGubgwOtG0HR4QtnHfwwQdngwvn6nltgX1/XFa837XPitT333+/LdJ49dVXZ4MVO1uJnOuDZaK6WFt3YQG6bbfd1pbzLxOffvppduedd2Yffvjh0DPNBekyOJNmiy++eIfVgj3pcdEgQ/gJN7jytEUlL7744uyUU07J7rjjjuz111+31bWDnoc4Vx7Oy8u9evXKdthhh2ybbbbJVlpppWyKKaawFftBaebTT65ZGFyZZRNOOGE2WKnLZptttmzyySfPvv766+ybb76x62mcUN4rzMHI8/3332eTTjppNt9881UXH/XyU7QsUZZ+9NFH2WBl3xb/LjtIZY+6wQkwzBcA055fdNFF1Qm49PUDbGXY1wzgX32x4W9GZWGoOFggq8OBCXMaLyPioqWnPo70aYaWHvkFeZMxIbYWl112WaVfv34mH8preeEM1zMuL345x9Idgz9KKtdee21l8IdANb2Ufj4d2QrdV3bkT+8IB2G97rrrbHJPBmf4OGIbMtnzDmNhuhopC1R/SraKBn9g/4W9rvxL+pdRBuqyXv3gOKhq+ThaKbbaaqts9dVXzwZHytC7ftdO2aK9Do640n8ZyH/4Wa07hx56aHbqqadmgxWBDl/a3JO6IOgqkhnlp19//TV76qmnsuOOOy478sgjs+uvvz774IMPqvksqC8+D9Pqsd5662WHHXZYtvvuu2errbZaNvHEE9s1pZd3wqfT4Mpq6F55kf9TGSOstGjtsssu2T//+c9s3XXXtXNqhQh57Hk+/vjj7J133rF94jlPvopk1lln7eCXVGbKQo8rPQq0MjRNvHQh0PQ79thj2znwiZVumwGadenGOuigg7IBAwZk7777bocEZp/w+EKgjAIQlBPlBWTmP//5T/baa69lJ598crbffvtZl9Yrr7xiSpDu4f5mzEfNyCyzzGLp8I9//MMUn2mmmcaa92vFu/K9rvNxR/nYDOmkcgu/al/nKdvp1ltrrbWyffbZJ9tjjz2yeeaZp3pd9wY9w6uvvpoNHDgw++2336pxWxYZop6bZJJJrPtTCplQHVgWetymR4HVFpsUCus555zTEspf9xEjJSk9XzbwJ/2W55xzTnbRRRdlzz77rFVKeUgwR0ZAw6anPpAWZbfpQW74urvkkktM3m6++ebspZdestZEn5dABU16Pug5ZpxxxmyLLbbINt10U2vZmWqqqczWRfnbozTw6eHvU1qVrUKohZepVMZQfmjlmWGGGbLevXtnf/vb38ye8Ysvvhh6R9ATkO8nmmiibP7558/GHXfcoWeLL6fEH/7wh+z999+3Hg8Ue4GM5+WRohghpaerkTzWWGNle+21V7b++uubsuA1wPQd/nxX3z8i5BU8Qv+rczrG75yjO4uKh+6F2267zboW6k0oPfWBtK230uPlyMuZp9Z/fPXVVyZj559/fnbFFVdYQfLTTz/Ztbx31Xp/MPLQmkEZtuWWW1rLDh9wo446qqWd0s+nY3o+3U/PlZlafk33caONNprFFYbObGnZR/mRsXMtar036AhxM+aYY1o30nTTTWd5HlcWxVmtl1dddVX23//+t7Rp2W2lRxFMgPIim/O40UcfPdtkk02yPffc0/aVOLqeovN513oS/KH/YKvKIv1vzqv1CT777LPs2muvtVarRx55pGGjZELpqQ+kdT2VHhUAki8hmfLX9D8co1jTekgrIgrPAw88YAoQjIx/2hXFmS+rOOfjstY+X9XLLbdctvnmm2cbbbSRfWGPMcYY1ec7c5C3n7pmo5b/JcvEM3FEl98cc8yRTTbZZNYCgPKDA55TXRB0D7q0iVNkUV2qZYhHlXc4WqVRepAJ0jktA4um2yqiAsBW+4p0BRpjZRKFyppKm/sQ/DIgv3r/A/sknK+UgGY67HWohBiO/txzz9n5IOgM5MfLV4qu6x4KiTfeeCM77bTTsgMPPDA777zzshdffLFqtwP+/qBrKL7SeCP+VfFyjS0O+MBgaPDOO++c7bvvvtbKM/XUU1sZpvt0b5APXV7TTjtt1qdPH7N92m233SxOQXLsXdA1aDV78803bboAUYb4Iz9Qd2LgP++881bre/xWtrwyUu1iXmgVMPbp1vr73/9ufbygQqIMgff+wK+dwXUqnjPOOCM799xzbR6U4T0TBICM5cmK5E/KNXz55Zf2dcQoGEYB3n333dXWnaBnIC2UHmx9OQDsowRhk7L11ltnBxxwgHVnYZhLy4Xu0TN6R7uTxgFy7eOG7pi5554723jjjU2+iVvi2KdHio/noCPEGXYzDGwQteKxkSjNyCsot9i6cVwGv6WMcEtPCudxBJrhizQL68sIfCtKkeBH7w/tK9HkX768sd9hMsXLLrvMBE3XgqArSJ6UZ9inYhXfffddds8992THHHOM2YnRffrJJ58MvTpEVvUOT965oHuovFLaTDnllFn//v2tVWLXXXfNVlhhBeveogzjHlXm/hlt2xlfrqcyqTiD8cYbL1txxRWt5YyRb7QAYfAcdB8+vp944gmL27KUBaQ1/qBnhG5NKT1lZKRaekCFOAGkWwutfscddzQ7njKiQkuZUULjz//www9mRHrCCSeY4qNRCHomCIYHspKX6TnPkNMnn3wyO/HEE22OJ1p5UKqF5DDoGZTH/b4qaypeRmLR/UKFTGXMqCwpO0oH/zxE+nRE8UJ9oG5DnRNUhHQTEscoPth7rrrqqtX5jYBnQv6Hxcvdt99+m7399tvDNRBvJD6tUXqQgVrKcNGMtNIDBJDEYBgdwzlpviSgPrDpcZF4v8jvAoXnuuuus8nfmAhO90YmDLoD8iInWfvf//5n9mGnn356dsghh2RnnXVW9thjj1WXKxGSOZz/WvaEPHYdpYNgn4+yhRZayLrhad3BUJnueD7cFPeCfV+R+2vtjuJDcezjhjjz8cZ15BmbKUZ4bbbZZhb322+/vXUj6h7Qe/z72h0fj9j0MJ2F4qto5DeYYIIJqvvyb5kYIaXHB0LaHN1azLjMVxPkBVb3FolPHJAfOYfmfM0115jBMl/ifJF7/HNB0BUkM8zldNddd2XHH3+8dWXdfvvt9sWG/HkZxKX5JmV414PfIT5V8QJxxwRq2JjQ2iC7HWxPFK9s5YQ/p3cGQ1DcprLrFXa/VRxi+4n9B+uV7b333ta9SNrofeDfF/wO3eBvvfWWxZWPr6Lw6coHxQILLFBau54eybkEjoKDryb6bmsVCGVInFrQhcX8Aig8GC8LJab2g6ArqDCSowWRmZSZaPDzzz+3e/IqBeHlLhhxfDyyCCizBzNzMM7b7ZBGXjnqCt25Nw/8hQzoY1B+1flmoitxpzjWvo5JAz6WMXRG+SGN/OR7nu7GeXfvLzOSDcJEizH1VNnCR15iDivyFiP48G/ZGGmlh0hH0dlggw2qa2/IKSP44zKgykb+YqQMCg/DhZnqOwhGFsmWoNWQySyZYLBWQaBCLegeiuc0zrVPc/syyyyT7bTTTtn++++f9evXz2xLmOcEuM9X2jpOy6/U9SRK+9SVnTQufPz4+Ev3PYSTbkXMIqhHUH4wJl9iiSU6DIZJqXUe9F+tgmRB4aJLnPJErcVlgboV/2kdNvxWtnQYYS1EkU9TFhO8oamXLXB5yN84EgSFhzW0zjzzTJsnpRnCEATBEHx+zSv8Z599dlvsmIqUriyMLJk5uAz4skjoOFUM2gHSD+UHex/mSEJBZYj7ggsuOPSOYdPYx6EccJ9cK+HDhMLDJLFlQA0J8hvrcAmlSVkYKaWHADIZEevR0ESpAJcZ/IjfKVTocmCYsBQeXQ+CoDlQflWFp2Om6e/bt68thMlixwsvvLDZkHCPWg/KmNe9n9qhLFJZzFbHOGxEl1pqKVvQmVF1tAAxy7PuAZ/27ON0rZVRWJm9vSwtPUo3OSamJJ9BGfzn6bbSo0Ch2THbMn13msa/rF8nEhI5QOG5/vrrbSSNJnoqW+IEQdA5Ko/Iu2xZ74kyiSHohx12mM0ZxlenFB3dW5a8jn/A+6cdyyGfNqpHOKZrcvnll7e0JE3ppvSkaemfb3WwQ8W2pwz2X15xJQ1oBNE5nz5loNvSQQAICM2QLLy33XbbmcGSAlwm8Gsa4fiTdbNuuukmmyfllVdeyb0vCILmQIU+gykYCcR0AEydQcuA1ifylCWv4w/5nX35U+VRu1TeCq/HnyMNMUJnDTRafuimxKRC5D3bauTVr4MGDcpeeumlDiuaF41klo8MWlahbLrBCOUqMur444+frb322tnMM89cFdCyBE7+yQODUqb5Z+HQl19+eejZIAiaEfI5yg7z7DDnC8PQWfdPC/SmZUGt/aKQH7yCU7ZKohFQpxAXhN2ni+KC+CFNmVuJSWNZn44058Pbx1f6fKuQFyZ6K5irp1GLXw8P/Ch/kl5MVFzGmZlHSOlhSBrzK6y55pqm0ZWp7254fnj66adtLS2G+5XBv0EQjBjYDfDhhaLD/EerrLJKdb4dFbSqTFMolL2iURS+QsCfjO6ju71so3LqSa1wkj7Ej7bAFkN0Rnah/GDvQz3ELNqCe+RaDcLk44NRXKzdVzQ+n+E/lB1ssugRKpscd5rrawkOU7czkdSkk05qx76Jtkx4/7DP1N3/+te/bKZl1tYKgqA4RqRS4hmazeneYAj6scceayNHsf2gsCWf55VD+i+23NfT6H/9fw/vGHSOySvpaueDjNngsTVktm6+5v196fPgr/l7/H6ZUZp4eWDfH4M/x4c2aY7Siwzssssutt4jdVH6XCvz/fffZ5999tkwae5do9F/Mi2EGkTKxHBzfypAWNUzhHDZZZftEKAiIjcP+Tf1D3MasFL6HXfcYQs9lsW/QdCueOUjLWdqVVx0XTFaFMNWtt5uh/dRJum9nEuPa713RKEckRP+nHf+msAeg48xyqajjjrKuuguv/xyW5ONxY7PPvtsa5XmI43narVc6b1518qO0iV1eXDeyw3p26tXr2zbbbfNjjjiiGzDDTe02YCJh7x3dCZzzYKXgc5GcDVSFohXnP6TuNWSLo30R1f4XQJywLNqxRGTTz65DR9k5JYCQ2AJXBmECD/JCZr/mA33iiuuMK04CILi8XnU7/uKCShXZplllmy99dYzWw4MlRdZZJHC59uRn9Nw+GOViTovh7JDWXTnnXdaSwWtVig7qiRYp+3ee++17pvDDz88O//8881+Qy3Uek+K/z/2ddzqUMHONddcpiSiMDJqj8lyQXHgP9J1LpW1ZsCnKd2h1G/Ik+QhTfM8OakH6f9oioiy0aUUl8eZiBCjQea80Dm/bVTkdoZPePb//e9/21w8KD2sVyL/BkFQLD6vpugathorrriiLU/AAq0MR6ccKgv4Ux99QvtpuPiApHKionrkkUeyU0891eYROu+88+w69/uROLybYyZPZVHOU045Jbv//vttGRPFD1ue81/ZguP0XKtB2BXPKDUowtiSoPwgMwx3n3LKKe069+kjXnHTbPEjPyvMKM7YgFHPCYVJ9zQK7y/obEmqIhnGR/K038ohPLTy0MWlyFcEI0xlCyB+ol+cpmPmMwD5NwiCYlEZI6VBx+RbRodit7PjjjtaZb/++uvbeky6R9uiURno/aV9Xz4CFdPrr79udoXMEI3tDsve+Gd9Ger3eQ8L1dLyw2Sqzz//vClPxJX+g+f9//n9VsWHHThmn54IJqdEdpjdebHFFhumZTCNr2YD/2sEFzZhCo8UO1B81Bsfj/q/plF65Pl0y9cV04Njz0OgiFhFcnpvkRDJOPzyzjvvWAHx5ptvNiThgyDoHipLtA8MQ95kk01sRBbzgDFKi9EgQuVMGfJ0WgZCuk+XFDaFt9xyiyk6LHb68MMPV/2vd/jKClTGquJgH/seuveYr4bWa8o2Kry0PMbp/a2O4s6HnRYy4o1V25EhuhAZ4k4XGDRz3MjvhBMIu8IPbDmGIsNJ40gZ43m4apg8Pdlkk9nXFjOegh9/z1aKRhnAH998840VCo8++qh9YXlBCIKgeMiPvtyYccYZrftKlTpd6fo61z2+cC8LlH/4yRfwHOO+/vprmxeMFge6suiqEj5MetaHjX3iJ30v3HzzzdYKdtJJJ9liyR9++OEwdh1yrQ5h9PGmcHOOLfY+zBlz9NFHm2zRXTrDDDN0eKZZUNj8Pkq15urhWEoy6N564/+HeMUxaXEZqan0KBDyPF9fSy65pJ1XweOFhn0f2UWBP3799Vf7qrrmmmus/zsIgnJCRY3dztJLL50dcMAB2YUXXpitvPLK9pUIaTnjyyV/vgi8H7SPI0x0Ozz77LPZOeeck+2+++6mnKCYcF0fX76i8OESnNP7IFWAgK4yZp8+7bTTrPXIj0xl69/XqhBGGSkrfjhW2IlvPtJRoJnLCRmjexHbH2Z6TuO0rMifvv5lnzT3A3S4D1dU2ku+y8owWkpehFEoMXKCib9AX2dFRCz/5/9Tx3JE+DPPPGMzLjMUFBSmIAjqQ6381Vm+w+5i3nnntTWVqLzXWWcdW8A47+MpfY8vA+pFWrakLi1XOMeM73Sr0/rCKuFUrm+99Vb1Pu7Jg3IrL4yqQLjmW3JA54AldRgBxigv7IQYylzrv4Brch5/Pu96WSEufPzhb9VT6hpVWFgXql+/fiZzu+66q8mgtxcDv192NFdPHo1MQ+Is/S8mMi4bnTbNEAg8Pcccc5ghmLq0ECY0afa1zSuo6oUSMi8x6dbCcPm9994beqaxCR8E7QhlQArn5Dwcs3wNE5wyggmbCz6sKF9Ujii/ci/n9B6VPSp36kmtciPvPEPMP/300+yBBx4wg2OUnbvuusuuobjUeo8n7x6Rd02KEtdwKDuMWGJ+nyuvvNKUL/yl/0+dFCYP57XVfpmRTAgvJ/6aznuYPI9JDVEYmd9n9tlnr8pVem96LPx/15taaULPBjMzc837s5af64n3A9vUHq8MDJNiilg8zJbCiDkPsMQuA/IXDvw+X1kDBgzIHnzwQRvZwL04ZYAgCHoW5StVwD6fke/Im8qDwGSCjMpickHmU2GywbxCsQx5VuFJ/eHDQ7ix23n88cdtSL2GoDN3SiP8r/8gnpUGlIEsvIoNCwsrM1WHFByVlT5+VYZ6V4b472lqhYf1vJgLCUeXl4a4C54jTvIgzouGtMWupwzppXwBxBl2eqVXegQRiGfp88QIDA24LChDEqkkuL5kWHGWadwZKaFzuicIgvqSFrrkO86RF+lSQMFhnazrrrsuW3311a17Syiv6h3sF4385P3CPuHB8WHFaCq6Sfbaay9T5FjEuJFlJf4QvsLhPP7ig5U5axjintr7+PRSuDiH41j3tjqEGxuylVZayQa/MLqOUcrIp+KizNCa54es43zaNoI0jnTMklVl0h2gptKDp+lfp1uL1h6dKxv4icxOtxYGaiy3n4cycxAEPYsqWyoPX0ZwnllZmU2ZyfUuu+yybLPNNjP7CV9Be3i+LB8ptcoMvqrff/99a0WhG4vWnSeffNKu4X8cz/m4aATEfxqvHKOMUZFToaOUaX6fNGzcq3Ncb0Xy0tNXypNMMonJKoqiVnFnxLLiVd1fZUJKD0j+RKNk0P8vcSX5QXFMZbJoavqGALCmyRprrGGe9oEqEu8HhI/WKAqhW2+9Nbv99tvtayYIgvpD/iM/qoDzlSZb+vOZzJTWV2xNONZ15WOfn9mXKxP4GUc5I7sd5hBCkaDMKbJQx1+dfUkrbejyx36FyQ1vvPHG7KOPPqrO70N8p+lStoqqJ1F6KsxCx4QdRf2YY46xqQYYxDPddNNV13grm3yi9GDa4f3lw5aGsx4QZ5IZ7w9Gfjfi/7tDTcnGgJmJnTA4hLJ4PP0CwV8YLdOfzpBQyMuw6XNBEPQs5DHyo7qyqDRwtBZTMVMY+lYc7vUFpPbLYgOA/3CES0PQUeAYgs6kp4yYwc9pGKRINAL9n1CXokfhABZcZuJHJutjSQvCgDIn/7LVO3lXo8JRFD5uPISfCptuLgzTmTeK5Zd8q0/ec0VAOkmBBfyldGu0H728sD/xxBM3j00PCg8aLgmM58sk/PhFBYvW1kLxUYHqC4GyCGYQtBrkP+UvyokJJpjAugMYOs08WbQSa8gq9+HSVon0A8WXNdoWBeUIQ7+Z9ZjRULRWMaMyS0mAwl60P0F+Yev9o2Ocv4byxmSzJ5xwQvbUU0/ZsGcpTDjSicqK/XbAxxn7qvcIP120LGnBdAB0eWHjqkl6ywByiuLKVukHPkz1hv9SfLFVN6DOl4kOJQ6exLPMYElzHkv0k/iKxLSAKgL8hz8klDQ1Y8vDaAmPj3Tw+0EQ9AzkK5aooTtg6623tryIsTJ2Ox7lP+VBlStp+SLXE/j/y9tPnb9GdwEtx7fddpt1YzEaisn/QB9V8re24Pcbhfe/wB84zstPukf+p/WKSRO32GILs/dhXjOGP+e9T+fyXHpdpMdlBpnDr4ob+VuySBxi7kELGQowBuLM6lyGWYfxMwqr/A5Fxnsqe2WTgQ6lixIdi2uG7vHlJg+XxfP4Qf7gK4ymR8106gvLtGm2DH4PgrJAfvb5RQWVP8++yNunJYDhvbTonH766WYwO+uss9o1vcs73otjP8Xf549HBpUVOMo1lQH+XHqecoNBEQxBZwgzcwhht5PnH/+c8PtF4P2U5z+h6zhaspikD4NsWugYDEJ3icrQPAd5cerJO1dmkE19LKey6sOB8sNccMyCzSoFjHD2yk9ncuvlyO+PDKQTSjrpAYp3vbsRaZD+h45pJSMey0QH3ygRmLRp6aWXHnr29y+DMoGfHnroIVs9HUOuRiRsELQK5BefZ/wxeSstqLimSgDHvF2sjcVcMHSVLLrootX7yoL86/3OvsKgMHIOx0cUE/wxzw5Gv3RnfPvtt9XKXY5n9VyzozCwZTQa9j6sTzVw4EALOxUqKMygeFCrO6TXgWu63swQNh9mscQSS1jLJkbt2PvQ4kl4FX6ekxIl/D5wnJ7rLtR/mHnQxQU98c4RQeEG8kxR/hgeHSQST6OxMkR98skn75B4ZVN8mBDsiiuusC3+bIXMFQSNxBdSgnPK72mBxTnKB1pzWOyS+XZYOoKvOVWOkPdsUaRhxG8qyxRWKguGoDOqiRYPRji98MILdl33gt7FNn1vs+LLTcJE99YFF1yQ7bDDDralFSgd4s4WlxcH3NdK8QOEhXhSuBUPKDQY6tLVxXQMzD1F3Sk7Np5TfAh/nHd9ROD/6JXx/zuy7+wuihe1DrLPFluxsjGMpsAMihgwM1kTCSIaHYm1wE84+toZfcDXmT8fBEH38YW5ID+pUlRXFouBouwceOCBNo+XygV9AXM/rgzlhQpfFcDeT+xTQH/xxRe2CjrdWCxFgI2gruNU2bUqeWUm4aXFi+4ulNsbbrjBTAhoTdB1H5fg40hxJ9fsKAwKI1vFgeKP+X1QfFjkeoUVVrC8wgdC3rM9DX5AcfcKh/ItNCINFCdq2eI/8Q+tUGWrlzsoPUQULTysQYJH5Xn2fbNekeBH+twxvPvqq6/Mfz6BgyAYMVQ4+kKSvMXXLEPQacpnIU2WkgAUIZULlBWgZ8uQJ/GL/IP/8JPKND6WmE2Zoch06bBOlsLgyXuHyLu/2VCcCF9pAR+WG2+8sU3Yd88991iZ64e4p/Cs3lfrnmYjTWfJBHEneVCcMXqRHohLL700W2aZZezDgPl9fFz4OOoJSDMULLZePkVP/lctFCeC/1T5kOenIungm/HHH98UHubZkPALAtSIyBseaI933nln9tprr1X7MEXZIjcIygz5WXnaF1hAXmI2Vex2zjnnHJvfBaPNNI/xQeS/5HiPvjjLQBpGum8YpYQCt9VWW5lBqprguU5YvN/TfR/WVkDhUxwRPtIvhTKXLi+G7DNfEQtcypZSDtnAdSZXzYjk2TvQlrCyrzCjgDA31eWXX25TAjDXT55Br4+nkYG6GsWK93s/NRL+Ny9vICdlyzMdUoFh6jTNMWRdCUJEpgpQkTDjMisza4g6/lJCt1qBFAT1Qvk7r5Ak//fu3duGatOVtdpqq1l3ty/YhSo6wXXKizLkRfkVf/OBxMKb2O1svvnmNpfQc889Z/7EpeFKj/NQ3DUzhEFOxyLdZxbnk08+Odt5552tNYM1DmkxI259ehN3uFQ2mhnCJ+VHsqEwcw7nlUWOUXToMr3kkkvMVmymmWYyhUjP67mRhRYV3lsrrnviP7oC/+/zE1tkRvFUFjrEEi09TBVfBiQQ3gH972Q2CZi/FgRB1yDPUBipoOSYr0XKAEai0H3MfDuTTjqpXQcV1qDnOefPA8coPvWms7yv85QTDHZ47LHHbN2v/v3728ikFP+eNDyC88RXreutQmdhJJ6efvppa/WhpYzh/HyAMsQ9TQuOU5d3vuygVOCIF+9f73+ucQ/xloYJkxHso7D5YXoHRj5yb0/B/5EX9b+pHxohr/oP4gFHvmOLUkyLYJkY7K8hnuTrDmMs5uhJI4njRkScIMGUaD7xyFgs8Pf5558PPRMEwfAg75LH8/IwhSUFMDPM0gyPISa2G/POO2813+c53pcqNrrWKFTQeycoaClw6YpB0WHeMT6YYHj+TN8lOOcrl1alVhh1jus4jL779OmTbbvttqZUMtlh2uWF4161kuBA22ZCMi/5kSLkZYljndN5jmmJmWOOObKLLrrI7OKw96ElKE/50bP+HVDr/F//+lfLv/6cpxFxnf6HygbfQFEWRpEgUuDR7Fs08g8JqH0g49x3333V0VpBEHQN8lBakalwHm200bK55prLJlpjYjrZ7fh7y0peaxL+ZqI2JtjDFgkjZZQ4kVYYwcjDYs8sz8D8PqziThmNvAFxjTwprSRXSoN2SgvCTmsqCjhdXnQVLrTQQtZ1TBwJ7pMjfnzcyYHiDsWJRguh640Ev6T+Y/vII48MY3tbNBbTeI7CD0vzovFNYUpURSQr3jJyKwiCrkFhqnzkC1AKX2z4sDVgWn1WQ6fwBSosXwiXGV9GAF1ZAwYMsGk3sEnCaJlKgfsUJlXIQc9A3LP6PEa7m266qU3qyBe+bH3kuC8t09sNhZtuZEbFEVfIKVPFeMVFEG95LSWKO+LTyzbneUbxzH4j0H/qf4F95ngqW1liLT14imGpGopaJCqgfEJzzBcEE4bRxRUEQddQ4SjI68wcu/jii5uys//++9u0+qACi3vS58pI6kc+mJhJGVsTTS7IOSpf9uUgfTYYcZAbZAZHvCsNmAaAgSey75BctVvcK7zEk5zOYUP7j3/8w0YTrrrqqtb4kHZ5EW/Km2y5zseL3oECxVIYOuZ+4Z+tJ/oP/KB9FCH8WbruLX5mnnnmbKWVVmpI5HQFIk6RhZ84vvnmm01rDIKg65B3lJ/o+2cR4WuvvdbyEzYG+rqkgPJfhTzTLOBXygkcswjTDc4yOoSXCkKVQDOFqZkgXpEdtqpkmd8Ho10WM33++edtqoC0NaDd0kNyKiVA+2yxoWPwAPY+dDFLdrmmuBU849+BojTmmGPaPg78/TpXT/QfKkMkC/JnmbDSAOtyCsCyoQKLoaash4OhXBAEXYfCiHyE3Q42LhgqL7/88tUCVZDPcF7xKTvyP1v8jf8J13zzzZddffXV5rBV5Ly/17tg5PHxSGXnK1zW88KGhZmd33vvvQ6VNenSDhBWxYmUAcUZHyPapwV2xRVXtFYfFvBFjpVPFV8+bgG5ZzQYLT2pctRo+G8fHpUlOi4Lg+NxyCRkrN1RhgKPiFMi6/jBBx+MVp4g6Cbkoemnn94mlLv++uuzfv36WTe2rvl8JjimO6gZKiTKBipRFbagMozRLKussorZ92CkzUy5VCDc610w8igeFaeSKR3/8ssv2b/+9a9szTXXzM4+++zss88+q6aTnm11fF7TPrJLPPj4Qo4ZQY1tFMbOdH1he6d7kOEUxbmcjnWtEej/gP/Effzxxxa+MugVnlGYhGy55ZazfsEyFnT0yaP0sO5LMxTEQVAGyCtMNErByWRyk002mZ2nAOKaz0uc883QeQaVZYSClUpCYeFYYWOfgpiPOexLWBaAioSv4qBnIb59pYc8Kf7lSCdm0Wd+n759+2b33nuvfchyH86jc97lnW8WFAfaF5Jdrxj4sLF46V577WUtP0wQCr6lDOgGo9FCeVbPNjp++D+FU/9NzwzhylPUimQURmzw9YdHGx1RXYHRFzSRovRIMIKg1fGFo1Chooo9D66zThbdWNgH0K2lQqfWc5xTS0ne/5aV1K8+bLrGlnJjhhlmsNGfGG/T3ZIH93YW/s6utTPEb17doXOkC/sqvx9++GFTyGn5YR6lWs/K6Tn2Nfy5leoCny8lgzjyJEoNw9pR2mmtZQCCrgPdWnSDaeRliu5rNISHkZSkmR+RXQZGmXrqqW19HR+RRSJhVkbC6JLmUSiD/4KgESD7ypNynMORN9JCn0KGdfOw22HeFEaCUGByXs/n4d/f2X1lJPWvP/bn9UVNfGAkSpcXjpmnPT7Oa6HKKegaxKVkViiOMXamQl9nnXVsuQLu8y2OHANxzr6OoVnTwcuX9ofnAHsf8jR2ameeeWY266yz2nkmOGSqmbxn/H4jIH1QcPhP0pH9MqbTKMwUifV3WVAkEXFEIgsCovRoQbUgaBdU0MvVgiHnTHNPKwZLLdBVTX7BqQDC6R3De1+rQNj18SRo9aI7YPXVV7cFIU866SRTFlU5qHLWsYf3pMpm0DnEVxpnPj2oGGnJZ6QXLZMMcQfin/LepwPHyHTeO1sdyR55m25a1j6j2xZ5Jk5S8uS3EaiO5kPj22+/LV0rD4yCtbiUnqIiyuP98Oqrr9pQRwpsmjX9V0AQtDJpgc9+ekwByBILjGzcd999rQtHz/n7KTB9RQPpcStCeUEcqJIkzJxjn0KZUassoYCR7fbbb28GpJAXXx7eqe7AoOt4mfSQHiz+yuzZtGawor/mY/PpwH0gGS9jhVoPFG/IHFsUHfL6EUccYS272OWWAflTafbWW29VW37KxCgYSxGZnWXyIsA/Tz31lAl/2SItCOpNmh859ufommEkzKmnnpotssgi2aijjlotcFTJC857ZUjnWh2FmfKNfeJGcUH8sI8BKHZPVCDMjstHINdT9BwojtshDnsSya/SQsfAPmX9k08+aUtasCTS66+/3iGOFf+cw7Wz4klcjDvuuDaTMyYqniLkUmmCkkPeIC0ff/xx2/fpXAZG0VD1srSiKIKIwIMOOij7/vvvC0nEICiStFIA8gFfdUcddZQZNvJVzNDsWl2/PM8zXGPbbvkoL7w6pzgBthiCYu9DdzrKJIqQR+nBvXouTZ+gNj7OqG9qwXW6uLC5Qr4PPPBAm6dNzwufDu2Alz8dI8M+7xcZJyg5+IlWKJRR0viJJ56ottiViVG09IRGeJQFpjPHlgd/dZZJgqBVUQsFMOScNXowZNxpp51s1AatFL7yBhV8aeGXd087oHCqwsDp69NfwxHfk0wyia1Dxuy4zG/kJ23VfXLB8FGcE1+prIKOuUZZz336CGf9ruOOO84m02TkHR/A6p4sy0d6I/Cyxr7iNHVFIv1BfqHFB4WnjHX3KGWJNCF/MKcDkVbGPsEgaAQq2DG6Za4OJiqbZZZZqqOyKFBw5A8KQ184+jytisRfbxeIQ19RgK98dY1zKD044nemmWayOWVo9dluu+2GWYxZzwedQ/xK7lQBKi2k1LPPNdnocL/SjalK3njjDWvxWXfddW3ONlbR5zmu65l2QPEGhL1MeVppK5hqRudI5zJhn5ESsLJE4M8//zyMcAdBs6FCKS2cVND7QoxzKYsttpjZmWC3w/wcDE/1BQjP6Dn/rpTOro0onZUXnFezNvvq59fWP+ffo31/bmRJ49o7yDuPI54ZJjz33HNbNzvDhFnPy+PTTM8FnePTl3pHdU8K51Rpcg+tPA899JDZ+tDSie0PkE66zz8j9D8ivSeVx7KSylbZ5M2XS8QnSg/xTh7x8V8GRqFPUE1TZUl8IolhjOonFL6QCYIyg9yqUPL7wl+DtLDefffdbWQGc5gwqog8yjO6n3259FjnoNb5nkB+YUueJQz68laZAhSI/Le2wDN6HnjeTzzXU5XR8MLd2XX+Hz8zSo4FmUmP448/3lqBeAY/sqVcSsMT9DzIB/P5XHbZZTbS6+ijj7Zh0SC5Iz1UyZIekikP9yi9aqV9mcCPnbky4P1C/NNwQfym5VoZGMUXLmWJQFblZYpy/OM1yDJGYBDkoTylLeRV+r6wgK233jobOHBgtv/++9u6WbQ2pMq+ni0a72/86POrv4Z9nvr35e88/0tR4l1l+MBR2uAXRscxSob0YT6ZPffc01rehA9v0PN4eaHLi+HQGPSzhBJ2bvQKCNJLyk46h43SSUp61Ck9D3H77rvvVpXPsjFYPn7v3y5DxkW46cPFLwhkO/XZBq2Dz1PKYxQCyHda+eOwV7jtttuyQw45xGZIZ1SWlCQ57tN+0cgPvtLQOfxJWDFEZXVtRuEwH87LL7/c4X7FQ1640uMikB/wH34lPRjlRUsPayLRGr3++utXw0Q6B/WFtCCeiXO6vJCp3XbbzdLh9ttvryrXpJUqXe6XnAmucz7SrGdQ2YZj/7HHHsttZSsDZsgMXiCKBKFloio0dxX6UHQBGATdQZUlTpWil2EKW+SbL1XsdmiqZ8g0BrO+u5lnZQvjKUt+UDhV6LH96quvzPCa8Fx00UU25JivcQyymQGZ1ZeBOFA42OodoG0ZwG+qHPEX6cYcKSyhQGsDS+WsvfbaHdKoLOnTSkjWfH6ivmDV9rvvvtsMzzH2f/PNN+0a6QRelqiIOea6d8HIQZzK0eWoD5wyxu0oFDS4sniOORr4gvLCGQTNiGSXbSrLE000kRXQJ5xwgrXyMASdJWF0r0fKAefJqxQm6T1FgT9wVDBUQDfccEO26KKLZv/85z+z999/36ad4DrbDz/80JSEZZZZxoaE//jjjx0UBX3kEMYygL/lvzS+OSZdsLdaeeWVLVwnnnhiNt1001Wv+/QORhzFYxqnShO2yN6gQYNsnqU+ffpkZ5xxhinfwDPKM1KEypSHWgHFK9C1hU1PWeV/cL4d0sRXFgFAS2RJevyDQziJPPbLGolBkAfy6mUWWSavsT4W62QxCoUZVbHbUYUP2qpg5hm9i/s4Lgv4CSWF2dNRZnbeeWcr9Pj6Vjg8rLzMyA6WzaClhCUH1AxOeIHnlP/LgMoe/CelU2mBY4g7M9uTrkwaSZeeT89g5FD8Sy5SVH+RLijSLF908MEH20rutDBSAfs8FOnS8yhO2b700ku2T5rkpVfRjCJPlUUQKDxpzvcRxlaCHQTNQlqJ06KDESxDoKnwxxtvvKoCo/znK1UV1JJ79r0rEvyEsvL000/bulX9+vWzYcR+9ly2Pg4AZYBzKEVUTjxLy9AjjzxSbeFRnBSN4tmHx/uNcBAPOM5j2MxMznvvvXd244032vDqoGfw6QB+X/lD6cEW5frFF180g3OmGnj00UftHsmYngl6BuVz4KNHdXgZqU5OKGGpN/yPFzw58cwzzwzjD/kvCJoJFcxsJ554YlsdeZVVVrGFLplNWdf8fb4lR9d0vR4oP5LncD5vat+j819++aUt1Lnhhhva1zQFnfKtBh/4fKz8699JuOjyIs+jIGDvQ5cYzyvMKjzlP+9f9nHcg/PnewqfBnJKH7bpOUYL0eW17LLLWvcl3Xis56V72Oah50Wt+9oVpb/waZyX3tyLPNDlhXxtueWWZjeHvIHim2e5jy3PoMjTVcaxXNB16FJktKZPq7LJsqU8CYvHGuU5BM5HiuDcK6+80qFgDIJmxecplBzme2HoswpcXff3+X1Ir/c0KtT9/6gS0DW/j20OrRjbbLNNdthhh5nRKF0KoHugK/7199PlhX3TGmusYYbdvJN3qGUIOPZ+AfY5T5ziOJbyUw/4r6447LOmnHLKbK211sqOOeYYW9ICex/vd5FXHubdF4wYxC1yis3Veuutl5111llmQgHEs/IjsO/nmAq6BjJPXH7zzTc25Yw+fHS+TFj3lly90X/4//T/+/nnn9vKuhRaRBaUMdKCoBVQ/vN5jH0Kfm31AcJoygceeMBGKdFlcNdddw2zECSVC8coKt3Js/o/8j8fPYcffri1lNxyyy1V5cc7by/DVs8D+1yHossN/IS9FkPcacnCyJbh1QK/Bo0BWfjiiy9sZDDyxXpeyLBaEj2SJdAHQNA5ijPycJmNmMFynS806k0tAeI8TeaM3sIvuk/+CsELgp6D/ORbUJTPOKfz3EOlwDp42CGxBtX9999vXVm0+OgeofdIUeoK3M//8R7t0yWBbR+zUuPY1+Rz+g/Qf+scx6qkdE8ZQAljiPsCCyyQ7brrrtn111+fbbzxxlU/EmavAOm8lLegZ5CMMGUCMsVAgqWWWsps0fJklntDMe0akmHmSlJXc5nyoMdselRYNMqT/I8ULf0nfmAW5rTAUgEcBEHP4j92tNU5ygO+jJlnZ6ONNjL7HWbB1Uir9DngWfJvVytr3S/8Pu+lS4I5cLbaaitbf4zJDv1UFmzTZ3y5gisS/b/8Sxcn9j4sabHffvvZel60OIAv53z4gpFH6cAW+RDIM5PoMcs2UyygzCvOuRcX9U/XUBwzUAOlR/FcRhm2ZShSYagnihwJFU4Rg7U9hW0IWhDUH1WuQJ7jGMe0EXyxUTEfccQR1kePgSL3+MLM513sIMi7/p3DQ/ncP6OuK72Xll9GeZ188snZHnvsYUoQI78oWPWM7gXOdfX/64385f3EFuUH+x7mkyF+jz32WJu6wOPDFPQckjnSQXHMRHoo9f3798+uuOKK7NNPP602AjSqXmwFUBqJO+JV5QmULQ6rMzJ7IagX+q9a/3PzzTdbYZaHng2CoGcgT/l8RRfSs88+axUx8+jQDUNXEwWYygdVGqDncbqHAq6rrca63+/zH2n5wLvpkkARo5uNr3Lsi2gZBu7Xx1Le80WCv0DxIb8RVoa4zz777DaqDyNuug+DnkdxjnxI3vw+11Hq6fJifp++ffvaDM+yTemKLAeZjYzzcaV94rpMVIesNxL+T4WBB6FLI0h+k4AGQTDyUNBLSaDLiK+0U045xebNYZg1BsWMcFH+U8Xhywo97/eVf3W+M/w97MvlQQsQdkTq8sLWh1mQmQgN/+MvnPdHrXc1Esot75fUT4SLUX3YltCSRXci8zmB4jIYebx8CPa9PMM777xjc0ZhrM9IwocfftiGsAedQ1wy8MB3f0vW0zgumv8brHyYzxqhVBAJOEUIWx85jHRgBd08/H3tBDO90r0wzjjjDD1TPKQDLQIYZVIoNCPI02ijjWZzqeyzzz7Vc17GOC47+BeHX71/dR78NR8+Cii6iljolGZ9CnytiyV4zj9TFHn+YCmPXr162bDwNddc0/bpZvNhxelZtrqmbb2pFXfyk/zFRyBl8K+//pq999572UMPPWQtbbQ45KHnazG860HXYLJJlB/mo6IsVjcuaSUZkvKkY+KdHgvZtvlrzQjhIYzSESRXHGufsoQuW1qGCSvntS0bfzjwwAMPYqdRiZIKgI4Zmkrfdq3urXYFZYcVqpnqvkzQd3vnnXdWJ/tqNpA5JpJbfPHFbUZgnfOkx2VG+YjCCUdho4KZfc4JzmG3c99999mcJSg8KNaab6dZoPsBJY1pLrAHhEkmmcSUWRXQihdP3rl6of9KnfD7+JlKFWUOG58555zTDJ+Z+wSj8hT/bFAf+ChAvmj9YYV90oayWHGvSj0vLZT/oBXSKg2LlD1ghCeTi6Y9OF4xKgt/OGgwPkHqmTi8G+cLYUUIGiKLxOV1e7UzofTUB+Sw2ZUe8k5eocu+L3BB+7QkYLh53nnnZWeffXY2cODADhVq2cOcQji///57m8mZri6UIIaHs8SHb/VJt3nxVgRKQ8KhSgSHbE466aQ2xw+OVnBmutV1+T8PVTRFh61VwHaMkYMY1GOCgfKDco1ButLDo7j355s5LfL87s8RXlokWWxY4e5MPovGWnp8APICWA+8lsiW4YMXXnhhKD0JofTUB2SuFVp68KOcjoU/RwsqBfc111xjRrP33HOPdaNo/hvgPhVW/j1lRv6k3GC9JbroWHaAOb9QfMYee+zqiDA5H0Y9XzTyh9/izzHHHNO6VTB4nm222SycpJvKyfQ5Txm/spsR4hGQKWYO56OB+grFR8o18aw0ExzLNTN5MkT9TbwQNmztKFOwAwTFBU77ZcJaeobuG430oP6LLcJ02WWXhdKTEEpPfUDmmlnpUUupCp68ggm4j5YclJ3jjjsuu/XWW63FgK/XMoevK6hS92HHJpDWHiolvsopkOkiQnkQhFuuSPT/bH3loK0qFipVKle6vFB8sJ2gdUvDg/W80PP+XDByKC6pn+jywqCeLmHSgS4vRuJJuRa19lsJwsXIN+wi6W5WPEkuy0hhSg//IwcI0ZVXXhlKT0IoPfUBuWv2lh6ff4SO2VIgYxBLNxYfFMw8iy1PHmUPax5pRe/Djn0SXV5vvPGGjUxDcZhgggmGyUdFh9v/v99XpYFTq7i6vGaeeeZslllmySaccEJb5Z4y0z8b1BcUUbqJKfuw9yENSCOUH+zJfFpov9nTxysxqULDVBKXXnqp7ftr+igpG3844IADDtJXI9Q7cdJI4P9wNBnyNRpKT0dC6akPyFyzKz3kJeUnn69o7cCwl+5i1nt68MEHLb1EZ+Himr5Yy1hgpSgsfuv9zeSG6pKgBYhKiSHitewxGo386v2hc1QaHu6hrGbRWhYzRfGh9YcuPCpfX45D0WFrVSQ3pBPTOtClinJN9zHyRasc5bWU1TQdmxWFg3D7fYyYBwwYYPuKF1FGGTSlRx7zgaknihT+V/9NP/xNN90USk9CKD31AblrBZseQZ7CkR6XX355dvrpp1v60IKK3Y4PC/u1wqbzvuAqM8NLI64zz4q6JFAG1SUhe5+i8HFMBaljtj6N2KpcZJ/rlNN0qcw666ym/Ew77bSm7LIIbJSh9UXpo3QAunhQrrFroZsHxZSyW8p1syPZJCySR8LOPuEk/Awk0H3QCF1iRKgaMithtK036f888cQTZm+Qfq20O6H01Afkr1mUHgoSnPIG+/hNjmMKHeZ1YbkGPh5YTVozFncXX3C1Etj3IK98lWPXROU08cQT28goxaVQnKfonLb+mZHF+yH1D+RdR2mjm0utPlNMMYW1PGgdQ49/n98Puo+PW+KSYz4uGIWMPRn2PhjWY+yMPZnim/vyZCd9n9D9ZUgv/CB/sJVSg/Ldu3dvW2GdFkf5F+fDVRZM6ZEnG6mZKfIETfAMewulpyOh9NQH5K/sSo8vMLSPn+QvtnTf3HXXXdaNRQvPo48+WtNuJxgCXRJUTCg/VE4oP5NPPrl1TYi0sPZxzjWVUyNTZiotazl/j76qvQP5gxYFurxo+ZlhhhksPHQ7YHsi9AzbNHzByKG4BeQLOzIUAFo/sCdDuab1x6eB0L7P48AxjmN/f6PR/8sPefvYy9HaSLjp5itzPT7M5ITa1hMlpLZE0B133GETQIXS05FQeuoDcldmpccXeIKKT5UfM6Bip8KyBSyWeO+993aw2wmGD5P+oRig/FBR8cWqLi/Fs2Cf9JCSw7FcGZA/qFgxdEb5Yag7rQxUQnlLKdTye9nC1mwo3pApFB+6vRhBKXsfFFTBvWk+B50HyVyZod7GyB7ljvmMCG9Z6/KGTk4ofCIrcZkK//HHH68mdDCEUHrqA3JXVqVHecD/v/YpSDDIxeif2ZRZ74ZKWzOZc19R/m5W6IbA3gcFiIqK7iIUIF/ZpGlRlnjGD5IXLzf4n+HtdHsxZB9ZJ892ZR0pwo2Lsrj7+PSQfGhWZ+SLbkcM6VP5Enom7z1lBr8SHloYmbyR1mfZlpVNlqpKj1yj0X8yWVooPcMSSk99QO7KpvR42fcFnvbpM7/66qttNmWUHuzgZLcjv/r7g65DF5dG4VBBYezMlyuVE/j4FcSzPy4CfU3npT/dKhhso/zQ+kN4+ArHtknU8j/vCDnqPj4+/T5G5kyhgHJNGpA2KKO0zIm8Z9n682UFxQZ/UqbSwohyzeAkLUBaJhq69pYykhJS/8n2/vvvtynxo3urI6H01AdkrkxKT14Fo/+n9YH8wRB0urOwf6NrBrjHf0k10s+tAnGmeMNGikoJxYcKivl+sJVR5eS/zv1zRYIfKDdTvwFy8Ze//CWbbLLJTPnB0JmWBgxutbhzGcLQCqTxqGO2ONICZZoWH2xfPvroo+p6XihB6fO+rmwWkEPqKrpXZdhctvU0bcg6O42MWP2XEhRHS08oPcMSSk99QObK2r0F/DeVEqOMWBCU1h3iO114Ms/PRfq7GdFXqhyVDcbgGKFSaKMIISupPYYqpSLR//NFjS1SXkWpYxQ3FjGly4tRRbRikY+l/AT1waeFFFO6vJg+gdZFlFJa4aRY+/tJT/DnykjqT0ZEMqKL/EMdUaZ6vRCbHv2HMihbCvTo3hqWUHrqA3JXFqUnT+aJV2Yox0iZoei0OlCxeT9pPy1wIg91D8WXKiQfn5p/hPinxS21x2iUjAwPKhVNKunhmPDoPFsWZJ1jjjnsa5xWBr7EsWuiS8LfF3SNEYkr0oT4Zh01FB9G2ZEulPe0+nDdy2EzpQd+xe/IFo7lYGiZVniKpjo5oY/gepK+n2MyLKNPQukZllB66gNy1wilR/LM1st2+m59CVH5PPzww9kll1ySXXDBBVZgYG/C/cN7RzDy+PjVPhUS9hh8tTL5H/OxUEEx0isvXYSupegc255IQ96RupT0PLLPSBuUn+mnn94UObq86M4D31WWR63/CboP3UDYkiFjtPrQCscWiGPSwsuRj3edLzotJMuUY2x1TNcwH2uPPfZYl4zoG0F17S08KFcv9G5FDE6Jxvol2Cqo8A+GEEpPfUD26q30SJb1HhUEoK3uoRWBOXZo3UHhyevKCoqD9EIhwB4Dx9c5aUah7isoT3rsyzauIQ/DUy66Cu/z/6dj74Q/Rx7A8FStPihzrCbuJ7ZMn4ee8ncwBGQLpRpbH+IWxQelmn3FvepKtmnZkqZPkeAX+Y9Wq169ell9QWtpGex7Ch2yrkRkH02XuXpiCvWOhNJTH5C5Rig9KrT0Lsk8sM/XD4XdVVddZXY7N998s1WotCYE5UHpR6GNMvrss89atxfpRN7E3ocCHqQQkP5ehkhvX4mB3y8CySMVLPY+tPzQAkSY6JJIR3oV7d9WRPGKvDAdBRNnYmdFVypyJVstoX2eSeWpKOQHhUXgV4y1p5tuOlN6MN72ik96fyOotvSIenuA96tQAAWagv6GG24IpSchlJ76gMzVW+khw/t3sK8CiwKOrhLikBFZzKbMqKFQdsqN0pN0RCnA0JxuCb7UmZVW9j5cx/myTvKgd/j9osEfVK609KD80PJDWOiawJAbuUz9LlkOegbFLXJFIwDGziijGDmnExp6Vwa8LGgf2Vd9jiJNXUZ5R3e9KML/HYas19sDRIaPHP6PY7Y068Uq68MSSk99QObqrfSAvvb1LrYUatjqMCoLQ2VseOgq0X26NygfpI0vw/gi1yruKAdc58sWBz4tVdb5c36/CBQW+YMtyg+VFEPcp5lmGlN+sDthuLXuCXoeH6+0sNEQwGzadJ8ypw8jovIoQ3p4OcqTKRQgpk2g3qB72Nv3NNr/1bW35BrpAR8pKD008YfS05FQeuoDMldPpQdlR1u9B4NYVmFG2cFuh4VBMR5F5ikURub/gvpC2uBUoKfw9YriQ1clI77Ir7SayN6H51AmhN5XNCrz/VYwhHrqqae2Li9asei+Q7HLW8w0GHlSeaAbiFZElGpaelAa/OKlnqJlyf+/9tn6lk7CMNNMM1m3MN1cILlrJNa9xR/rz+vpgVrv5jwaLZVBKD0dCaWnPiBz9VZ6yFOq6KgUMVI+//zzbZvXlRUVSTlBDiQLeTKhgp30pDBn/hU+4viaxYiTvKvn0kI+731FkPoLOCZstPTQ5UXLD4oc52mZ9PY+QX0grrEho9WHMoUWH2x9lDYiTbtGg/yk5Rd+wqksxL/ID/L03HPPmQJdRH3/e6wNxkdiI/CRxGJs/ksoCJoZ8pIyPXJNJaE5d+jeAl9QpQVGUB5IGxXc4NONfV0XdAPxQUB6Y5cBuq9s6Yy/cCr7JbdC+3wgYOez4447ZgcffHC29dZbZwsssIBVYMHIo3TIgzShtefcc8+1wQ58MNEKVDZZAsKQyjnlH2HQ+eWXXz7r06dPtQu40Ywiz9WK8J5EgZbzEYSVOtsgaAWQbTK78hVbOR2HvDcfKq9EeuzhPIW9FArw+2UiDYOXVdB1KqoFF1ww22233bJ//vOfWf/+/bMZZpihg6Ftd/D/0c6kcqR48edpRbzsssuyM8880wzoMTKXMo5j3yvfjcTLC9tUzhUGrtHyuckmm2RLLbWUNXbofKMwn3kPNwoiQZHDlpWNFTFB0Gr4gknHQevQlfRUGdvosrYrqBwGtul+ep2P1JVXXjnbd999TQFaaaWVbG4ZXe8M/54gHy9PKjsAswIG/Bx33HHZfffdZ12qul6UwiNIT5xkxacv/tM59pkbCrMN6n3QcyJ9vicZpV4vzkMBk1PAcAzN0zwXQRAEQbnIqysmn3zybMMNN7RWn+222y5bbLHFTCHKu1eoAtR+0D0wlEfxOfLII23kp0ZCqV4lThWvfr9IZLqCDY+UM7pHl112WesixY9eZtivl78b3taqgPjEIRJQeDDaDYIgCJoHuivmnnvubI899sgOO+ywbOONN87mmmuuTm02VPYH3YN6EwWCuGOB7uOPP95mcmdkqOpUKFv8+hZuKTd0bdFKyDIohMkbNdfT74V3MPvEIeNIIwyCIAjKRV4Ljs4xxJ2Wnn/84x/m1l57bevG4Lp/Lu8dwfBRvKFAUGdi04PCc8opp2RPPPFEtatLCoa2ZYlv/Eb9jnImmWAI+5prrtmhwYPrUC9/N9SQGRRY/S8oErDqDqUnCIKgvKgM1z6oPGfLsOTVVlstO/DAA7Odd97ZpoXAdsM/F3Qf4lYKj2ByTNasxLj5+eef73CNuObYnysK6nj8LkUMP0kWtthiC5MRGTV7P9dDXhra0pMmgN8nMmafffaqlhcEQRCUFykxvhwHjinHmdgQY9Vjjjkm23zzzW2uHyZrTO8PRgwpBEyHcffdd2dnnXWWDWdX/Op6GeKb+t03aHg/Mfv3lltuaXMQga6l4egprKWn0ZHi/08aIOdo4urpAAZBEAT1gXLbV67se4eSM88882T77LOPtfzQlcHSFqDngu6RV18z0d+NN96YnXbaadl7771n5/LuKwqltbbym2SGCWKXWGIJM2r299ajEaShzSoEIg20IHA0izLdue4JgiAIugZlKk4fkY1A/+XLdcpynMp79qnMVl999ezEE080g+dlllnG7H2CkUNxjEPxuf3227MLL7zQ5vRR3LNVOnm5YJ/zjUD+YCsZ0TFg9L7rrruagqw5n+Q/7+eewP5Rf9woFFj9L81enGP4I11cOk7JOxcEQdDOUCn4ikEVWXq+HnjDVF+mi9QPE000kdlwMFs1ldzCCy9s3Rtp2c5xeo53q27QtfSedoJ49coMjrX8Lr744uyCCy6w5SuEvwenc41SejySF6H93r17W0sgDR+Q3tdTNHSenq5Avx6BVcK0s1AHQRB0hspJUIUm2wl/rUwwPckUU0xhS1mcfvrpZs+BvQ9ztQmFxUNdIKWKaxxH/TAEHw+08lx66aXZgAEDsh9//NHOeQVCcevjs2jwD3KBATzLndTT9stsery2WDQMWychfGJIuMvgvyAIgjKhcpFyXGV5EV/wefiy3NcxbOnGQNnZa6+9zNi5b9++NmdLLZjHBeffUZZwFg1x4RUf1uo644wzsjvuuKM6eWEeZVF6xJRTTpmtu+66HYyafbh6glEQGk0KJGEqEmZpRONLA1sGvwVBEJQJykhV/JSbqsQ4L1cG5BcpQTiOKdex51h66aWzo446ymZ2XmSRRbLJJpss1++h5NRGdaTi7ZVXXrFZm5nLR/GmNBA8U4a61ac1y5vQ2oNSXA//DQ7/EAEsS+Dpz1OfXhAEQVAbymzK759//tlm5eWYCq4MZTmoXkn9QyWH0zX2Gb27/vrrm03KDjvsYK1A2AAJVda+ggyGQJwQP4ob7TN3D6vif/zxx3Y+Ly3S4yKQH/Aza7itt956ZuNbD8ymRxGkvuAiGX/88W1WT7X2lCFBgiAIygjlI2X3yy+/bF0Zn3zySfVcGUABUyuDlDGc9vEnTuepg+jiYFJDjJ0xemYVd1qD/L1lCV9ZUJyC4oh6ne27775rq7N/88031fvYAtsyxKX8IL8zuo/WHpY46WkKmaenM2jSmm222UzpUUTIf2VInCAIgrLxzjvvZJtssokZBj/99NM2fLkM5ToVL077lOFUur7iFVzDofhQ2bF+F6u4n3TSSdmqq65qdh48wz16Vu8OhkC8KG6lBGHYfN5552XXX3+9nVOcKQ61LRLvB/w36aSTZv379zcFuKcxpUfKRBkCT4AxZkvterygB0EQBL8rEpSXcPTRR1vX0EUXXWQ2HYzeSY1/a7m86yOLr1twqohRbOR3bYX/X1p4lltuOVN89t9/f+vyovsDeEbvC4bFxyOtPRg2P/nkk9Xzijviv2jy/LDkkktaA0hPt/YM/q+OAlcGFlxwwQ7rcPhtEARBMATKRZyv/J999llbvZouomuuucZm6NVilJCWpf5Y7xPpvSOCFBscyg4urXM4lkvrJPax7dl0001tGDajvagMMYXQdZ4Rft/j3wm17mtVnnvuuWzPPffMPv30U0vXsoWf9PHyxnptjOirNYkl96dp2hVs9BaM6At6GvzAfA1MUqivlzQTBEEQBL/jy28pFSxEiU3M4Ycfnj300EPZl19+mf3vf//r0PIDes5XhOz7e4rCh+tPf/qTVYDbb799dvnll5sSxDGru1OP+XCAwuLrD+2z9c+0Cx9++GF2xRVXmNE7EP4ypDNI5rx/FlpooWzaaaet6gLg02xE/F6dnDD9syKhOWuzzTaz1h78h3CWxW9BEARlw5eRKDUqN4FlCf7+97/bgpQYPP/yyy92L9f1nO4VepevYIrAl/vs4x+Un5lnnjk74IADspNPPjlbYYUVqvY+ID8TplSJ45gt11AO9UyrozjB0J3ZmgcOHFiqsMsvUkp1zNQFpC9b8NdGlKohMy4V/CKZbrrpqhEA2gZBEARDUJnNABBfRqZlOZPVseAnSz8wkofjf//739Vn0sqGY1xZUB3l/Yi9DwbO2Kowxw91xnjjjdch7OzjFBZauvK611oZwqrwE3e09jAyDgNnzdFXNEozpYvSG1ZZZZVqF5fOcZ9cdxnl+++/H7pbDsVCgcdgjUXqhAIbBEEQDIEym4pLSkse/jxdXrT6oPzcdNNNVvGhCKiSkSsL8jt+8uFgn3MoMKzdxfw+t956a7bddttZBcmcP55UEeL5slT49UbpKcXnp59+yu677z4zdve2XkWSKtj+uFevXtbFRc+PFFb8TDqOiN9H0TL0ZYHAEhj68FhqnqZMAgpe6IMgCNodykt101BmppUHpOUm97Aa9wYbbJAdcsgh1tWBvY+38wDeWYYK0YN/vP8EccCoX2Z0vvLKK21yO7pEsPcBHy8Kl+qVdgAFT8oejsVIafF74oknSpfG8qMHo3xWa0jPjwijIOzSmHrihSML/kBA8YvsekQ7CWkQBMHwUIX13//+19ZYoiwHX5brnNAzlLPYd7DwJ/Y+b775ps3sXMZKkLI/DZPqLdA1uvnmn3/+7JRTTrGWjOWXX36YLi8pQLJ9ahcIK2EnztinlY94krJbJEpHtnLyK46WHiapRInleGQY5a233qo2j5YNBVLNkDTDtitK/LJQNv8EQTuiPJgqBT5v5lXs3C/FAWXnoIMOynbcccfs6quvzj744APr9oD0nbWcv14v8AuO/2CrET3yI+fVVcdgmKWWWio799xzrTWLVh99QKdhahcIq+/Sw6D9mWeeya699lo7n8YFx3L1xvvNK6icJ700X1M6fJ1rPj27wiiPP/54dfn57j5cTwgsFvnY9qRGeu2CwtwIoesuqZ/kV7ZlVKCDoBUhr5HnfGWWkuZVjvPuf/jhh7Mtt9wy22effcz25+uvv7YWJO6X860rOta+8Nf9+Z5A5YvCnZY73hyCY9Zx3HbbbbO7777b7H6w//E9Bnpe5/y1VkbpQmsPK9wzqktp69PN79cT4h0llvRg36cL6QgLL7ywGauTxrqO39jXcVcYhfU4FOAy4DVOtmjpNE82IuLLBmHGffvtt91O2HqCP2iBQ/v+y1/+YkLp06csshQEQfdhQkNWusY+hiUtKH/oOlNLO/lf+V0VklCZ5cuDosGPM844o3Xh3X///dblhaEz56XkqGyVMpiGq5XBxIW5e1Ru+/Lbp3XRMFkhI7mmnnrqDn6SstZVzKaH4YtpxVUUqabN2hv057Vjaw/hpbBhCnHSpizCB71798769etni8IpbdL06eq5IAiKgXIfl+ZJKpJzzjnHWkcYEk6XF+e4T+VQ+ozKKFx3K6J6g39oScBk4sYbbzQj3llmmaVq6OwVOuB+38rQyqAD0A34wgsv2HEa5rROLgr8Mffcc9syJHky21VGwYobu54yDV3DIXSAdtenT59szDHHLFUmqic+MQkz8yrwBaI4KQMIIErPmWeeaVOFI4gUKkojpWMK19slHYOg7FCm4HyepPxRGUzZwySAdBFdd911toSBWkN8XtZ7eNYrCyNaMfUk+FH+YMsxrT10edGTQBeY7IN0L2EoW5lbT+jKpIVPtlzCp3EZoAGExUiVjiPCKIMGDbJFyOjmKhM+syCgGKHlVaKtiBKTLULIisng46QMUDDMO++8NgLgkksuyZZeemnr8uI8hYW6KvF32fweBMEQfLmqfKrKnmuco1too402snlwmOPlhx9+6KAQ+Dyu8qsseR5/KIz4jX3KKOx7dtllFwvP4osv3mGksBS7doEuTLq4HnvsMUtX4ok4IO6w6yoL1C+M6mYF/hHFJIFK9fPPPy+FUkFkywkmJ1pxxRWrTZHtAgLHRFJY15NGEsaiwQ8qDHG0wqHwMD8GTeEoQtj6ULDofsFzZZCzIAiGkOZPD2WOlBu2t9xyS7bSSiuZskB3CLM6c15lgeCdZSirUry/tE8XPV1e++23n637KNqtnKK1hykM+NAmLfXxiuFw0SitSBO6JelZkMx5uesKtvYWwkvTpYShSOQHAoffOMZmZPXVVzctr50g/PQ1v/POO2bXIyWiaHxBCDpmBm0mPOOLgQKEpkhZ2itd02eDICgWX+aSN3WsykRb0LWLL77Y5sPZf//9q0Pcuc8rCrq3aHyY8B/7OM6rRWf00Ue3UWsszirFp93KKYawP/DAA9baoziizvHpXxSkhdKD6QfGHXfcalp2F1t766uvvrK5GmhVUGDlID2uJ0RwnrAts8wyHZalaGWIA5zimwnD6G/18eLTpBHp4iEj+MzgCzrOYXy+9957Z1dddZU1hyOkZck8QRD8jsoaSMtdlStp+eLvP+mkk7INN9zQyifsQ/UO7vHlgseXW6nrafCHPhZ5v/yFsuMrTZ3fZpttsn/84x+m+HCssLYLjOTea6+9qnFVr3TpLqSFTw+mVlhwwQWrfuwOg98z5GX06TFmH/QSBRiXp4jUg/R/FEgmmzrssMOyiSaayI5bGcW5QAO//PLLs/fff9+OdU33yXZGrtGQRhQsEkocLTxzzDGHLQR49tlnZ4sttlhNxSfvXB56dxAEPUNaZnSl/KCM9vexjMWmm25qMzuzz4hTvVf3pccpnFfZP7x7RwTKDcon7WtOmLQlmn2WPGB+OLroa/mB++RaCdIA5fXZZ5+1Y032WDSpXoDJi6ay6W4aVFdZR8NjdkbBn/iXSWDqDRVjWjlqOCGaHfYjXPP+YV9C3Ep4YWNh2PPPP9/OKaFxPp18oVEk8hugrGIDQJeXVkLWNWB/eP716auwB0FQDpQvWcB00UUXzbbaaqvqNBuCfR2z5UNN5RXP43yZ7p+tN/IP4A/KGgZmdGbfI/+1WllEeDBSp7wmjLU+VBuN/ICf2J9iiils7iV6f7orK5aSPPTKK6/YKrVKfFALgv/DItD/Tz755Ga5zcRSaWUvxahVQNg8tPYwbwbppHB7sLAnY5Y1HhgpwcrO9BkfeOCBNtu2L0jYT8MMhBW50xcH9xQlh0EQdCSvbkBhmGmmmazlhyHveagyLUNepp6j/KEekSJG+XTsscdm448/vh23S5lDOFmhgcEzzz333NCzxSNZ8enAshQzzzxzbn3YGdbSw0MIIdbbTFTIsV6U7tcbfQEocGxV0XF+7bXXrva3+ggAX4k2M4TDK5+EE0cXJHPi0OojiBvuVzOt5psoEvyB/xUG+Z/zzLGA8SMKNmnJOcJA2up+zhEmtkpj7es4CILiycuT5FXyMyOB+vfvb/Y+VKQ67/O5z9f+XZxvFFLAwNchyy67bHUwBv5K/cQ5wtOKYN/76KOPWpjLMGTdywwQ94zioj7pLtWWHl6KQTMjhYSEgeu4IkCo+G/8gX+YCZiM5I2auYawtooAEg6FSRB20gi7HkYYIJSgdJEwsNV+UaT+l3/kV8Iy++yzm63PgAEDsiWXXNLOC+5TWvIsx5KBVknjIGhVlF8BGx+6u2j10agg8r+uezjn8z00Ir/zXzh9aOkcNiP4Xd1c+E/XRXrcKvCBffzxx2cff/yxKX1FI12EOpBWf7aM4MLkhYEy3aFD0whD12maZO4FJaYEkeNGJLAEz/+vYJ/rjBbwBs3cK9cqKPwppA1ryBx55JHVOTI8HBcdD/LT8OSFwoS1VJA5hosKPadwIPDQSukbBK2Gymft48iztEzzccMks0xwqN4EoXuB+6nQ2DY6v8sfOMowKntNjCtSPzXaj/VC8Q/sE3Y+rO+6664O14qGuoDeDLYYmrPqOl2Q3fFjB6UHsNxGKElMVV4IcqMSV55ny3+y1b4yw/TTT59tsskm1f5WaJT/ioKwA3GBMJ588slmI6NmY8UP+0WDQEp5lX/wnxxyxXnuQYCx92Gqe+yVGOKepqXCpXcGQVA+lLeBrfaBPIxdIsrPuuuum5144ok2WpivdnWfkL9VdoAvP+qNL5vY6kOLOmaBBRawARmtTFrmkibULRg0l2m1BsmE6sP55pvPpkhJ/d8ZNjmh4EFGcTFcTS9PBbcRMOQRUuHnGP8gkExWSPOW93+rQPgUXqFMqHPM3XPhhReaBTvLiICPryJRegkJpD+fCimFCosBHnPMMdYMju0S9+o+tiqQgiAoH2m+T+Eadcjrr79uHzm0+tx2222mDKH86Fm/7ex9PY0GS6iMobxhFQDWGFQXF2Ws91Mj/VdP8sKB4vPSSy/Z2pxFg/+UNvoIBpRSRnR3BzNkFuwTwBtuuMFafHi5FA2u+Uq4njADMxAwBU778gOV/Y477mitBLqnVSDeie88hVNbQDkknVZdddXs4IMPNnsfntOzSjdt5cDv6zqQ8f3/9gRKN6Whd7qO4x5mRkV7pyULOSRs6b2NksMgCLqOL1Py4BplC5UpH20YyqL4oFQ8/fTT2a+//mr5W/c1Ev6XVmeVU6B9Rgvro1Nlpe7pLLzNhMpUtoRJxwxfP++88+ycXBGGzcQ7ca6t0oZVGlZeeWVbSqSrDFN7ECiaHdHwEAKOhRK63vA/tf5L5/HbaqutZq09+FGJ1C748H755Zc2vJJm2IsuuqiDJgzsS2BTpUZfN8BWrUw9Ce+T88e19vEDKx+vsMIKtpjpCSecUB2aiJPg16LdZCEImhHKHrpQ7rnnHjN0Pvfcc00ZIm8XkYdVvqSOskhKj1CZ2SqoTlC4dIzd6J133lmdGNfXHcD9co0gL33o3pKpi5ShzshVegggBky0JPACXoRLA1wECigwb8+ee+5p2zL4rQiUNjQRM+UAdj5YtD/xxBMdBFjx5uNPLXk4j64XCX5AscVQbYsttrAZqXfbbbcO6Sx/p/5tV1kIgmYE5YdlkK6++mozrSD/0prAtlGVaWcwLJqyCMpYVvYECgfx7RU8zmNDqi4u1Rfc18j0wR/8l/en/nvqqae2Hh/8pbKfMKRpJXLPMlyNiYnSZQ/0h0VDwMgoBGqttdbqYNDcbhAXpAuJzD7Nkc8//7zFC5M3ofwQV8B9SkM9A15wGynItZA/lcFowmSyM0Z4Mbnh5ptv3kEmvX9rCXoQBOWE/EsZRfeWWnoom9K8XRS+ewtUPmm/FVA9AjKhUPxTp/DBqeuUsdwPnPMmF43CywUjuakj5Ceu4ScfJk9uDcFDr776anXldVWEeS8oAvyiChEDM9bkYhKpdoKwKz2ID6UPWxL8888/tzkyUH6OO+44m29BiiJIEfLpynNlSWP8ofAAX1p0ZS600ELZIYcckl155ZU2nFTXhQQ/CILmgXxL+aPKSuVUGcojKWCgurAVScOlNCBNGOCETqB4UPkMXiGsJ3n/DQyvX3rppc0EAtK6MaXmZzEGsowKos81r0WgKJQhFCgSZKmllsrWX39963ttF1BalB5sVdn7xObL6bPPPjOlZ+ONN86uv/56mzODa6QpW1+4KHPrHUWBv0jXNIz4FQGnKRN7LoydGfqK4XOjMl4QBD2LL298eVRmfLnUqlAGkx44yuKXX365Gl7Sp5FxoHopTy74fxo9WDqE61JM8+6FXKWHBwgkrQMvvviindPLyoKv5Jk8ilmaWYSs3UAglcBsceCVAJonGSnBaDfi6d57762OlNCKyBKUskC4pIQpfDhdYyjpNNNMY/M1nXnmmdlOO+1Uva5tEATlR/mb/K58X6ayqDOaxZ9dIa/cpF7AUV9cfPHF2W+//WZh5pzub3Qc6P/4fzl6ARj56/1Sy181W3qAEVzM/ktAAYEsGrRPUITLT0xYuM0227Sd4iPlL8XHE/dgGEjr3X333WeGwfvtt19VoQXFZxmQIHs/1RJg5mhgSQsM2m+88cZsgw02aHgmDIJg5CDPUmaVMe+mZZHIO9esEJY07hVulFDqkGeeeaY6Ga7qXZ5plF7Af+Hwi/cr/mHAy4QTTjj0zBC9QP5SOESnvkW7Y3ZmmrX4I/2Z/lD7/ly9kRW9AqEt5+niotsDwzOhAOOIBN3fatSKf51XGqHADho0yLT29dZbz1pJPvjgAytwiBvu8UKlfa6z7/EyIXSuJ1H6Cfb5D7ZKU7o2WSDwoIMOsoUOkYMUnznxs/zNlvdJUQyCIPD4Mk7knWtWaoUPR7mIYxTXI4880qE81raR+HpcfmFJCkbZYePLsa+XFA6Rq/TwEEoE2w8//DC7+eabrbvLVxq8lHPCv7SeKJBy/hwB3myzzUzr0zUFGOcjot1hanEUWub3WWeddcwwWPY+xJ3iSvFI2iseha55OJd3fkTR+/RObSX4OL5EcMzq3KtXL1u9nbXJjj766Gzuuee2+4EwSYa5XxAmn5G4LwiCYlA+DMoF9T2zaatuwDWyrFR5L+fheM455zTbnuHVUTWVHjQ7HmbiuwcffNBWXyeAOP2pWl0g7+VFwMyMTHQlxcdXjkFHSF+s8lnziu6uf/zjHzbEnTl/QDKg+JPCkMI9ErRGxLXe7/9L+/iRLi9m7KYb79RTT8223Xbbqt+VSRUulB9d45gw1wpnEARBu4L95/nnn59999131fKeslJlb5FQrvfu3duMmYWvlzy5pTsv0M1UArQI3H777XaOQPqXqRKBvD9oNDRz0c21xBJLVMfue/8GvyNBxd6HLq/LLrvMWsqOP/54G56IZs89xKHSOU+4iVsvM/XGp6f8hr84h7ziUGbGG2+8bJ555sn23Xdfm9ywT58+dh8y7J9hq3CFwhMEQdARlZmMBmY6FJWd0MiyvzPGGmss++BVGa6yHqfyHWqW8P4mDGBRelB+PGUJrAd/Y8m911572czEWscLfJjaHeIiTTu6t5gZ9fTTT7dRXqeddprZ+yidcT7N0/jUPbpeT/TfbL0/JOSC9GfGbmx8mN/nnHPOyRZbbLGhV39X2r2fdS4IgiAYUiaqzmD+N/DKRRnAvIWy3i9Amlcn5So9CpygJYAvf+Z5AUWAKhh/bxnAb4zm2mGHHWyrc2XzZ1kgbuRoIUHJpcuLOXD+/ve/W7r7Jk0PzyADbKERcez9q2PBvld61F3FEHfsfWjtOemkk7L999/f/Iqxvvczsu2fD4IgCIaU7egCGDOD9ABfFhcJQ9ZRerQiPv7Nq49yS3fdSOGvCuCrr77K7r777uzdd9/tUCkQWL28LF/I+IXKm0kLmb9Fxk1lSJiyoDQG0k3HEmSOP/300+z+++83ex9mvX7sscfM3gdFgq6vVOjl6g1+8/73cN4b2COrnMOv2KDxFTDLLLNk22+/vRlv0w0Keh/3E74gCILgdyjbUXqeeuopW6oKylLn4zfqfEbx+pYeSOuKmp+0vISbcQosltvXXnvtsC8ZqgR5ZagolAj4GZselmGYa665bGRP6u9gCMQVKL0VT6Qnxmt0a15yySXW6sNoL4zaUSx8fPIO74oEf0sh87LJsVp+yBwsY8FszsA1H+4gCIJgCJSJOMpI7D8ZAKMylbLW1wVFgD9wk0wyidlyCp331CzdCYR3QGvPHXfckb3xxht2zHm9MO/lRYAfvJ+p3Pbee29TfIJ8FFcpCLNaPVjBnckqzz77bFvwk7lwGNnHPRJ6XF4G0LV0f0TpTNZ0zV/3x8q8fBWwpAWKsa7pPh0HQRAEQ6BsBz6EmcqmbFCvTDnllLZMEfjy3Jfp3fqkpbUHhYd5e9j3qPIrmrxKlfH72HCwBSJAFR/bIJ885UQLmbKeV79+/bIrrrjCmjp1rxcu8OmhfR33BF6gte/PeTinrxNtdZ/2vQuCIAiG1O8qt/kQHjBggB2Xoc4H+Y+uLZalAvkvrW+6XePzxX/rrbdWW3vUElCWisL7QYFFuVlyySWzPfbYw1Zi5bwiRInGc6oIg84h7t57773sgQcesBFRhx56aHV+HwmZHKRpovNBEARBc6ByHNMGenw4lisD+IPRuhg004ov0jqn20oPLTyvvfZadtVVV9lClnphWQKPH9KveED7W2WVVWx9rummm26YiIC8c0E+SnOGuGPvs8suu2SnnHKKKUNc8xq2PyZtcEEQBEHzoPqUcpzpTXCqZ31dWwT6f01RMv7449f01wjVPgQWTe+5554rZQXmA6rKli1D2fr27WszNrNCN+he7sEFXUfxxZIWTz75pM3vg1J5xhln2MgvjwRQLgiCIGgeqEOp71VXMocb0NtTdN2pOoXJiZmaZKKJJrLjPLqtsRA42face+651t1VJkgAEkfKjiJDW4ycWImbxTZZoMwTFfLI8fHHH9sq7ieccEK25ZZbmrEzChFxSlr4dAmCIAiaC5Xd1LOU7WVB/sKUhVYebHs4l1fXjHAzDfYbDz/8sBk0qVIrA1Jc5CfZHAHngPU5Nt1002zDDTfssFYHlCUczcz777+f3Xnnnbbg5z//+U+z/WF19yAIgqA5USsP8PGqBg/Vq0Xi620momWKmlqMkNJDIAk0M/di26OlCnBFQ8LgP7baV4SwxaEIMWEhis+aa66ZTTjhhNXrwYiTCv9bb71lo7tYyBR7H1oHGe4YBEEQNBe+fqeuZJUGtqpnywIKj19+KmWElB4CSiCpwLDrOeqoo6otKr5lBbhXrtFKEX6sNSydaxg0s8DmqquuWp3QiPO1ErCza0FHpVHxhP3X448/bnY+++yzj3V50Q3WGbwHOUozmX9/s0AY8HeeDKaEfLUOpGMtmW1WWQ7aG5VNlGWUz7Tmq3wrWp59uTnOOON0mJU5LVO7rfQoMwtGcN1zzz3Z008/bdf0B9yTKjnpnzcC+cn7jS0Jx7C2WWed1ZYkWGmllTr0A+reYMQhDhWfKDoYv2Pvc+CBB2a33HJL9uOPP1avA/IiZUfxzzXJke5rBlQY+HCkMsWxnGimMAa1yxdttS/8cXotCMqM5JUyCscKDdovC/hFSo/3r2eEWnrAv4iZeRm5I8OmVNkRtc43GiJDX940g80xxxzZjjvumK299trVFh+Fj3vTxA66B/FHvGEAzxIWV199dXbwwQdnRx55pC1e9/PPP+fKBmmkOFe8+/2yozB5GYI8mdI5HOHW9aDceHlU+vlz/hp4Zbgs5WEQdIVUprHr/fe//237ZYF8xfQ0PWrT4zOxFAe+2B988MHsrrvusmNlcG31TJnwfmIhynnmmccWJ6W7a6qpphp6ZQhl9H/Z8XHGvpeXn376yVoGGf2HofNpp51m9j9UAmmFz7530Azp4f0L+DmNkzQcPnzptaC8dCXdQsEJmhlkPJVtWuWx6/XlXFHIb/hFrlZeHOGWHlAmx2HJff7555txk64pMrRVpVc08rP2AcWHFp+tttrKhrSj+KT+D7qHZACnOFd8A2u5oSxj78NIr5tuuskyEfg4176ebZb0wJ9UdjjZuikuUjjHfc0StuB3JNepfHLs01PHui8ImhnkmMVHkemiy61aeS6PEdZCeLnPvAxJxmD1+OOPt2avvMxddMSA/IRf5IDzGD0zqovWHuaZYV/h5L7odug6Pl611b5Q/GPvw+r9RxxxhBnFYyD33XffVZ9Jn22GNJAf03gAf82HJS+sQXPi0z1VZv1+EDQDaZmkBgxMW8qAz1P4bayxxrLlKPLy2h8Gu4OG7I482Gyg+TEbIqua84c+w5chs6tSwS/a9xBh2PUwYzP2Ph999FGHCfbS+4N8upvWKM3M4swSJwxtp8WHFdDHHXdca4XjfXpnd99dBGlFh0KNPBEWwkZ4FaZUppohfEFtmPl9scUWy/r3758tuOCCNm+I0lhpLnoqrV9++WUbHNDM82ExWewyyyxjo2o9ZcgPp556aqkm4ysaKT0rrrii1fVF48tQWtWpR55//nkbPZwyQkqPhJCA82c+IzOM/ZNPPskWXnjhDlNBK5KKRv7UtlZhRME19dRTmwJEZUyY0sopyCeNS5F3LkWKM92k2PmwgjuzaKO1exnqyruKREqP8gfTo88000y24C0yxTnC9uuvv5Y+LEHX4OsS20CWumEOsOWXX96UdiCN5UR6PDKE0lNfQukZFtJlhRVWyOadd96hZ4rD1+Psv/3229lTTz1lLVGp/PRoSw8vp7BHu8K4ma+ddJl3SD0hewdIr9UTKlH9H1vvgGFvtPgwazOVExHINqgvyAqjAhBclJ/PP//cCvMJJpjAWn+ANOI+nN/HCaUj+PPIYb2VcP/f2qelh4J9lllmyWaccUYbWkk+oSuPlYtroef9O4P60h354F4WOezXr591ja+xxhqm4KLoKs1U1qSupwilp76E0jMsyPRyyy2XLbDAAkPPFIfKd+UrJkweOHCgNVak8tOjSo+gAP/www+tpYR5cGjaF2lhgodUWalgqDeKGL/v/5dKEf9wjqFv2PZMP/30ppwRiVRUeaTvCUYe5oFSlxeGz7T48PWMAqHWFI/SDdgqM6TUO514f+oEHwJTTjmltfpgME9YUOwY1Qb+XkifT68HI0ZevHY1brmP8opWu2WXXTbbeOONbVkbWno0R4hXdOpNKD31JZSeIfi0QL6XWmqpbKGFFrLjotNJ/8+W3oJHH33U9JDUX3VRevgTuinoFkKAWfVU51UJySNSdrTP+dSTjSb1I3YYtPYQFipdWnyogIPGgLKJUkCrD60/xD2KD90JsveBdJtCukpRqnVPI6FyRKZoFaArmFZEury0VIf8qXwhuQx6Bi8D3YlfpUvv3r2zbbbZJttkk02sK4s01DXd1yhC6akv7a705KUB52jlWWKJJWy/DOkE+ANbXNYGZR3I1F89rvTwB6pcUA4w2px//vmtktI1tvKIzqH4pNeKQoVf6k+6V2aYYQZbq4sRagzTj+6u+qC492lAXKP0vPTSS9Z8iXxR0aD8qDXR31+LrtxTb5AxHP5GnmabbTZrTUTGOE8LV1qBFe3nVqYzmfDXMEqmhW711VfPNtpoI5vegi5wKd+knT7ioNY7e5pQeupLKD3DpgHnZp99duviohwrMp38f7NPgwtKD5PhptRF6dGWL3SamVAQ+BIiYnyhwD04zmkfVyS+awt/suWcwKaEyokuL5axoNUBm4ygPnh50D7dQK+88opZ59PVyHmUarqNvCyB0k5pqW3R4E8PXVxUnswVRaGPnNG6hX2c928Z/N6qELe14pfz2O1gr4OyQ3cWgzVQgoRkz9Oo9Aqlp76E0jMkDdj6fVqpV1555Q4t7kWDPz777LPsoYcessEwKXXp3gJFDt1cb775phlu0kqiiKHyUcHvI8vvF4G6P/L8py0GilNMMYUlOMaoKD5olkF9IN5Ji7RSYfkKCnvZ+6Ao0OqDAgFKP6H3aL9I+H9kTPvyD92ndAdj7EwrFrKmgQHg7w16njR+2R9//PGzRRZZxLqxpOyQ77nmZUzPpucaQSg99SWUno55QlvqdVo9aQAoQzoB/qA+fuCBBxqr9Hho8aFvDaNmlIWUtDIrS+T5CtI7ncOIEUUOex/CSJdELSPnoHsonmuh69i/0H/7wgsvmNEaXV6kC5WSmlzz3jW899ebVPny/mTLlAk0HZNnCA+tpdj78BHhK9Vg5OhMDrjGhw3KzhZbbJGtssoqNn1C+lVLeqgFMX1fZ+/vSULpqS9hyDwsyDxdvWuuuWbhLT2+TMQfTHh7//33mzlESt2VHjxA6wm2PXyNM7pB85RwnohDYVDLCueLjDwhP6SVE/gIpnmb7i66JTQEmQgPRo7hyQDXfTpg70OLz7PPPmtNm8gahSgtP5Irz/De32gUHu8vChIq2TnnnNO6vjB8RvHBliwYeYhrxXsK3derrrqqteyg9FARp1+zel7oXTqnlrxGEEpPfQmlZ1j4qOSjjC7fsnRvyQ8NVXpqBRwF591337X5VzSsU0qPCgptyxJ5+E3+qeUvzskYFcWHIciEg8InMknjQb5efPFFWxKFNKCiwt6HqQfUdUn6+P28dK03/Kf+1+9DWlnSXUclPPfcc5sSRDce4awlX+n7gnwUT8iAIP9imMnw8+233z5bdNFFh1mxuZYyozjXe3XcCELpqS/RvTVsGnCOARgoPUUbMqflOEoP3VsNMWTuDFp0qJDQChnbj70C4FmcPF5k5On/5YfUP/566ggPGZbRaihBhJeWH7omUrjfb4OeBaUAQ2fsyeh2xFbGd3mlCrenkWnCf+n//L4qYu8XwkCXF0sbIF+AUXfapar3+Hf49/j9VicNu0jPYT9FmYSys91229n8IyjLoHf4d6Xn8lwjCaWnvrS70kO5mZaV7POhv9pqq5WmpUcwnx6GzCg9KgdFQ5UewANPP/20GUDRX66vJs6rZaWZIQzYY2CIStMf+xjckghCYWz2sJYd7F8Y2v7EE09YlxddQxilavoEnP9qV6ZWJikyfbwf5C85WklRfihwUIRQfDB2JrxCzwNhxPn3tBN54fXpTlnEOlkoOyuttJIplEV/uXaXUHrqS7T0/F4OCfb5wMfWrWz5hfL+wQcftI/elIYrPRQ2fGVjVY3SQ3OyIqsVCmVVNmi+k0wyiS3GxszUnGemauwxaoWx2cNeVjB2fv31103zRwHF2Jm0QXkAn5m9DBaZFvx3rfzAMYUMXV0oPoz2kvKDLZNHz0ou03e1OrXCS3xgi0eLDutkYbfDMd2hUhKbiVB66ku7Kz0qPzzkEZaaYtFR0qjodFJ5yZaBU/fdd5+Z1KQU0tKDx5iDhDl8UHwQdiIQpaDZvrDyUBhx2AMwcyu2AerywmluHy9MesafC0YMxaX2iVOUH1oZ7733XjsPtPpojSTuwanC0/NFwccB+ArYhwu/Sr744qKLBgin5vfxYeA9OtcuMqbwK9w4lgBhCPpmm22W7bjjjraPAqw4IZ60r+fLTig99SUMmYeFdGEJliWXXLKat8oAeZfZ+ynn0TFSGq70AJ4iguh6YLixZmyWwlOWyOsJVGFhfEqXF2Fl1l3sfLA7oeUh6Hm8DKWVGEoBXV7M7EwaMKkh3V4anSN7nyLlEP8qn3jyzuFXwoBRoeaQoauLEW3Y++gZha2dUP4DRo2yIjSzKKPs0MpDXHWW1rXOl41QeupLKD3DQr5hYkI+6MuQRvgBR3nHeo0YMnuzElGI0gPyIN1czHNDYa1zuGZGlYwvcDmHUofCgz0GChDD3amUaPUKeh7JUZ6iQOWvfl8mskL5oVLEBgs6qwgbAX6uhfzFVg7/4qjE6fJCxujyIlzIGJWh3qln2gHCSTxoPhHsdphMjTKH/NgZzRRPofTUl1B6hs0PlDeM3OJDAsqSVyjbmbcNpYepclJ/N1zp0Z/LIxTE9AviVNF4DzYrnYWDIcgUuggLkzXS6sO98SXRcyj+VdEjW16R0DUyCPP73HPPPdYCxDmUHyrKWunXCOR/OcBvOiY8OufhmBYr2ZMxeSb2ZSg+sifTfe0A9k4rrLCCLQyKsTJdgX7UKPGgeNU5UPzouOyE0lNfwpD597JIeUNKD+WMrhUNfsN85JlnnjEbzrw5zRqu9OjrigijwqFZ/phjjrFCWkpPs6Mw+LBIKHSOsNLSQ6W0+OKLW/jpjlCXRIp/V9A1iGNfedWqyDgmo9DlhaPiQE41imd479A5bUX6P92F5/07fP7wW38P6Bh7HyoQVkKm+45WH+zmGMLf6mDkzUfFZpttlm277bbZfPPNZ13MpKePL/ZVJuk8W7/fDITSU1+ipWdI+UZaqJyjPFpnnXWsZRnKklco47DnwZBZDQqeQlp6fMQxUSFNzig/oiyRNyIofD4M6TkJD0ofBS6zBtMdgb0PipBsfVSA6dm0Uk3R+4Mh+PgaXtzpOsPa6fKiEqHFhFY5Wn3YB6VdCud1jXRVmvUEepd3tc7L6Tp+kr0P89DQ/YVc0arFaC//DIWYR+c9/v5GwP/IX/4/030do9yRl/r06ZPtsssuZmjJOVq78tBzekfqmoVQeupLtPT8ngb6mCRPYR/HlA9QhnTCbyg9N9xwg3VvQZqXG670ABEGeIRmZwRdx37bqvjwkUgcs6VwRvGh0AYqJvokfYUqgWMb1A/sfG6++WZrHkUxRVmgpUDxD0oT8Nv0XBF4PwIFFPZkzOpMCwiKHC0+KD7drSgbGS7Ft+LVxzlony4rhpzT3I6ys+6662aTTTaZKa1qrVNc8AyKqfZbgVB66ku09PyO8iQfgjRYMBoSypBO+AGlB3MFWu11TnkfClF6BJG3//772zw2FEIct0oh1BUIbwqCRGGNYTeFOEbOJBhDkH3BTSVGl0xQXxgF8Oijj5oCyrBmlAVa40DppzTRFhkuWo59Rvf+RG7oSkX5wb6FfIfyoykUuFfPQa1wNCp83i+1wC4Om0CWjWCtLL48UXZ8eeLTRrDfqHDUm1B66ksoPUMgLchLylv/+Mc/7INQ14rClxPkgbvvvjt76qmncv1UiNKjgpUvz0MPPdSa39WvDmUQ8npB2BQ+4oB9tn6fLRUr6y2xDhCGtUw6p1W2QUqi0HvTSisYMYhLID6xsULxQQHC5gp5RQFCgdB9xLnSQ2lRJJIjnN8Httj7YORLqw+2Syg+KNGpPZmeKQr//6lfmJeIbjsmFtxpp53sQ4F04T45UH4gfXTOX28FQumpL6H0DEkH5SX2yU8HH3ywfagXnZ/wl/yGHc9dd91lxszez6Kw7i2UHIaQYgglhYfzRUdevVECsJXtB6i53RfM7NOlgnU83V5USDxHl1cK9yr+9B/BiKN0UFyyz0RXfEG89957piAwvF32Pv4+pV+R1PKP3yeM2JMhX8xZg6zR4kOrFnZloqjw8L8+HNpnTi8GAPTt2zfbe++9bRp8DJcJD/h7gWO59HyrEEpPfQmlpyOkCR/m++23X7X+Ljqd+H8cvSN33HGHzcOW56ffmwoahDxBRFFY0Qxdq4BuVaTs1GrdIj50zJZKlYrpnHPOyU444QRryqfQ5z7FnZSmdoi/RqD49LIpGBnAiKAjjjjCviiw/+F+pYdPl6JIlTZI/aZ9WqymmWYas4U566yzrOWEdeNoNfHKNGgrBaOeyJ/APgomXXJ8KB1//PHZvvvua/ZvGoIuf7JVegRBUB+8AbPKhSIhv+OwU9Skv3llQCEtPYqk3XffPZt88smHibAyRGC9URgVF6qkdE5b7QNKEvZPtJDxNfThhx9ad5ef1TkK+p6DuFTlrnglPbT/4osvZo8//rgZzqEg0O2lJS3StCsC/ImTn3GExyssOscW+cLeh+HdKBecw5ZM9j6gVi1co8B/2LnRCoCyyTB0Jhvkg8nHs/zEMc+k50HnRHrcrERLT32Jlp4h6aC0oKzYfPPNq0tQQJHpJL/hWGSUj1Fa5PMoROkBugaOO+64amuHb6koMvIaBWGkMK4VVn8tjRMqV1p6WBGagp9KiX7MZi7wyobim3TwLXJCigJxzyRYLKnCFwZdL3QTqZ9b+IrX4+/paSRDXsnx+7omv2mLfFHxsCYV3UYff/yxKdea80J5FVL/93R46H7DoH+LLbbIdtttt2zBBRe0c/K7/g8/sZ86jz/ny5sRRfHFO2qlL/jrI/N/nRFKT30JpWeIooMj79A6vMMOO9jHhyhDOpHP3n77bZujh0aBPOrfRp0DhRXrdeirWLBfhoirJ4RPhbWvgEDhz7sGukbCsmVWZ5r4L7zwwmy99dazpS3y3gl570vRvUFHJQX7nbRS8xU/1xgiScvlIYccYpUPShBGz1zzz6b7nbmRhTRXupO2XgY4ltN9KtR0DkNhurquuOKKbMsttzRFWwog9wD3aR/8f9Si1j2clwNam7DbOfPMM81QmaGxFLbEjfwuh794zvsFONY7dc3fP7LkpVl394Og7JBnKAf9iGFGbZVFhpWfcMObhmPkc/0IQIGz4YYbmgd95RF0DQRP8UYcMoIFe59zzz3XRrBQOahA5zr7bMFXCn4/GDkUv1dffbVV1N7eRyPuiG8f55J/PVs2JDu0tBxwwAHZaaedZpP98SWOESPXUoXQF4ogJQm4n/D7PO+vcx6nJVqwXzvppJNsRmn+T3HnZbtofHoqfeUAP8qfqX99PARBmUllGPlmqgi2qVwXgcpRBmGwiDmtcionUhqu9OAR3FRTTWXHyvhlKsjKjv9K5csXiEea/m+77TZrbcDwmeZi7vNxTPz6AlkFtJzeG3QP4lLxCyigtI6gKDCKQEPCQemhdFR6ePLONRLJguSBbtSll146u/LKK7Njjz3WuiGw/6nlT87rmhQbHz/AdX9MVxoG1ChYtJyxgjPKjp7nXhVu/rmiSP2T7guOQWntj4OgGZCsIruSY5Qe0HGRyA+MOsWmhy558iDn0nzW8FyHRyjE+JrDQ5rrJC0oguFDnKkAJU6JP0a4MEHbTTfdlO2zzz7W56pKQ/GrZ4SP/0iDEYM4TOPuyy+/zI488kgbVn3VVVdl7777rnV5cS8Q535frgx4v3g/Ye+z6qqrZmeffbZ1rdIFhY2NkKxJplD0cDr2kPeJM56h9QibHaaPx1CZd+b9P0bjPKN4KxIKU/zOVgWrZIDWPb42KYS5xnmcD1MaH0FQViTXQN5jjj2NvC6TLFPWMPjCT7nh/Q6FfGpgxMxoDA+RlmpkwbD4wt5XLGyVuOzzFc4MtZdeeqmtuYRW7gtovacswtoqpOmDY4g7aXHQQQfZ/BE0v9IMS9yn6SbKkC5qmQKFBdlBjpAvlpDB3gd7Moa8S4mBtKAB/z5AMaArllZJ7NKw2+E9vD+VaYGBeJnKCaWh4gZ/f/bZZ5bm5D1su7iufKdnFJ9B0CxIftli65eXx4uCPAWUq3wYCZ33NLz0oGBkXRwyvDykQiHPg0FHFEcInApatZZpKwfMY0JXwemnn26Lu9KFwDXew5bnyyS8zYjiE1IZ5pg4pjK8/PLLs7XXXjs78MADbV0YWgLIoJJ9pUdZULiQD4VLsqIt9mQYGl9yySVmT5Z+zNSC+2aaaSZ79pFHHrFn+XLUfxEPeXHBNbmi8X4gfenCfO6556x1j9YwFDnuUTx6B5HvgmZC8ko+ZaUA5BpXBigr8AsTE7JyQWcUovQsvvjiHTI/UPiXJQLLjoQvLURB+8QlX8zcS5xjH8EwPiZ1m3POOW1odRrfEf9dR5Uyzsc/KB457ytunacyXH/99W0iQIZXMtqAdOI6z7AtS1rgf+RH4ZC/FHYcckZrIrNVI190VfkZkkFxxKK6XD/66KNtbZzll1/eClHg3Tyj/1D8+fhIt0WC/1B26LJ8//33LV379+9vdlw+HKAw4BQvPn6CoOxInmltlXlK2SAf0tLaGQ3PdRSQDK0mwijoVRhq0rNg+BBvxCNQ6IIKVB+HqjS4ly32GFS2119/fbbzzjubPQZrMFGpcU8ZhbiskAZy4ONOaUCcexn38EWCwS6zIN94443W5cUwS93L1j83vGNPZ9e6Q1opExbJGE5ypbCTh2nJYp0ylBq6rpiziPuwNeOYBYaZ16hfv34mj/oP3oFTfLGf/r/+p6fCl6L31nq3v46je450u/32282+ibTEbkv3aqt9YF/hkOwEQTNAPqauYCZm1oNEllUmSKaLQvkMO0psejyp3xqu9FD4aXIxIjEtEILOId6oXLSPEPpE9cqLr5CAfRyzYLM67gUXXJD16dOnOvTQF8K1Khz/vuB38mRX8alr/h5V7gxrx/B8zz33tG5IMq3vkwbuS53IuyY3MkhWBPuSLWTDy4fuxSGPzO+z0UYbWcsis7YyihA5Y2QhdjvqYoVURvkPf07vFeyn9/QkpIvSRnGY7pM+dE0+9thjpuzQXX/NNdfYdaH7U3/6fR+HQVB2+MCmVZZWXebo4Zi8WAbIb9jzsDC3JlEVyoui7rnOZ2wq6yWWWMIMmUVnngvqA8JKurCIKTYVjMRhXhS6vKRQqcL2hTbbSKOeIa0MBwwYkK222mpm78PqwF9//bVVrsS30kLxL6cKGtJj/+4i4P9ZMoV5dpiska48RhJyHpcqdkWgePSQLr7MAh+3dEW+/vrr2YknnmhrgDEqj+uKb4UvCFoJ8oTyAXaibPnAKRPY8rz66qvWit4ZdVd6iBwVBFSodKnQrK3Cxm+1H9QXtHMUH9KE7i0mnKOV4aijjrKKSV0SEOlTH8gXik/lDwoWFFDmW6Ib6LXXXrOvFt2jZ3S/nGBfylSZ0opCEvA/4LcyfCH6OKoVX5zH0fWIvcB5551nrVaHH364FbJcUxqoYgCfLkHQ7Kgep6eGObrKpvCQ98ijtPbouFYerLvSoz+mMCDiMGQUskcBrpelqazVIa59txjpgCK61VZb2eRz2PtgbMoyIdyrgjzoeUgDKTNSCgDl5+9//7u1ADGrM5k5VWjY98dlSivJFhAun7fl76KRHxRvin9/jN3OF198YV1zDNHfY489bPIzGN7zQdBKkIcZZclHcdnkG/8wPQTmAeRD6jTO5ZUzPa708CcUztonohRBVLTMuMp5PKZ72XoX1BfFMemCIw2URqyvhL3PxRdfnK2++upmn0Ea4iJtehbiU/Eu2fdxzFBuZnVmYb/777/fWhaUb/LwaVTrnkahcKX5vGzgP/wqPwrO0cr27LPPZoceeqgpoMy9w3meEelzwDnSIghaCXpqZM+DjKv7Xa5I+P+BAwda67gva/L81eNKD39CoaA/JmK0j2MdH3nEFwydeTKoD8Q1jrgnjdhHQ6bLCxsfmvKxXZhjjjnsnNIoGHlS2VcaKI51jvxz880325QDzFj8yiuvVBcyJZ9JqcApPeWKBj/4MHnK4D/FGygu8RfN5NjtsLI2Sid2b7T2gA+L4llpoDTV+SBoJZBv5noT5O2yQH6j+5l8qnwMeeVP3XytwkBwjOU3fYKQfglxXR4N6ouEQHY9QoU3kBakFUOLado/5phjzN4H5adMwt6sqPkV2BL3nFOeUX6Qg4suushmP2YemEGDBlXTS9f9vUWDv1I58bLGvj8uCu8H4pPmcbp4WQqDKQUwjPTh8OHyzxLvpB/lGs7npSBoduiloVsLe0NAvskHZSlvMAFgRCWk+TP1Y91qL6/UEEEoPIsssog1keEZFdDecb7eBYX+y+/jv7QS8i7vnJwn71yZSY3ROJbAqPAmPRhijD0Do3CYi0RLWgQjTl7FCXl5wMvVW2+9le21117ZhhtuaPP70OXlZRf0Dj2X5xpFGh7yWk//f17Y0nPeCR3jJ0Zl0YXI9PoMs2fiRMUr14U/9u8SPINT/AdBK4B9J9NqqNGC8kty3gjIS3LCH6PwkIc5Jn/KX/5+UTelhwgRKviYnMwPV/cQiY2IQB9RKoA/+eQT6zaQEZRgX/eAnsXpPl0T6XFZUZrIifRYoOSwMj5T7LOcwkorrZSNOeaY1cpb5D0Ltd7brnQmP12RIex9tthiC7P3YTJALbDn85HepfexlUw3GqU/clSvvJ6GU8dC57yjK+vpp5+2+XZo3WHepM5I31mLrt4XBGWg1kes8imNFszk7+9jv4jyxOdfHfuWHoHf8/Jh3ZQe/ZkqRSKNSjNFhWGjUIGL//TfTFuNFrv77rtnzz//fHVmXF1n3x/jeI/O++sKbyuDBT9rLbGg4gILLNBhJBjx4CE+yBy6HvQMxCdfNswTQ2XNDMgsaaHWCa4rztl6GW0VFCaRVwD78Oo6zxBPdBGeccYZ1rLDPEIUnKKV4ikIhocaKTRPm1B9xuheFgZWflM+U33aKJR32fK/+IMRlldffXX2+OOPD73r97KBe1L/9XgNnfcn/DmeYzn6MuAjBIg0DEapxBmxRAVCgegjF/QcjvBIUMBfawew4GcyvRtuuMFsHzSrs4dj4kmuXeKmUSg+kdXDDjvM7H1Y/4lZSYlvUJp4Ga71VddsKH8K3z3LFsd1OV3/+eefTW779u1rQ9AxWvb3gbZB0A4o32jSUJUR5LFRRx01W3HFFa3MF/5DNi336wn+VD4mj7JlYAd1OP7wfuF6nt96XOnxBQfoj3HqDxR5Hqo3aURQOTCDIyskw//f3nuAS1Xc///n9/xj79gVESwo9oa91yh2Y7D3jsbeNYImigZBjYol0Yg1do0Re8WGioqIIvaAoqJiT9Tvs/99DbzXzx3OXi737u45u/t5Pc88Z86cObtTPjPzOVPHjx+f9O3bNwzfoASxbNU2ICSy4hP3YNh4NzqK6/zzzx820uOwSRRG26Da9FA6Ke2cjkHayqjxHzlyZNhriRO+b7/99pJMC2SX/NF79Y56GFU+iRN2e6944g9lh004d9hhh7DBICfdg00L/PG7VoFynEbHlhlbpkB7uNlOAJUt7DLVJP4PGw72zaKXVmECnkkxkpuoeqm2gSg3n6eW2EQgY5kLwVcfW/9bWO/PnAkOUHzwwQdLk6TAJqIVDmtvdIirjS9bEdx8881hMig7dgJCV07wnMphKwNgjsqee+4ZjkngfCjbIykaJT9s3LDbyg64x4wZMyZMACddkFH7DGPhd/jibaby7DgWWz8w5MXQFh9MtrxlWYdQNvX/dFpwyGhaWeY+/nipyacMgeOPF1100XCfFrhaof9WYpChtpIEnqnHgg3JmDNxyimnhMnOJLbeF7yr32uWipK4YoC4kwbM8GeFHkt+OYCR+T7ecFSfWHaBRpsDPzn4k8nnH330UanCwr99p56xva2yywCLFNjdmq0XuDL0F/uJ06JR0sZx2oOVf5apH3bYYaX2MIb6nXqlFmXGfoyozWYkhg879ugB3FQPqO2Jw1az/lu6i1F6VNFkhf1/7IwFkpjY1YiTSMpIDBseXX311WE56yWXXBIakDgeSmD9RqOjtAE1pkC6cNTIjjvuGHp+Tj755LDkXdj3nI4hxZM0lzwqfeXG1uya78NkP2QZ90aQUyt3oLhj6JllfymUnaOOOip57bXXQhlVOmHH4NcS3ztOM8M8HqYtAOWNdlyojqkVqu8Edobw6cXlYwYIj8owz9PKc1VqPpswgj9nBVfWqKLDYOc062+//bZ0L+KGgQxnZReN+G677RZWL02aNKmU6fKblsiNBulkBZ6423ue48bk5n79+oXhQeZQ6LlTGSTHMkL35AOGc7sYvmWVEkNezL/SwXz1jMqc5EpXhvcYliauLOfn65D0kJwqrbDLzXGaGZUlQZlgLg9TFdiUluexH1HOvZLQ/lKX2XoO3n333bDVjOo8jOo9TBoVDy2JpT+LK5M0ZajW2DBhZ3M37XFiUeIJJagakCOOOCIMHTA/QMcCyGgGPHAff5GmYd/PO3G+ci8Daki4ouhy3ho9ZU888USYZDu92N92fkXyEqdPWnrhD9ll073f/e53yX777Rfknp7OPMuc4giUKykwaTChkR5GKmpkja0nbBmOK0J+h/s8x99xakFcBrhnaIsPfHVWpNXBqmvSnlUSwsN/qG3hnnaVKScsPioH/uK4VVzp4Q9UsVgNkPketsLJCmWOEoNeHsYFpwcaCrrP2cjskEMOCauX6AXSSdgYjT0qzvxXW5SfekBCLmOx7mpQsFOA2N+H/VA406tnz54l/4zBWlkB+ztO60iWScNyY+/yw15ZbMnAuVIa+8Y9z8Tx071kg4mMF198cRjCe+CBB0KZbpSy5ji1QOULKGN0UHTt2jVZc801W9TFKnPWXgtUr9myzygNnQ4M4U8PFVd6bKVrKx4UAvssK6xCRsLZOT3TC4rN+++/Hw4kZKUXDTp7pgBx5Tf5HwkTVzIsjVoKULWRYFq4J/4LL7xwWEFz4403hsa3R48eIf3JlzgN9Dtpv+dMlifJFmlHGpGWSi/clKbshs7p+XfccUeYmN+pU6dQsek9m77xfZYoDraMKsx8rHA0CsNYfHhwThblWWniOE7bUR1MWWMuDxOY+VjNA5R31QWqB/jYYaTGjqy0hYrXDiSYUOB0JL3us0SJpoq9o138vMfw1qhRo8L8FeZNUBHb3iP957Roq796QfFR2nKlYNHYduvWLQwR0uvDfB89h9bSgGd5GCbNA7YnDZTegmeYjTbaKBkyZEiYj7bsssuG7mr5RUHgKr+YvED8VJ8QTsKm4S16VtlvBwVu+PDhYQ8e+eU9x3GmH5V/9tRjAnO8Q3NW2HpN8OFM2Vcd1lYqrvSoMlVFCvR6pB1BkTUKo8LZXvgdKlr2CnjqqadCRcyqkeeeey4oRDyTAf1nJf47jyhdiS9X7hFMDLKgXjB2+lxjjTXCUMtdd90Vdv1U4xanC/4B9+nV7BsZpa/S3KbbBhtskPz73/8Oq7Y4HVkn5Muv0lRXK6NyyxLCEIeRozaQE8yTTz4ZurhjeSCOjuNMHypv88wzT3L00UeHK9g6JSsIl8LBlbaWZeoMZaudaSsVrx34cxkNZ3HlcEpVXFmijO1IWNSAC8UXN742yRB2fuUkbM70YoIl7so4axoRNZxx42PTXoYvCY4n2WqrrcIw4TXXXBMaa4EfIXlyJiM5RI5swWcjsauuuir07jCpl12z6d1R+uFP6WrTN48ofKyUZN4OEyv5sGCJajnlt1HLleNUC3rPVW7mnHPOsNghrr+zxNZv1AlMI+GAUbU100NVY6XKFbPIIovkqjIiLCgirPNPW73VGsoAKxTcK378Lj08TLDiLCRWylx77bVhaR1Yv42I8lxxxA6KNyb2w0T3zp07h/kZl112WXL22Wcn3bt3Lz3nquEL/V6zY9OGNCG9OEIFmaOnkS0D7FCgTXO9K/QMmeaaF1gwQI8OQ1nIBPN2WJWVFl5dlR66dxyndfQBwVwe9qNj7qXqiTyUo7g8Dx06NOzP055yXnGlxyoCVjtjKCNPmqMSShOZp7eyl0DYOHEvzZPf4p65BiNGjAiTSOn5YZdcpUmj0lo6Kt0EdvknLRlLZnJznz59Qs8PK3JiGj392grpIHnr1atXmB/1hz/8IeyrwR4bkk2lF1eMlXWblri1lne1hrOx+OLcZ599wgnK9PaocibeMkCcbFwUV8dxpo3KPUdF0Zuat151lXOudFQwpy8+b6utVFwLKReAvFSoKDgknMKi8OI2vYmHf2VGjP09FCu64+mWR4vmq5X5PnF64J9KXT0autf/8Dv1gvLbxtG6yT12w9A7wXgyS9wvvPDCMN9Hu4ICDZxtuKeH9rxTS9LipXSJwY1Jykzoo3eMYz/4UqPCkn/9XpqxpLl1FOQWWVY54IoMp5U1uWHouj7yyCODssN+O9y3Jvu8E5fD+PcdxykP5YUVncxHXWqppaa45qe+VD3GlR4eFJ64zLeVmik9BDYP2EZFjYPCjL2amcyyfc4C4jwvHQjJxEybZoQPowy1Grcdd60HlJ42XdtiFwx5MSzKfB+UH+ap0LBDWsMJ8e8pv2XPe/qlxYt7jGSDuLAa8tJLLw3Homy33XZhaDBe1aZ4Y+y9Jc2tEijMsd2GUQoRV8LAhwHbPuy0005hPhJlgzLjOE5loJxRh6SB0sNK2rys2LKoPWRom8UZb731Vqg7VB9OD1XTRGxACFhe1vsTLgyJyFweusxJSKHKuZrwf5zfxfEMfM1efvnlybhx46Y8nRwGhTEOjzK/0ZH8IDusOlpiiSXCUNfAgQPD5HBWA/IsnrOiK4a0w6A4ciXtyhX4rFHhjeNg7YR/mWWWSU477bSQDijODGUxJGiJZSYrCDPxsjJL2BQv5QW9OHfffXdQdjgnjK5rHQ3jOE5lUHlTeVSdw5XzEY899thQz5ZbIJAlhJH6gLMDX3nlldJZW8RleuuJqrQAqtQEgbIVX9ao4iUh0WrV4yNTbfQ/7OXDkRZ//vOfw7AXu8kicAqD/Nm0k+A2OuSRhFlXVhWwxJ3llJyYzTEgykuhNMNdBYWeBOx6lgfiMIs4PjbcKAX0eDHfabXVVgvpYXsCAVmx72cJcSE8hFGVUxw2KrCTTjopGObw0BOa5s9xnI6hdkRtCOVMV6YTMO1CH5GaYgF5UIJUJ7z++uuhjrDD5tNLxVtQAkZgbICws4w7LyhsLOOlB4orbqqYawlfuRMmTEiGDRsW5jEw5DVy5MhS40V41PBBMzQGxF3xjyGvFlpooTCX5cwzzwy9ZOxBI2w+cpUb8Hu2MGeJlTPshE3x5V6GOGy88cZByaMXhOX8CyywQFDW5Qf0viq0PGDDE8sw83TYn4nNPDm8l4MDVbkq3xzHqSyqU2THMIXg1FNPDfUK95RVW4/EH1ZZQe/v/fffH4a9VZe0h4rXkKqELQQwnm+QFWr0CCeVLAZ7RxKxPVih4v+Zu/Dee++FE7D32GOPcEq0luTZRqAZGgTirPSRPNk84sp8H86G6d27d2g8zz333GTppZcuPbdXIN2yyOfWiGUgDh/nkw0YMCAMZTHWzpJ0uypLfpVGeYKw2bgojKy8YN4Oyj3HkLAEnQ8ixT3Od8dxKgNlKy6X7J+3zTbbhF4eKTe2HrL2LCEMzOOhp4c6RO1ge8L2a61bQRQQe82LtmhBCGg8CVstK1n+K63HgXRivg8NAfN9Dj744LAMWeOXzYTygzSRQdClvGDIP4Z4VlxxxeSggw4KGxty1ILmj9k85f28QVwULhuvRRddNCw9ZyiL1RScUk+c0iotsPc2zllDWCTnyDXbNbAKjx4rhnXp4dRHB3C1aeI4TmUoV0ewHw91J/Wo6hbrN09lkZWcnHVJ+DsSroorPVaB0JWKj8PB8oBtOAgrk0AZMqkV+l/CEWOFkUaCc0XOO++80nwfNjzMkxBWE+WR4hvfg9JLuzqzsoshQjbnY6+J+H382zTOG+xlxaaC7Dx83HHHhROOWYIumVX4bRxsHPMYN8LOPlXMW0ORe+aZZ5Lx48eXDXOtP0AcpxlQmaJ8CaYJcFD2SiutVCqPuvLxoeHmPEwJoM6g7kCPUPtJWNtTV1Rc6UkLBAlIl5QSNC8QHpvZtQgf6UN6YKYFQ16cL4KGe/zxx4chAVa2CH4rTSD1+8oLrtbknTgv4jyyxrozhMr49NZbb52cddZZYRiFrlsg3vhRYUnD/l4lsL9T7jeVH8xRYiiL08I5V4rdlFHGbZjisGOXsfeVwsoLV8mU3AC7Kkc9Qybxy14a5AEVK9sNMFyrdyWjMWlujuNUBpUvnXvIilh99Nt6hLpGChL2WkDY1POrOkR1Cqs7GdrSPl+Y9tZ3FY9NWiAItD0FOS8QLjI8nhRabab1P1bI8EuvD+OZzPfhuH+GB1jyLiTIEAtD3tK8vcQCrnvrBtyzxJ35PcyD4egCesv4quGZTasY0ho/lZQDhVG/id1eWSLKEvT+/fuHuVwsSWfejt6TgTQ3ET+Ln3cEpZl+k7ggV1x5hrxi1z09knfeeWdIf4boXnvttTBEq4qM3ylXkSqdHMepLJQtlWH29aItYSjd1hXYZSijstcC/acNJ3CoMEPj6iFWXdNeqtLTYwOsSNAt1ZGAVgobNsJD74Dt8ssDSsM4rDQYzIVgUzqGvG6++eZwNlEsCPryBp6p0RLy18gQb7ZUZ74PPQ3M92F4RfJo89ymM8T37UV5gtFvKu3Z9ZQhLCZhswSdry4NZUGlwtBeFE6BDCkuKC8KJ1fCihv7XtErybwdVtax6zjnz4H9PeyxTDqOU11UflF0WDVJ7zIf/FnXNYJwqF4hnArXqFGjwogHvTy4ybSXqig9GEEkGKZ56aWXprhki8KmhFMiQ0cSspIoDW06EjYaCgwKJEda0IvBHJaHHnooKD/yFzfoeYlXLVGcUWqZ77PpppsmRx11VDj4lTPQbKOrhlvGpntHUBjsb2O0cgkljFPQmUxIntl8r1QYKgFhseEnvawbCs+bb74ZeiBR5FB8tPKQZ2nwzHGc2sLIxuqrrx7mPLI4Ik/lUB9WhEl1DCNEN9xwQ+nkAvyovrZ10PRQFaVHUJFT6eH21Vdf5SqBBUMJGtO0Yc8TymBQRpP5NCz33ntvWLHERFFWfdleHr1jFbtmgbjbNEP56dKlSzjA8pRTTgnDLigcoMKGscpQR7Bprt9db731wtJ6Dp/laA3CQ7gUTmhPIa4mClscLskgK7A4+4uucnrT2GMqTku9Z9+3cXYcpzZ069YtOeKII0Jvj+q9vKA6RXYMc1jZwJQ9eoTqF1vHTA9Vaw0VASUqdtsg54X5558/DIPkETUSpKHsoDSlYUUYmDNBg0PDc/XVV4eN3/QOV4yEQ+82AzbNsKOEM9+HeTP77bdfmOvzxz/+sUWa4M++1xGUB0xKRjFF4WF5KEvQCQfY/1J5seUmK2y4sMdpRM/ifffdF3bFRuF+9tlnwxbxgF99jVni33Qcp3Ywj4ehfg5y5mML1C7kBeoOdZQwN5CNS7UZIXUKhme2PrL2tlBxpUeVGQHBrnsanDwksA0TMPSRl3PBhE1DITeFH2Mzn4miLOljBRD7+/D1Te+a0hz/eRPwaqOhFaWV7BQctl2nm/fwww8PacW8GrBp2hH0G5ytdtFFF4VhSHaOnnfeeUOFY/MDu64Kn9yyQumgMAHpyaT6p59+OiytZ94Oh+eOHTs2PLekpaN+T3bHcWoD+/BsscUWYTNXRjdE1vVMjBQb4GOeaTGs/FZ9Uol6o2o9PQq4KjoqeM07yRKbcISLoS1pvXnBzskBpR8o/IqD0D0TvljlRa8CG9sx94d05zm/kzchrwaKp2RQxHHnnq3X2f2a+TX0kjHfpxKwwynKDlsNsGyepfRWztIUUIUvzts8wCRC5u385S9/CedkcdKxhrIsaXFIs8d54ThO9WDhBL3MrGIVKoPl5t3VEupD6gYZ5vKwApRRC2Gfd4SKKz22oSFwmrPA0BY9D1zLNeDWXm30X2S8NXkgbhDLpUnsrjgBS9yZ78P8kUsuuSTscaBuw1jA9I6wz2P0LO+Ql1YWbd5iJw7EBTsyyqntKDzM97ngggtanOcl8CsTw3/hzkGgDJvRC4LS2aNHj7Drd/wO93rHGj2rFMpHGQvxV4Wn9LAQDp6zVPS6664LB70OHjw4bJpZLoz2P+L/a+2Z4ziVw5bPZZddNjnhhBNC3USdQ9njuTVZQ5hs2/LGG2+E8yjRGSpNxZUeVZw2Akrozz//PNxnSZzJhI0zjawGnDVx4zO92PixxJ2G6sQTTwzzfsaNG1fKF4vNL/s+btbUG8pvxSmOGyAD9K6hnKCk8EVETxmKC93CwHvyH6cDz+jJQSlA4TnkkEOSVVZZJbyroazYWIXHYv10BJtfcXjJ67SvO/0n/vk44Uws5u0wBMiwKXtlsOGg/DiOkw/K1RfMJ2R5+rbbbhvqN1snqJ3paF1TCagPMUCvMh9Z8cKcSlFxpSeuDG3vAkoPjQuJnFZp4l7tDLCZDTRKyy+/fJjklRamesSmIenPUfzMvaDhYtn20KFDwwRoq+gIWxB4puey1yKPqo3CbxUPySWG/XLWX3/9MM8HhZHJf3ZoCuQXw/JPhn2OPfbYZMMNNwzzhVSAs4S8xBDGGOUz4bT5jDv77TBvB+WNbRFQfJhMKPIQN8dxfoUybssl5Zn5qjvttFNpeTrgT9MnVH+l1Q+1xoaF1VosjNAedJWm6rWXKlTMpEmTpoqEIio/1Sb+D/4b4eC02UbBKi7YFWcaLoa8aMhY6cXE5x9++CE8Vx5wFdhj0wgoPWyDT9xk5+uCioGVfUz8Y+UVS9y32267FsqP5u0wx4V5QSwDZbOvPJGWb9yr4rOwWoLJgwzv0ct12223hSWj9n2lmeM4+cF+xAAfbr169QofLnZ5usoy93G9kAeoezk7kbmpqo8rTVWUHqtxyk7gqVQViWpFaFqQ0TazCQNL1jl4tNEoJ9TMiGc3Z5Zr02gz/4cuReUH78X5ZN0aGeKJzCrtsC+55JJhyItzsdiAj+MiONvr1FNPDSvlWIKuYSz8K82yRmXPzttRXiqOVH5UNAxb3XTTTWFOE+dl8aWlNLDxsXbHcfKDFBuGsXr27BnqLIbrgbJsyzN2rlKWskZ1Ch/izOXRii1QPVYpqqL0KLBKWMFMbBpXUAYI668W2ARlGXEj9fSAGl9hhV5CxMquyy+/PPRk/POf/ww7PasQ8K7elz3Os3pF8VCcMIor9rRCxr46HBVx6KGHBmWHYcJVV101uOM//p2sISyg8HCN7RiGOdnRm1VmDH9iZ78dxUXvQJ7i5zhOOig69OQzcVllWPUBYI/rhzzw5Zdfhh3zOVdS4YZKh7HiSo+tGBVw3DiK4pFHHgm9PULP5b+W2HAyB4Mxz7TGrp5R2suue5vefOGz/JhjEZjhf//994dhyBj7jrU3GsSNnhFMnFbcMzmZOWDIDENEPLdpDNzLLWuQaSlloK9BhjXpzWHiNZsLMpRFjx/YOFvShsQcx8kelW82XmVPMPbk4SR13OPyzL0M5KG3hzDQy/P8889PtbVNufqovVS9lVdm0Ii8/fbbYXMzRcImvKh0BNNQxQ9c6Q5kIjMNWaMgQVb665oGz1gieMstt4QGkPOTmPhMw6jnrb1fj9g4yR7fW0hPWzlIKbIgS2nv5gWUH3payWuGNRmiu/LKK8PBoDZuEJdD4lSLsuk4Tvugh4fFFMwv1MgF5VYf86qX7FX2rGFVMWdscaxNtam40hNXjNzLULHGjQV26ycLCBdLjDmXJI08Ccf0ojSNr5Dm9sILL4Tlguecc04yaNCg0EDSS2fTAP96R8qA3OyzeoQ40qOBUZxt3MHe22sWPYWktdLfontdmbdDxXL77beHScqc7s4SdJaltwX9j9M2rIxYSMc4rxyno9B2MYdn1113DZOYrZxZWZTdKkJ6lgWEkY4Q5hMyl0crtmyYKh2+mtbSVJrS5IisbSRqmfj6L/0fVyarstdKGlZ46g2FXVewdkjzgwDSMDLZ+dZbbw3jrCg/QDrgF6M0SfuNRoD4YZBVKUIQK0Vg7bWgXFrH7oyVP/jgg2EIk1VorOBj/tb00mh5W0lsvssepxf3+khwnPYS1zMoPGyrgcLDohzkzJpy6Hfsb1Ubyb8N34gRI5K77ror+eKLL4IfGx7srcWhPdRU6aGXh52BLer5oVGpVQboP/S/JCrdgRoDTQuDEr4W4csa4ko82Vfp7rvvDkuYUX7Y34f5PhJaUBqKZkifPGErBOzWMDzJnhfsNcRmi0OGDEk9OsKpLDYPYgVH9ZzjtBdbfrWylN3kWZoOyJcM5KW8p4WDOupvf/tbmPqij2qVHdkrTc17etgrhoiQIbZCwG4b02oRVzj6TzTkcgePWuGpdvjyyKhRo8KQF5NeaTyZA0KXJOmiNInT1ckG8oK8effdd0OXcb9+/cIKPfKMrmNb5pzKUE72cadHUGnOPUqP/UhwnLaQJmMoPGyZwaHG7LwMVqnmmrc2S2WAK4YhduaPMsyucFc7vDVXephXgEZHxLKoACQENmEJAwoPx1EsuOCCU1x/pdqZkEdsRS3DfJ9LL700THbmcE42smP3XiGhdaqPZNLmj8oX2w+g7DCU9a9//cuPjqgxKgdsVMnHlPDy4bQXW3aRo6WXXjpsn7Hnnnu2mJZBHYBfWz/Uuo1Nw4YJsDNl4u9//3tpiwwL99UqLzVNDYayGL/TkmgpPSRANSOZBv+JgNj/XHPNNcPhbM2OhFNpY9OIXgTmh7CnC5OdGYvlmAvyNot8bFZIaxnkmIP5nnzyyTAPi+HIG2+8MRkzZswU3041UT5I7tnJm63/+QLv1KlTcOe541QC2qgjjjgiDGmlzUONP1jzgORfZYWencsuuyzMHdWHsy0jNtyVjkPNe3qoiKmgiQgNZa0pJwi4MSEsTwePZo0EVEZg5+Rtjv7nzCkaWhpc8lVfGk5tYEyceXJs3c7QI+Pj7LcjOU+Tdac6sIcTZ68dc8wxYTsADnqcccYZpzxtWak7zvRAOaaDgGXpKDzsCq+2qlxPTt7kzdZFL774YjgVQKeoE1b73LYjlY5HJv1e6m5XxFQ51yqT7H9a2KeHcVLt1yM/aX6bDaWBFUQMQ1wMdTHfhyXubHj3/fffBz9O9aDscD4NFQfKDornE088UepFtXKLiUlzc9oHCyBWWmmlML+C7QDYrZuvcXbrtums3lAZx2kryNHKK68c9lCjF5HeRECO4nYUJYirdcsahYErw1rsvIzCY8uBtVcz3Gyx2neytTaQIUy62mijjUoaqk2QakXUwn+kCQRj8Cyb48uZpfW1CEs9MK10YJft999/P2jvH374YRgCY44UX746oJP0llDb37NusdA3MmlxbYsbFRzLzR944IHQu6P9LTirBuSfq0wajZ6+tYJNTVkqvN9++yW77757OIfNHjqrBgjIC/tVjnul8oHFBpyGT9mrVxZeeOFks802S5ZaaqkpLpPJg6zyUcHWD+3Bhr89ceFcyLXXXjs5+uijk1122SXUqxbkysqSvbbn/9qD6hn+jzpK6P8VRjZHZXSAjzXtvJwWzvi+0hDampliZApFjbXwyy+/FIqJUyh+/YSrTNaMGDGi0KtXr9RwY2J3N1ObLl26FPbee+/CbbfdVvj4449Lec01zm8MbjyTP0yjY+MvYjeupI3SZ+LEiYUnnniicOaZZxaWX3751LR3U3mjsq/yz3W++eYL9cSgQYMKxS/XUj4pz2w+1oJiI1KYa665pgp7PZlVV121MHTo0BAfpV8t07A1ll566dQwt8UUFd2S/GBP81POLLLIIqEuffjhhws//vhjC9nKUxrZcNiyYMOG/ZFHHikUPxRS41ork8nwFvN6rNZcTI8WJksWX3zx8KUx66yzTnFxphe6L9lSnGEXhr4Y8prWV1Je8r9WFCvAcLXxVtztM6AnTdsGnH322ckll1wSdsp2KofSXHBvjfKHoW/m7TCvgrw4/PDDw/4o9n37nuMUG/sgO8gD9rayxBJLJEWFJznxxBOTTTbZpDQ/TPUC6LezRvIex5N7DPe0C/SYaR5PVtRc6VHCMB+BhKC7V4mihMoShmUYn9e+B0KZ57QN0or5Plrifv311yejR49OPXAWmUAO1PXfDOmsOCoN4jhzT3lg/tsdd9yR9O/fPxk4cOB0HR3hTBtV1oD8yZ5G165dk/333z9MUuaMI46usUNZQL6pjovz1Glu4vbNyp61w4orrhgODuW0dA44ts9EnuRL8k4cY9nHzjzPK664ItRf8ZzPtLhVk5orPcp4NimUnQ28plXh1AoqMcbly53D5bQNKbPs6swSd/aMYSk1S9yZ9/PLL7+E/Fa+27zPgxxUG1UMxFUVhI03c8s4/R5Fhx4zDoNlxRzkpaw0Akp7iO26pydnxx13DJNITzrppGTjjTcu7b9DPigP5d/+juOkIbmxBjj8ep111gm9OyjYKNp6xtWWfexqO7PGyj8QLu4J6//93/8ljzzySFhZ+u23307x8Wt9l0V54R9raoqKRWH77bcvxnUyReWnhcmaTz/9tHDggQe2GMfHWLub8oZ0KhbEUnopHTHdu3cvFL9gCvfcc0+Y7/Pzzz+HPGcMuNmQvGuuE+abb74pPPXUU4VzzjmnUFS+U+cA2LR1UxlDesZpvfDCCxe22mqrwnnnnVd4++23Cz/99FNJVmWUhxjlqdxric/pqS4dmdOTZlQfWrclllgizN8pfiQW/ve//001zzGWN5m8oPDpqrC/+uqrheKHQmHGGWcsxd3GOwOT6lhVQ6RJgO+//z41sbKGcFxyySWF4hdeKYO4emPTfhOn24orrlg4++yzC88880zhyy+/bFG4mwnF+YcffiiMHj26cNVVVxU22mijwiyzzNIi3bjK2HR0Uxlj03eeeeYpFL+2C2eddVZY2PDdd9+FOsEa8oyrlVsZ+aklrvRUl0opPbYM055gZp111sIaa6xRGDhwYOHDDz8syRcfhBjJk9wx1g2TNTavZMeMHz++sP/++xdmm222FmUsThN7X21T8yXrgu4vlnousMACoZvLmqwhDCy1ZsI1B6FBUTjDtZin4eq0DeVpnG5sPc6cH5a6s4yRZZhMHifd8yADtYA0KVYMYXsEhgA5EPSaa64Jk5ZJkzSaJW2ygImi7NO1ww47hInKO++8c9KlS5epZDLOA92Tn/ZZfF9NfMl6denIknUL7YiVF4ZOt9hiiyBvDKHa9tC2OXLTu4C7kN8sseEBdlq++OKLw7AWm6iKrMOdidKjzFtrrbXC/Jk4M7NEGUJFx74zHJtB2HCPM9XpGBSKsWPHBuWHoyxQAOaee+6g/GhMGCQburfusZ9aYWXB/rd1T8PGgUqUnayZqMyE78cffzyMeeehAqsXSPuO5L3eR7lh7zDOMmIuBRvBsbmg/Ng8kV3vygjdk8e1yktXeqpLpZQeyQWGto/VWUxWZh8eNrlUXO1V9ljuBO72vtIovMD/WLvATv2t55iHH344zIGz+/HoXUHYea+WZNbTQwJQqWy77balTMNkjTKFhpeJoyNHjgwNUVqGOZWBjfVQfDBULKQzZxapErBpz1WFS/fyo3u5VROFx4YtDgPouX3G6gWUHRopNuq6++67S8s47e85rUNayaSlmZ61Bjvbrr766mFb/z59+oRJyjovyxpIs+serBumVgoPuNJTXdqj9JD/Vi4VD1YGo+SwOgslm3s+8qzsWNLcALdqKzyCOpe4SKaxp4VT7mzwe+qpp5ZWaZcjrdzWAv61pqaYKGEsk3k9//nPf1pMZuWaJfy/DJMXi5Vh6jikm44bpWmcvmy8N2DAgDCfoqhwlsatJSOaR2HdZfS8Fuj/4zAoHLE7c9jeeuutwrXXXltYdtllp0qH2O6mdRPLTWxvLS3nnHPOwiqrrFI44YQTCs8//3zIG+WX8q6e8Dk91aW1OT3l5DB2KyrYhfXXX79Q/NBpMTG+HiCc//3vf8NV5UTuMsAzNuvcbbfdQvtOvGnrlQ55MLX7FDEU0yaYYgKFwxE1lIHJC8XMCifYcoYOy1PzFLZGgPRVmuqKG7DxHnv79OvXLwz9MASmL1j86GvDfuVIfjB6Xk34H/5b/18s9OGqMOCOG3bknHk7fImz385pp50W5ovpXShnd8oT50E5u+Ce3uXu3buH+YRsLnjyyScna6yxRnBHbpR/oKvjtIbkRkgu5UaP9XLLLRd6E88///ywoSUbD9LuQb3Imdpp1Wu2ztOVLUroFWNrEuYl4qbneSGz4S1AWIoadNiXANTFlwcIB3v2kGE0uky4daqD8py0xo5hE0MU4uHDhycTJ04Mbsz34Rwa0DsxqoDKPa8UFHj+Iy7UuFmli/Hsl156Kbn99tvDPkUMa2mM26J37G8504b0Up4r7crlC6dSr7feeuFg0AMPPDBZddVVgzzxTEZ+hbXnGR/eqi7TM7xFeCV7tG8MmR566KHJXnvtFeLGXjz4qTc5Ux3FlfBSB9q6jjmagwcPDvXcTz/91KI85g1CVlNTTKhwLSo5hc0337zwxRdftOgyyxLCYE1Rcy0Uv8xDd3gcDzftN8WCUDLIA0Z2rtYf127duhVOP/30cFhkgjEAAE9JSURBVPZUsfIp28Uqt2pjl5Lqf+3yZZY5sz/F1VdfXVhrrbUKxYouNe6Kn65KC/l10zFDuhaV5cJqq61W6Nu3b+GNN94Ie6Aon2weQppbPeDDW9VlepasI3OLLbZYYYMNNihceeWVYRm6ZE5yJRmrF5QXaVs0YKgPqevYgy8tTXJmUh2ralTBY6jgn3322ZIwYLJEYSA8ZDCGglj8QvQGqUrGykPsbp9h79GjR+Hyyy8vDB8+PGzkp/yyeYa9FmguGuj/qdzeeeedwg033FDYeuutC3PMMUeLOFmTFm/kq1x6uJnaxDJiDXuDrLTSSoU+ffoUHnvssTA/zOaVvcYGd0y94EpPdZmW0iMZXHzxxcO8HeYkMn+P/beQI+olK0+SrzzFsTVsfsgo/MxN4mP0N7/5zVTpgslhfZbqWBOjxDjjjDNKX84kYtbYTMV88MEHhcMOOyx8recwAxvKkL4ysYKptGfjvg033LAwZMiQqb6iMFQw1UYyIoP8TpgwIeymevjhhxc6derUIsyxURztvX3upv2Gyrdr166F3XffvXDfffcVvv7661LdgpGMSEG2bpIhTD3hSk91mZbSg7Kz7rrrFi666KLC2LFjQ50EVp5snGL3vGPDrnJDnYf95ZdfDnmXVp/F9VxOTKpjVY16TEgMruxG2dqQRSwwtcD+N7PWr7vuusIyyyyTGh83lTPlCol1l9xwTMBRRx1VeOihhwqfffZZ+OKgENr8E7q3Jq5w4ucy9pmwMvnVV1+Fnqf+/fsHGSn3xWMN4Wd4Ny2ubtpvWCGDQjx48ODCuHHjSr1x1pB3aXWK3POCDRvY8Mbu119/fWkIvl5lSkpPuXhmBWFIU3r4+MIdZefCCy8Myg51UAzvS7asyUPcLAqn4F5hlN2Gnbp2zJgxhd69e7dIF9u+U8fZZzkxqY41MSSM7MOGDSst4YuNKq5aCIr9Xxn+97333gvncdnwu8nGxIWJr6w//elPYQhj0qRJJTnhKri3X/L2Hrv86D2e2XvZrdFQFg3sZpttVjo6wk1ljCpP7OUactwx9MKicJ5yyilhqwOGFcijekZyZu1WfgWyOmjQoNJQqtLE1q95NQor9ljpyQu0P0sttVQpnFwZZqexv+mmm8ISbQ1jgcKfpzi0BcIbfyTEcbJtMcvu6dW2+VknJtWxqsYWRtmZpCotWQkMKuBKaLlXC/0PRo0iYL/sssvCl6QNuy0IsrvJxqD8oICMHDky7LsiuZEhD8t9+Qvu8SMF3L4j+aPnj6Gs+++/v7DnnnuGs3OQBSsPbjpubFqm9YpxjzsHNW633XaloSzyjHzCNAqSPxnFjSsN7l577RXkUGlTT7KocDLZnOFh5Z1M1iBTyBhDpoxKMGcHWdPoBPWD8gSjdiNPcWgNwqfwcsUoDnE89Ozdd98tHHrooVPlZZ2YVMeqmbgg2i92u4rLJjJXK0jVplyG03253377tQi/DPGSAuem+qZcWtPbsummm4ZT3Jnvoy8w8o8reSs7VytXMvG9dWc13yOPPFI488wzw5d1LM9Sfqybm44ZpXF8ZXiThpKhHdUdoLziWs9I7qzdGrkj55pDZtOnXozCu/rqq4eylRbPLKH3eNdddw1THOjV4YMIRUcfQwKZk7vkrx7kkPApLlypE+WuONj4sKEwc1zJtzqt61Idq24k6LaReOqpp6aalIrdZkC10f9gFAaF48cffyxcfPHFhfnmm69FHGS3925qZ2y6S5bII75E6C6fOHFiSa5svupe+R4rRDK4s1LszTffLFxwwQUtGhg3tTPK5wUWWKCwwgorhLxg3k5aXsqtnpHsKW6KVxy3Bx54oCG21GBrh6effnpKrH7Nx6whHFJmlO5clTf2HmPzp17kkDASVsJvwV2G5yg8DCFrt+W0fMy7qfnmhMVGKWxapKsMsPNx8Su9tPkRxhLfVwPCUszgYOf/uFdYOISUs3qKmn84W6QoBCV/oHg4tUHpjrzEsLkhmwI+9thjpd12dSUf0/IMu/Iff+Qv564VC3o4BZ1DQa+88spwdhZILpzaQP6xk+1BBx2UnHnmmclvf/vbZJ555pnytGV+xNd6RfWP7LZuwvz000/J1VdfnTz//PNJscEKz4BnyLCV77zTrVu3cMI9mxQKwp9WvmsNYcBYeVLeYKzd+onv84zSmvBaucGO+eSTT8Lmg+edd16oG5UvXK3/vENuZBra/89sbQ3FL7ewc6oSn4LMNRa4aqJMTvs/Kpk777wz+dOf/pSMHj16iutkYmFxskd5wiGSRx11VNKjR4+wS+p8882XzD777FMpQMjhDz/8EHZfxXDK/v3335888cQTpUZFeYxMSm5BlYB1czoO6Uqd0LNnz+SYY44JV7b2h7iMch8rBvUO8maN6kLs7FrOoc0ffvhh3csduzFfccUVpR2ZbXyzRB+3CodkLJYvwgrKG0zsJ48o3DatFX49Q+FhV2oOSLbxq0fIjUxCHguCEhCFgkJMYwRSelCOaiU8CLTCgxAogyUQH3/8cRAAvvxpIKFeBaBeUcED8iVu6NIaAMkPJ+hvvfXWyZprrhl6F+lB4Lf+97//hQqOk/Xp2eGEYP2H/i/+ffvfyKgqSKcy8NVPb87RRx8dzssiv5QHrZU5Kxv1ThxP4k69iOF8ussuuyz0PiKHVh7rDcrkNddcExRcsGUvawiL0leoHlD48INd7qD7PEO409JacaAj4vLLLw/HS/BcfkWaW94htLkx++67b4tlx7GpBfw3BvS/csNerGzChLuNNtoohLmY6T6fJyNDuhcroqnc7D1GfmL/1s6kepuXPIt/25rYr52U76Zjho32WCZc/PIvfPrpp6X5EyqDYMukiP3kHcIZhz92A+uOYQUhR2rYHb+RQSvf9SaPrMBjRZSNb16I5U52JjXrXjKaNwjTtAxxkOGeuGDef//9sLLa5pPkzLrVk8ndZ9B1110XTqAuJny4LyZ8uBbzLlxrQTFTSxp9MXODid1WXXXVZPPNNw8HFtYybE5LSHvJikjLD/mJ/Vt7scCH53qfZ/FvW2K/vO+0Dr1hwpYtwbBV586dk0MOOSSc1LznnnuGoUjeI43xD6S73pUbpLnVA1aWuEqWYnfJIz07Z5xxRjjkUfDM+qkHeVR+AWG3+aZ45AErU9bOodS6R0Zt+POCZEJyZO1cMbSzuNvwf/TRR2FEgzk8Fvt+PZI7pQeGDh0ahhpIWA1ziawTmwzH0OXeq1evMJkSQalnIXCcaqOGjYbYNnK23CywwALJ9ttvnwwZMiQM23Tv3j0MRap82XJGGax3FBc1NKpbuLfKIW6kG1fSDkXnb3/7WzhVXR+F9YpkgPgSN4zc9NzpGEpX5AqDHWTnivImmfv555/D0P6FF16YXHTRRQ1R1iy5U3pI+BtuuCFMnAIJPRmThwIgASIsK6ywQujtmWOOOaY8dRwnRpWsoCxb5p577mTxxRdPBg4cGFYirbfeeslMM80UKmJb7lVBx/Z6xjYoxFMNj633FFf8MocQZQelkMapESCu5DVyAMRT8W+0BjdL4rRUGgN2ntPZ8N577yVnn312mCvWiOmfO6WHRH7nnXeSJ598MqyUorCrmzZPlRxhoYLaaqutkgMOOCBMhnUcpyVqrAUNuHp7+FhYZJFFktNOOy0ZPnx40rt379KKOmEr5kZEdZrqE8WX+7hRYhuG2267Ldljjz1KCygahcUWWyzZYIMNwvAmsiGj9HEqQyxTGNIYg8LDalVWSNLbClLCG4ncKT0ScpYush8OKOHzMkatCokrX6g77bRTss4660x56jiOhXIixYdyQy/OvPPOm/zhD39IHnroobAyi3uVc9UBqqDtvYzu6x3VaYpL/GWNO0NYEydODF/e7FEkGqVBIn/5aGTKAHGyaaC8dzoOSqTkjHTFjiG9v/vuu+TRRx9NDj744LByVch/I5HLnh5gYzmM5vYABSIPhYAwWmFgUjPL7LV3iOM4k6GitTCEwTy4e++9N+nbt2+y3HLLhXKtBlzlijIWKztg3RoBq7goTlYRYsLyc889l/Tp0yf0iOGm53n5COwoxAlFmF6+ON+dyqK0tTL21VdfhSHT4447bqq959QeNxK5U3os7H6LBmoVnawLAmGholJlzj2FlUnNrDSJJ147jpOEVY705px//vlhhSZ7JFGObHnGrvvWyhFlTqbeUZwVH+oV0oXJygzzs3pmk002CfuX8bwRGyHiRX6j+Nh6FeN0HFvGQPdcJ0yYkNx8881hyBR5s0o4xB8tjUCuY4T2+eqrr4a5PWAzK87IWmH/myuVEIZdRBEcKnPHcX5tzOjdOeecc0JZ3n///Utf9Co/Av9xJavGD3euKm/1QlxfWAPEy94zlPXZZ5+F4f1lllkm9O7Y+MaNUqNALzlH/EAjNrS1xsoU0LOj3h2VIyYsDxgwIOxUD8gWfngu8GfvG4HcSxfL1/nqIQPLJb4yOM7oakJYMBRQfbGuvvrqyV577RW+WCzy4zj1huQ8jdhd5QGQd5QblJwXXnghzN9h0rLKClf8ohTpd/Rf5e6B9zDWLa+oLrJ1Eo1IPCzFPe7ffPNNmE+x4YYbJscff/yUp7/C78TvNgpawUe+Ek+lWT3kc56waYdMya7yhvxwniDH6jCcxZJ0pbFkS++I+L4RIEa5McUMKO32WMyocH3mmWfCzpfFTCyddBubYoaVdpOsJvqv+D8xhI1TaM8666zCDDPMkLqbr+Lmxk09GJVByW0sv9wXFZfSPTI/22yzFTbddNNCsQEvnU4dl9tmgLqBeou4Cxt/rvj57rvvCkXFsHDwwQeH9MSk1R2Naohv7969p5IRpZMzbeJ0wyBbNk25/+yzzwpXXXVVoWvXrlPtQN8shu6Hmp6yPj0U8zJopyxtXXvttUvLGfUMihk2lakF8f9wjzY955xzhvByMvfYsWOnPHWc+kTlzEIZpDdTG+MVK9RwpdeGs7E4p4fdgpmkTLnAvy23Kju1KqtZQrzLxZP04xy/QYMGJfvuu29YLgzNkC4WzldjIcj6668f0gsZkZw0W1p0BNKMsqjyCLRJgNunn36aXHvttWFJOiuj08p2s1DSgPJsnn322VJvjwzYe+teS/hP2+NTrMwKQ4cOLfTo0WOqrzbubbzcuKkXkybLfC3S08MZUEcffXSh2IiHMhCXVcqErvZZI0P84nqBe64TJ04sDB48uEUvmU3X2K2RzTrrrFN47LHHSumDoYeCe2faSL7SDGn4v//9r/DSSy8Vdthhh5Detgxjmk3ecj2nhy9HcfHFFydffPFF2IW0mJnBrZjfwc5V97WA/0n7L7kVhSh8tRx55JHBjjtXvmIcp55Abi0qe4Bcs5MuX+nDhg0LPRackF2saEtfmIA/yT5XynWxYQv3jQxpp/JPfIk78xPvvvvuMGn38MMPD2kVp7Hqi2ZhxhlnDHN6rIwgP1xJC6d1SCOlE1fbJrK/E6ej9+zZM7nnnnuCm8owMkb5bcY0Jsa5M0WBn0oDpfeE04WhmHHBZEH832n3fK1MmDCh0Ldv36Yan3fTeIbeCHp0sEuWuXbv3r3w/PPPl+aspJUDfb1z1TPurb9GhngSX+otvrb32WefFmmbZpqtvuB09fHjx4e0sjLivT1tw6YbV9IMeRs9enShqFi36KHFHrer8X0TmFTHTI0ygcrWVrIbbrhhmCisTLaVpyZsVRv9r/1vrva/5YcwffTRR4Xjjz++RfzcuKknYytNzHzzzVe4+uqrC1999VVJ9q1RGbDDWCovMnrW6BBvGvR+/fqVJo62RalhIUSaeyOa3XffPaSTFOPYOK1j04k0/Pzzzwt33HFHaC/VlnKV3U26Yy4NlcX9999f+P7770MmM1apgqJrteE/4gqce5k09xdffLGwySabpMbJjZu8GsqbKkvszNs56KCDCmPGjJmqgbLyzzOZ2N2+g2lkvv7668KNN95YWHLJJae5mrMtilCjGpSeWC5knLZBWvGR/fbbbxf69OlTmHHGGVso2SrHMqS73OP8aAKT6phbs8suu5QmS8amFr099v/i+3IG5eyee+4pLLrootMUsiYVQjdVMlRsaQ1qOXcZPVMl2a1btzCU9eOPPwblpa2yn2bqFSlwArtV5KToffvtt4X77rsvLNtH2fEynW5Il/XXXz8sUonTUunJtdEhnpIrxZt7xV3pgZF7bCZNmlQYMGBAYaaZZioNRSuN0ybLN7lJdcytQYO97rrrCt98800LAbD2rInDgZ29OKgIV1lllVIlSMNi7dLMbXzduOmImZY82edWCZL7EkssEeSWoSxVxphmIK0cK/62vpEdhfDll18uHHDAAYWZZ57ZG5tWDPKF2WabbULvhNJR2HRtdBRXK1MyQLmTAigj/8zd4WNkjz32CAqPbVO42jLtpmRSHXNt1lprrcLrr78+lSAwTwBByBIJpMIkgcWNL8B//OMfqXGSoLqQuqmEQZ7iLz7ZpWDr3hqeYRZZZJHCwIEDwxw6eiol080yFwdUhoEyrJ5kGdIEd9KHSaPM29FQVlraNqNB7iR7XJEtuc0+++yFQw45JAwDxulq69BGx8bbtmn2me4BO7L4zjvvFM4999zCMsss00LBVvpi5OamhUl1zLWhwh40aFDp6zMWkCzh/1VBqvByL8MkM8JuhdKF0001TWvyFT9baKGFCieccELh1VdfDT0XtvFRo8+1WVD5telg79lvZ8iQIWHSKL07tlG36drsxqaJlO6lllqqcPnll5fS1aYvpllQvGNZ42oNcKXdu+uuuwpbbLFFkLl4hMDlb5om1THXRl+ijAXzlaWCgkBgzxIrwPbLkHuFka3AGX+NK4I4nm7cVMMgc5I3uxx95ZVXDke+8OWtRgfZxS45RqabSelR2cXoHsNwNRvqMcdwzjnnLH1pk7bletGa3diGGDuK4tNPP11KUxmlN/ZmgTJmyxkmdmMBz7Bhwwp77713Ya655moxWdmmc2ym9bwJTapj7g2V9v77718YN25cSSjyUlBUaG3hldFz9vDp379/atzcuKmmiSvBZZddNvRWfPrppy0UdeBKxRvLM27NgtKDuKPs0PDst99+hXnmmafUu2PT1pWeXw1po4Y5TicUxk8++aSUvkpjXZtFxlSuFHebFpgffvihMHz48NDederUKczdsekYl2f7zKa5m5JJdcy10VfVLLPMUrj11ltLS9hlssYKLIZ5ECrACiPuFHgUHwmtC6ibWhlkDmWHoxCYG0DFikxKRrFL2ZHMWtmV30aHNEAR5Pruu+8WTjnllMKCCy5YmHXWWVsoN2p8VJbdTG1s2nTu3Llw/vnnTzWEak2zKD2Kr8qV7mnX2O7kmGOOCXPFkDkrY1xpM6RYxmksk+bW5CbVsW4Mq6GYf0ABQVDygARYwptWqHEjzEwUPe+881Lj5sZNR40qRl1xW3jhhQtHHnlkONmbVZAqO1Yu1dBzL6z8YhodxfOLL74o3HbbbYVtt902DGUpXW06W+ONzNSGNLHpsuaaa4Yd9tPqRqW9lb1GJk4Dpmy8+eaboV1YY401woTv1j6IlbaxSfPrJphUx1wbKwD0+px99tlhngwCo4oauxWoWiLhtXZrCBPhVONCj89f//rXUuNk44qxq0FcmN1gprdiwy9fgz179izce++9YSjL7pjcmhHxfd6JwxvXBXqOOyYGhfDxxx8v7LvvvoX5558/DCsoHb0cts+QbtRzO++8c4vd9WVEfF9vSNZai4f1IxkcO3Zs4fTTTy8st9xyYd6OXZXlpmIm1THXRhWOroxzsu023YGxIEm5kBsmS/h/hUdh5Z5G6NJLL51Ko48rV69s3cggC1YedI+hYbayRI8o2yW89957YeuErMtBLbBlTOWMe4x6sqybDMrgyJEjQ28YwzB8aSsdZWy6u2ndSCZ1zzEmZ5xxRmlaQr1j5UZ2jJU7yZncQHZ6dkaMGBF2O1988cULc889d4vhqrhNcNNhk+qYe2MLEULBJlejRo1qIVjWIHSyZ4nCoHDKjXuWIrJzMw2U4uhflW46Ynr06FH4y1/+EhpxJuFK/poBylRafUBdgNKjZ1zVKH344YeF0047LTQ+DGVR9rzhab9R+lm3ddddt/Dwww+HPMDUO5IzyZNkyspb7Icrw6Ycq7TrrrsWunTpkqpcI3de/1fW/L8plrqiKAil4/GhKBTJrLPOmhxzzDHJYYcdliyyyCJTnkyG58Las6JYTsKVsMgOxYKQFLX+5JlnnknOOuus5Pnnn0+KSk/pWezfaW4ky8gEdt1TNoqNdrLDDjsk2223XbLaaqslc801V0mWmgWVFdJD6ROXH6XZ559/njz22GPJTTfdFMpf8QNkqnTVu/qd+LecqaGuBtXXpN3OO++cDBo0KOncuXPJrZ6xcpAma7iRDrhRv3/66afJk08+mdxyyy3J66+/HmTtxx9/LL0LvBunnVMZSOG6LbkSLF3nn3/+ZPDgwcmWW26ZzDbbbCUBAmvPEsJpCwMNkeIA2H/44Yek+GWeXHjhhcmdd94Z3CFW9pzmxsqMmGmmmZKNN944OeKII5I11lgjmWeeeYKb5AYZwr8q4UbGlhVbxmy8aWxeeOGF5Nprr02eeOKJpPj1HdyUpmkNT1q6O22DtDvwwANDPf2b3/xmimv9gyzIEEcrY/Dzzz8nY8aMSYYOHZrcf//9ydtvv518+eWXQQkqJ08qq7G70zFI7bpK0Wk1/F27dk1uvPHGZO21124hTNglPKrIskBCjLEVqgRc4fzll1+Sd999N7nyyiuTiy++OPhznNZYaaWVQoOy1VZbJV26dAnKjpUzyZew9kaE+OqquNs4U76uuOKK5K677ko+++yz5Pvvvw/ueg9UHtNo7ZkzGZve2Nddd93Qi73ZZpuV3BoB6nDFhbqbj1nK3XvvvZe88soryT//+c/wIYui8/XXXyc//fRT8GvR+y5T1YVUrssURkBUkUlIZD/xxBOTo48+ujTMJX/C2muNFWgbdlA45UbhmTBhQujtOfbYY0Mhak3hc5oLyXG3bt2S3/3ud8n222+f9OjRI5l77rlLSrRkSki2pAg1OiovNg1oiFB2+Or+5JNPkkmTJpXSyqk8SnvSd7fddgs92AsuuGBJBm3e1CNSeFTWkKnXXnstue6665LRo0cn3333XajH6UG0aQG2nIrYj1NZSN26SlkJV6wAWKGbb775kv79+ye77LJLMvvss0/xMdmPTFZIwK2wy67CY8OHG5Xyo48+GsbBmefjOMjIYostlvTq1SvZcccdQy/PvPPOG4YMkCX5KUeWZaBWqH5QOfv2229DORoyZEgybNiwMJcibnSULroH3Li3aWafO+Wx6ck8Mz7emHepnhCe23StR5hvOXHixOSNN95IHnnkkeTpp58Ois/HH38cFB2QDKXZLZIzl6/qQYo3VOpSmKjsaAQGDBiQbLDBBsmMM84YnsWCVu6ewlgt7H+m2SFN6Ck8FKq///3vYcgrzU855Hd63nGyJW6MYzbaaKPk4IMPTtZbb71koYUWKsm4hfzGgH5H9/WAwpwWdty4p8Gx5dX60UcEZYehBb68aZRsY+TUjm222SY599xzQ90shTQvk+s1JEW4JE+yI2sY7JKv//73v2Goih4d5uo88MADyQcffBDmhPGRyu85+YQcbLhWEMHki5cu/9NPPz10+Ut4Ia0StZRzrxUqZBZVEv/5z3/C+PCpp54a7omXnk0L4hX/rpM9Nl/S8si6rbnmmsmuu+4aJit37969NGE//g17rVdak1WeET9kH7ttkATurI656qqrQs/ORx99lHzzzTfBvbXfdioH+QKLLrpomHJw+OGHJ7PMMkuL9JefLCE8Unx0jzxhpFij6Lz55pvJhx9+mFx//fVBeUaemAvGiiwmK9t48a7LWf6glmi4XJGwsXKlT58+yaGHHhoKHRVkXDHKzRa82E+tIewqdISPsOmeK8trH3/88TBhm5UAgL8ZZpghFDz5B10Fz/Dr5Aflq1D+YfSM+WkoOyjyyy67bGneDuDH/oauet4I2Lhh0uJGGohx48Ylf/vb38K8HVbKMHlUvyF/uneqz+abb57069cvLDABm4c237JCdaINC3NxGKbC3H777WF+DkOiuKNAU9eC5MjlqT4ghxsypyS8dP2fffbZobFgrxJAOHnOVYYCqHeyLIRxweGeAhl3A/PVweoTVp788Y9/DG7EQX5t3Czy4+QDyRr5JJkkj5RvKDcMC7C3Sc+ePcMEUPIXv7Gc8g55i7uV53qHL3DFR/tV6V7ppK9xlBs+BGiknn322TDcQJrIn7DvOtWFuWbM4znuuOOCPFu5tPYsQX5YwUfPzYgRI5KXX345DF1xT11L7w52QG7KyY/iY5+7nOULcqhhc0SCt9RSSyUXXHBB8tvf/jaZeeaZpzz9VRhtQwES3CwgTBgbBoVTV8Ipf0yge/DBB0NFz7CX3uOZ4mOVHKWJkz02ryxy33rrrUPvDkNaTAJlWMBi8xK7GncpRY2CyqeNK3Avd/a2YmnwP/7xj+Spp55Kxo8f32ISKeh9p7Ywr/KMM85INt1009ThozwwduzY5KijjgpKM8oNq62Ym6O6k7pUdslcGoqP/LvM5RNypWFMUdhSt+3mgDvONyl+NbbYIlzGumUJ/8/W7DZchBm7rrHhDBtO5R0wYEBpu3ylgwxuaeniJhvTWr5wKCgnLL/00kuFYiXc4sgEGXsvGZG/RsHKPnbFOb6+/fbbhX79+oXjDeaYY44WaRmbcvWDm+qZ/fffv1BUIkJe2XzD5AHCc8455xSKH8QhvKpDrbHlVc+tHMnOtajYlc7OcpM/g9rdt2gahqLQpWrXjMvylbH00kuHuT6AX4vuY/daw/8XC1bJbsMle7HCKH0tMZenU6dOYa4Hu/DizooC/PA8LT2cbCF/lX8CN/YxYRiApej07rDBIO7Wn7WD7rlae6OgdIrjxvyKW2+9NWzeed9994W5O3aHW2Hv42dOdVl11VWTotITjkKh/lVdRD7kJS/YKJAJ1gxvxSiMKoOEX/KoMqznoHtdnfzRNEqPxmXZt2eJJZZIil+EwV1CHV+zhDDYcKiQxXbALjfOH2NFD0tCGRJhGTMNAcqPky9iGWUY6/jjj0/23HPPZJVVVinJJ1ilJ022QRWwZMHKSL2iuHBV/Lhn2OHee+8N+1ah9DCspaGION7TuneqC/PRUHqod5WXoHxQnmYJE5SRJSYm2zBacG8tnGnvQNZxc6am4ZSecsIHbE7Gbqyc0bXkkkuW5khIoPMkoDYssV339io7jQM9Wcstt1yywgorhPlM//d//xeWV/4yZe8I+QVrV8MC9redacNXLGmFsWlov25j6J1jnhmrC/fee++wDJ2J9zqTSL8nu73GtNVfnrHpliaHyC8TTJmfd8MNNyTPPfdcWCosuW4L5fLCqTwo7yg89D5bxZ1rmr0akN8Y6kD+B8WYsAiesQr24YcfDn4sNlz6Haf+IVebLicZBjrttNPCKdTasdkWhHqHwisFhkl57C3B0l0mPPNVTCPBMwq1LcjxvdN24goS5BanKXmzySabhGMj1l9//XCMBD07ahiUN/Y3Gxnia9NM8QcaKQwrFXVY4/Dhw8OyYe/BzB/KN+pVNs886aSTworDrJBcSaZ0r/oROeI8MDZ+tfAMPy5jjQcS2rJGbhLoBWGpN92v9PjYBsba6xUKrQo6ShB7+7z11lvhJOmLLrooKEO2Ekgj7blXBG0jLe1wo4LlQFBWsrBp5pxzzllSdgTpyz3ujYxNH+yYOM705PAVzvlzKOz0WLY2DOHUFsltnBfIOSu2ttxyy9KKrSyQXBFOypXkS3UY2xqwhxAfgnLDj95zGo+GG95qKygBfD1yfhFf2m09s6hesAWcK19enTt3TpZffvkwuRClj0mfTN5Tt265eDdCelQapQlXmz6qMME+o1dxv/32C8NYLEVnQj1zsJRH8qsK2r7b6Ci9lHbEmy/wxx57LLnkkkvCVgwvvvhiac8dJ59IZhleZ1809pbSXJ4ssf+P3Q5jsYElu3VbhQe7hqVteXYaA6ShKXNUwkxPD6eyr7XWWmHirwpuvaNCrPhQ0GXHsL8Pw140Ji+88EI4O6bckAH+VfCt3ZmM0kQyhcGNXcA33HDDMKeBK/PIaARs465KFjvIXfeNjpVL4s5+OxwdMWTIkDB/h2EH7bfDc5vGTn6w8kvvDr089PZk2csjJC8KIzKHHFEHsofQO++808KPvap8Oo0DUtCUtYeEmuEFJpOycobGCXcVjnpHhVsFGnsMw1wclMc8CU5wHzVqVDC2obEVgdyaHaUJKI0FlT2r51ZfffWwko6eRPXqyJ+u9nes3Fl7o0K8aVCULmwQx9Jz5p4988wzQQZxj9NIdic/SF5ZGctJ6vRoUrdmDbJCPSjlS/KEueeee5JddtmlpHjzzNaX4PLWeCCpTZujEmiOp9hrr72SI488Miz5TlMO6g31HugrBTsGiLOeKa4MdbGknyG/V199NShA7GzLDqVKJ+dX4rRceOGFwzERDB1y8jlyxCpB23uIUb7ILri3xPeNiGSK/XaYa8byc5RvDtUttyJL6eLymC+UL+wzdeaZZybLLLNMcMtajpETlTnQlZW8++yzT9j6ACRPeu7y1biQw02buyqUFAoOdOzdu3dyyCGHhNVd9YwaU+IWF14VavmR0iO/TBKlQqDLlyXBHKz36KOPhknQbOLlTIZ0Iw1ZZs7Ga8yVUq8OSrS+GJWuXK0dlDf2me6bAXpydHTESy+9FIZbkTHJpojTy8knyP/JJ58c5vKwqaaV+ywhHDYs2BnWZ0EB+ztZYlmTf6dxIIebNkdjAedrnU3iUHzY50buasBi9H7eoNFQ2HSN3dSwWDcbR54zv4LhLxom9jdiGIw5FlQYfJ3H6LfitCrnnkYcjvbS2u/YZ1JeIH7H3suO/+222y5MgKcrnyEs5upwqCKT4dPmMPAe74Ou8f80IsRRcVf6CebtMIkUeWIiKcpO7MfJB8o/lZMYngG7GjOXh72mwOZ9lsQyxXBWnz59kquvvjrc2+eEtbV7p/5BGj1HDQsssEDoomXDuHJdtCrMsR1iv/WKCjrxoZJguIHVMyg/NFjMv2AYgnvs9A4J3rEVhZRG6wbWX/yO0jF+R8T+Y9r63PrDTlg1xg88W3nllYMsMDGZHkF6d+abb75wj5IjvzQKvK/7RoZ0wRBfe48B5TnYtGTJOXMpWIbOnjv0LDr5Jy7DsYwzUf/0008P+09ZxT/rsqDwAmHhno835twxkVluTvOARHqOGygEfKmw5FI9Prip8Krg696CuxqBekaVgOJIY27jT0OFAsQeKlQgKD0MhzEUhhtzg+g2jn9H92ngxz636dvae+2F38fEX6+cY4aSw2aBK664Ylh+y/J+lpijENOjgx9Ii59+t9EhroqvlY9Y8VMaMTeM+Tq33HJLGC7lFPQ47Z38QT4qD0H3yl/gg4BNCOkln3nmmcMzPc+6PpScSmnj4+3cc89N+vZtyp1anCJIZuVblDpGhZVdROnxSZvjExd6ocJV79DToYZLDRqG+IGugF8mQbPvEYe6su8PStCECRPCPROjUYji4TD7G6D0jN2nh/g3bJgt8kccmX9DXjMvB2WXSpvVVzrHjBUoDFtpQrLArrRRz5Cex9dGhbTFSF7ApgPwjEnxN910UzJy5Mhgx82pD8hLW4Z0r/ym/Bx44IFhuKhLly7hmc3/rOtDG3bKK/UU5ZuPNfvMaR6QTs/5FCi4DGXw9bLvvvuG3XNp+CgoKti2QrAF3drrEduI2S93G1erDNlGHzsTVJkPRAVD7w8VDMoQQ2C4owDxDHd6hdQI8v60KqJyfnDXlecYutkVfuZrMdmYISnykd4aKmzc6cHhGUNWctdvgf0/7LjbZ0ov/bee6dqoEFebNqA4k+7vv/9+ctVVV4XVgI888shUfp36RfVDr169wuRlhovsmXHkv8qe/GaBZI4rvTwMrf7+979vUVZdLpsLaijP8RRUedMLwGZbBxxwQLLOOuuUdm7mufxwT8FW4ZF7vZJWCVg3xU/KDsRXwT2VH71B33//fTjtHqXnyy+/DHOCUIr4Ha0akx/c+E8M78tuwyFFQxWr7skjemgwKDgoP+Qj3fAoOTxHueE5R5DwnrC/r0pbcYqf4Y4bV/kBa29klB82vuQbvXzstcMydHp4SKsY8qDcsnQnn0jeBR8Kp556arLjjjuGnlH73MqGLV+1RuFBBhmSZ9rC008/XQprHCen8aG28hxvBQoF8zu22GKLMLmZrtHZZputRaEG2XVfz6gSsHGKG67Yzca7XBrI3aYdv4GdxpKVYvQEofTI3Rq5Cd6XsiODG0oOCg35FM8x0O/gFzvu+n3e03Oh9+RPdvzoGZSzNzJKN6UNSit7O7H3CfN26MmTPyDNlW7YyXMn3yhvLbjRK3rUUUeFQ0XpKZW7Jb7PCsKPgv2vf/0rKD3cSxad5gOpbCnRTqmwUjhkpwFl8znm+NCly3ECKjS2AYW8FPb2okpOccIQVxtHwI5bmjvod+yz2K/1IztYPxC/E/9OOaxf5ZPuuQrZ1Rjz3P6+9R8/swqQdW90SA/iTi/e22+/nVx//fXhAEeONbFpq7RTQ6N7J/+k5RVu7MXDai0m/eu5ZJ977DJZQ3gYXt9jjz2Sxx9/vBQ+e3WaByTSczzCFtS4QLAvyzHHHJNsu+22oTdBlbgaVLDvpxUq+7xekNJDPG2cuKbFJy3eIP/xO/Kb9lttIf4v/b8M94TdomfKO+Jo/eg9/VbsJvQMrHu9QPgxcdyVHoq/vQeGJNln5/bbb0/GjBkTTkLHH8/xK/S+U1+Q1zYfBecUnnLKKWFzPzYhBJvHkgGZrCAcGHp5hg4dmuy0004ld+Gy2XwgkZ7j08kqq6wSunVRfJjsrMbCFnbdgy34uNnGxXGyQLLJVXJr5RI3Gjwrz1J6uLIy79///nc4CZ3jIwB/+l2nPlDeKt9sHpLXsutKz84JJ5wQNujko0/vZwXhwhAOhR2jsCOr9PIwJ5N5Zrg5zQ27SPmGBdMJe9HwZUuBQunp1KlTiwYjrgimde84WWMbOCE5tfLKBHQOA73mmmuSK664IgxlAX7s+y7j9YHN9zgPrTuma9euYddlekzYv0rP8oYNN72RzDEbOHBgcHMcV3raCZU/+8+w2ohJfTqGQJWALXgxeawonOZDMho3fMLKMhPMR4wYEZSdG264IbnrrruS7777LjwH+Y2vTr5Rvou0fMMNJYc5MXvuuWfY9kFknc/2/7HLAB+lfKCyceK4ceOCG2QdZidbXOnpAKw2YvM9lugysZnl0FotlAaF0BZKx8kTVi6x0yAyH4K9lFj5wllFHA7KVgMCf+WUJqf+IP/iPOSeoXx7NE8e81vh4orhPDeOO7n44oun+JiMPSbDaT5c6ekAFCxWrrAJG2dQsScMu/qiAFH4VACl7IAXOCcPSB5BcqqGjCsyywaSTz75ZHLdddeVTkIH69f+DmiYN3Z36gfyzuYfE5ePPfbYZO211y7tUwbyk3Ve2/+XLKOso5z/6U9/CnWzDSsG+XaaE1d6OoAKkr6GR48eHezM8aE7WAoO/mgM1CA4Tp6wckmjwdAtc3VuvPHGoOwwYZkNJdVgtIZ6ffCnxtHJN63lKatVTzzxxHCQqN3zSu9Ye1YgZ1JiJH8Mx959993JpZdeGtxteF3haW5c6ekgFDBV7jQWo0aNCuPI9PawCzAVhQoiZF1BOA5YeZSh1/LNN98MjQVDWeymzCotqxThT+/G6JmMk39s3sastNJKyfHHH59svfXWYYNWQT6nXbNEvekY7Ew7OO+888KO76BnVu6d5sSVngrDFwYbtbG6i+EuFB+WdqaR1jB4YXTaiq3AraIhGWrrPb2TH3/8cVh+/ve//z1sMojyI+QPrD2G31VYnHygvAZrFzbP7PMVV1wx7EfG0vS55547PIuVX5ksIdwYwqbwcaL/kCFDghxb8hBeJ3tc6akC7OhLI8Kp0ihBnEvDVu2Mh4MaBVvRqPB6wXTagmRI6N7Kj5UpYd9DTjmPiCXoDGWxMosda1mR2F7icDnZIkVAMhDXLZIR0LPu3buHOTzsusxQPe72/fg3ska9PMDk5eHDhyf9+/cPsu04MUiK11JVgEJIZcKBlkwA5PgKxsVZ3h5XHPKrwttal7PjgG2oZBe619U2fLjpnDOUck4/Z9O2l19+OfiJf8tpDKycpMmMWHLJJZMjjjgi2W233cJqVPzmGeKBIZzUn+PHjw+bJ952221B7vXccYT39FQJVRY0MKzueuWVV8LEZnp9GO5i6MuCf2scpzWsjMTyQiVPAwBU/JIp3OjFYeiKJehXXXVVGAagV5Ln3jg0Hmr4dZWbkOxwReE57LDDkt133z2Zf/75S3KTdxROetU5EuUvf/lLcCe+9RB+p7YgEV7TVRFbcTA2vsEGG4Ru4y233DL0+tgl7KqcHKctSLFBvnRIquTJKj1Atz/KzXPPPZfccccd4SyiH3/8MTxLU3b4rTR3p76I81F1kdyQD2Rl2WWXDQrP73//+zAPUf50zSuKB/KPMs8GiiwmAZdhJw3v6akCcUWhe75EmODMzrbA0Be9PqzwAgqoKz1OW1GFbhswgcxhaNBYbv7iiy+GXh1WZQ0bNixszy8/3jA0PjavkROb5yg8xx13XNK7d+/QwyPwb695hbgg45dddllyzz33tAhvHFfHQTpcIiqMCh2FDTtGX95ittlmS9ZZZ50wdr755puHM7w00TnvlYyTD5AvW6EjN3LDzjERKNmsymI4iwnL8mORvKX9ltMY2MZfV/KYHZbZh0fnaVFP2bzHLvnII4STrRaQcVaaxXEk3nHd6zQ33tNTA1QAgQqEgshwAzuFPv/888m3334bCia9PjPNNJPv2uy0CTVGccOk/XbYVHDw4MHJlVdeGXanjf2B7mMZdRoDm7/Ylc/Yl1tuuTDpd8cddywdIGqVBZFneaDeZE8edl4eO3ZsKY55DrOTLUjGr7WdUzFsBRMTP+OeJe2Mqf/2t79NevToERQg/LSle1aF3At680HeK/8ZsmJjTFZisZMyXf0WNWStfflKNnV16ou25NsMM8yQLL/88skZZ5yRbLXVVmGY3dYd2DHq9bHPsqBcfHCfOHFiUOr/+Mc/Bjd6y9l3ijC7/DppuNKTIep6VQGl8ll33XWTXXfdNdlss83CklGGwWzhjQsy7zKJj9+yX2dOc4A8YBjKYgn6vffeG5QdNsh0Gh/buFP+VR+IuPFn9Sh1zCmnnBKurR2QnBcIP/Uk8bNxYY7ko48+Gj4WP/vss+CHXnLFP46744APb2WMLZh8obC8/emnny5trMX271RMFGYVfKFKTr/hSk9zYSv0cePGhYNB2VHZHh0h+RDxvdM4kOfUEUL1guAjivmDHM+w2mqrhW0z8i4PhB+jcMoQz3feeSe58MILw3YgijfPbJwdJ8aVngygYOqq+Tu2oDJMwQovNo7jC54vF+b6UElxBf2GcIWnuYgrds56Y0iUTQcnTJgQlqOrsXDZaGxUF5Df5fKaPXgOOOCA5PTTT0+6detWqnd4N65L8gRxsvFCucEwjMtKRIZxbVmwdsdJw5WejKCioYBSgCnQurfX//73v+G06/vuuy8cZgo0bvT8MHatAi7/lvjeaSyU9+Qz8kMj1qVLlzBXQ6f+M0FejUWajDiNh+QCyHvumbB81llnJfvss08y77zztpAD7PUiFworCj27iDMJG7mXuy0TjlMOV3pygBokW2FZ6PmhC5fVOCg/VGYoP/T82C820PweL/iNja3gbV6z4SVDFwyLMlTKvAdWCsb+nMZCectVyg577nCO1iWXXJJsscUWYX6g5KCc/OQR1Y8YFHo2H2RY64MPPgj1Hc8VH7DxyXvcnNrjSk/GqFDagi1UeeGGXcNeTFZlGIMKgCENVmNgQL9hf8dpTOJ8VsXPZNWVV145fOFPmjQp+fzzz4PyAyjJkimn/pEMKD/JW8yiiy6a7Lfffsn5558fTkznA0n5jsFue5nziuJDOFFwPvroo7AJ4a233jrFh+NMH670ZIQUGqGKSNiKKH6GssOy5LvuuivM+WEYg8ZMyo+6fJ3mQnmOrNDIMXdj9dVXD40bX8XIibDy5NQv5DnlHYWAK3P+mL/D6qxDDz00HClBXQPkuWRE/rnPe11B+Ag7izuYw8PZWoQdN8XNcdqKKz0ZETc6UoIo4LFCBGkVE43Za6+9ltx9993hLCXm+vBurPzEvyX0m2n/lfZOHAbrJ/6t2K9TWWx6K7+4yiAb0KlTp2SNNdYIVzZxw11nbjmNgfIaBWf99ddPLr/88rBKix4/W0apG5ANq/CArlkQ1yH2XuDOQbnUc8cee+wU18nvpvlPqz8dR7jSkxNsIZ2eAqsKj2EMJvddc801paEM7cHB7zHxmcqOCiHG/h/+VQnirvflLr+xHQPWzakuSvdpGRo/5vnQEJI/DBEwzwd54Lmw9hie2cakNb/O9FEuXbG3ls56j/lbXbt2TU4++eSwSR8T2inveh9/9rfsvdyyRHGPwZ3wIascocLE5a+//jq4lXsHWnvmOK70NCBMer7lllvCuUt8IdG4aa8fVYaqUKQ0qSIErnomu5B/6ya7/NpnTnbYvCB/mdi65pprJksvvXQYKmA3W46s4BlIJiAtD70xqTykvS2DpLGuQHnV8xjyiDP7dtlll2TgwIFhQ1NtZmrzLy0v84LCRpiJJ3WU7uXGRpt//etfk2effbaULnmOk5NvXOlpQFTpcRbNAw88EMbBUX6oQJgMrUnPVDBUsGmNHqRVLLjJv1BFBF4Z5QflJwY7+Y/yy6naKD/cjx8/PswR42tayL/sEOe5UxnidAZbnsijtLSfa665ks6dOycXXXRRctBBBwW7hqwwvKd37W/nDcWVcCqeklVg003247nqqqtapBVxlR/HmR5c6WlQVPmJl156Kbn99tvDOTX0/DABWn6obKhQdAXcY7v9Pb0rPzHWr1N7aBCUp6D8wuDG0vYNNtggHEWAIswuzig+vBPnqX7DqS58jJDWasxVHjE08lw5qgYFZ88990yuuOKKMF8LRRZUHm0+yz2vSNbiMHLPqsMhQ4aEHaT1nCvvKI2ULo7TVpAkl5gGQxVDfBXWfa+99kp69eoV5gQstthi4QuSLnVMXAHjn3uuGNBzi33uZIfNG/JDMiA7hnxl+wP2gBowYEA4jZ17FGOw837wj1zQM+RUBlvGaMBJb10F6Y9CxMaCG220UZi7wyaUGqoGFFd+CxMjP3lEcSeMVs6QQYbombisifc8l8ym1TuO0xaQMld6GgxVDtau7mC5g76SMEyGZKIrp7wvtdRS4WuSFT98WVLJ2K9QW0Hpqt/lap872aB8BZtHykPZrT96e9gD6oYbbkjefPPN0hEoPOc35M+pLLYRjxUelqCzFxdbD/Tt2zdc8SNsOVPZVH5JgbJ+8oaVP4WTneg5godl98ihy51TSZAyl6gGQxVfbI/RM11V+XLdeOONw9fkqquuGuaAsBx2nnnmCZUw/qlM1Rvk5A/yU/muK3lF3gFuymvrRo8BvT2aC8YkUr66LZIXpzooPxiCXGeddZKDDz442XTTTcPeS8ov0p9rWl5IgVLZ1O/lEcKuuADyN2zYsKDwvPjii8FNpMU1zc1xWgNJc4lpMNpSEVAhqnKMsc/0Wz179kw22WSTZIkllgi7/aIEsVIEgwLEO7q2hio3SAujfS7SKjqw7rFbmh+If9/6t34ZwuGeSpgVThjiyvEf+I39W+L/yALCZuOm/LS9BPKjPNM9/ok/k5zZALN///5hiEGbG/Kcd2yPhNM+YjmiR5VeV4aZL7300rDvDvfkh4YW7bAW2Pdlt8+tvdbYsCkc5cJL3EaOHJlccMEFU+24zHP8ckWG8WvrKcdpK0jhrxLoOG1AFdBaa62VbL/99mEHWHqBFlpoofB1ysRKKm8MFRT+rbGoIrOVn73K3fqzz6j0bEMu7G/ad6ko9Z6eo9jwnG51KlPMW2+9FYZ3uD722GPJQw89lPTp0yc544wzSoc26n1+S4qDwgbWXm/YuLG0/c4770zOPPPMMNkZgxIINh3A3sturxh+0/oD8jCvShRhBRve1ojjZuMtbIONnTKDUs1+SpyEzuo6enb03/UKcSQtVD4EbnpG3mMfPXp0mFfG8Kr8OE6loUS5ZDnTjW0IbMW8+OKLh31gVlhhhbCyhMnRzAtiXoKGx6gAYxNX7vb3MfjRf8WVodz0XG5UpDSkuuoZSs2ECRPCsA2NN406vRo07CzzZ3jHYv+Thv+YY44JX+KEKQ2FQ/9XjxAHzQnRPdsePProo2HeDz1ApCMbYfJM6WMhfUj7acF/8H5b/NYa5WFa/CzWn+RFV6WD7gE77pQHlGgU6q222ipZaaWVSs/ttV4h3koDrrJb8MNu4YMGDQor0toqN47THihRrZdmx4mwFZjuwVZUdMHzXMoG50AxN4ieIJQfvmqx0zvEpnnYaQAw/A6G9/gddefr/2gkuccPv2/3mMGP3Nm99eOPPw4KDlfu6b1hqIb5ApxCXg41Nvw3PUGgypgJpX/4wx+SueeeO/yf/Oq/8Yeb3OsRpbWwcaRHDOUQ5YejAegNQ3lECQL8xu+3htKKtNP99LxfLWycrR3IY4ziDGluwLu463eQXz4CUHB22223sHhg4YUXDn70PyK+rzemlY/kOR8cDOVxppbjVBtKVPa1i1NXUBG3pVFShd0WvzG8SyNA40BvEZUjv4MbihGKDn7ofUB5QckBGhTZhcIbhxuFJq2Bkh+GF/iftN+kgj7ggAOCAidFR/8hrL3eIC7EizjE8VB8SRt6yTj/jUnPLHsnnVCASFtQ+uKf9yw2rZXG+r/Yb9bYsKahcGPS5A+DPLEi8ne/+13y+9//PunRo0dQnHkGSlfgN6Tc1zOkmU03pYXc2Ytn8ODBSb9+/UruQNwhTkvH6SiUqPIl2XHaia3ArD2N6fE7PfBb+j17BTWqsUIzrf+3z//85z8nRxxxRBjq4vd4Zv8HU68Qhzgd1BArrmqgAbf33nsvnP6PMojSg/LDO3HDNS0FSOkW/3+eUPwVNxt+4J60wg/XZZZZJjTsbAbJcBYojZUWUhQtSot6xsZT6cb9p59+GoazzjnnnOAeywSkyYrjdARXepwOQaUEVGICu62sZbcVmyoz+578yS3tPez2OQ2K7a1J+w2Fp7X/skgR0hXs+7ITB3a47t27d1jVJfTb9QzxwyguyivSRPeg/LfgDwXojTfeSJ588snksssuK7ljlF82Hfk97rHjpt/PI4QTozAL0kbxoXeSjT85D4uJ/gxf4V/pp/eUJtwr3vID9vfrFeIFSjPuP/vssyAX5557bov4c5U/x6kGlKipa33HaSOqlFWxTYtp+Y+fc28rQ9m52t9Qw9ke7H9aRQf0DOx/W1hiy14qDMXx3L5Tryh9FWcpIxiUFlbmkU64K7664oe84J4hMHp8WJkzfPjw5L777gv7sOCOP9Kb3+N3IK+NHXEhvNauNOGeeWlbbLFFmJ/DRH6GrpjAr94bvatGn3jrd0hH/GHX73FVmtQzipOND/PrLr744tQ5PGnp7DiVhFrKpcppF2mVEm6Yco2XntuKLc2v/HCFtvyPGmCrtFj0mzFyL/cceMbvq9GSXaD4HHLIIWGoq5FQeihtiDMNduwuO3CPIY1kB55/9dVX4TfoBXrqqaeSMWPGJHfccUdQguK8tPdZIrlSPLiySpENPJdbbrmwgSC9OczPYem50sHCOzbtMEofsGknJagRUPwEPTwcknr++ee3eGbTV+CGyYscOI2BKz2OUwGonKnIOfHaTk5VbwgVtxo5Veb1gBoiwtsWO6Q9S4NnpA+rd1hRx4qwoUOHJiNGjEhGjRoVlsOXQ789rf+wKP31HrTlXTbiXHHFFUsbdHJEC/NyWHEI+i0R34P+x4Y3tkN8Xy8o3LpahU6QzxdeeGHo5YmfOU6toGS59DlOB9DXOw0VBySeeOKJyQILLFD6Qk1r3OqtUasWKD0aLtM9kHbjxo0L54Gh/LAb9Ouvvx5WijFPiB6jaWHTXSjdrTsNNKuqONdqvfXWC8NTDFcxT4srSo82CsSv5+GvpMm4BXcMCi0bD7LKj149x8kKSq0rPY4znaDo0EBzpeKX0sP9SSedFPbxocEENQhcde9MXs5OWqBIWGzjSdrih7SWu97jXgoRG02yDxN7COGOUeOKQiVlhXk2DEFytANKzayzzhryDPCTptTov3imMHDFPQ57s6H0iJE7acShofSC3njjjSEfccNIYXKcWuJKj+O0AzWEadArwMRmdm5mU8a0hpH3mx0aQJs2um8tbWgo7Tu24ZSCJOwz3K0h76S4YPhN6yYIE0gxAvmbVlibBaUz6aH0kp1NQJmwzAR2PQOloePUGkpy38lWx3GmFyac2sYVqNwZhvniiy/C/iya44NRw+yN5WRsWtirNYK0ozFVGsYKCs8wKCjWbu8F73Gv/+A37e/Jr/UH8iPjTEbpJ7BzZt3ZZ5+dPPzwwyWFB3eM8sO+4zi1wJUex+kAqrTjBpBKnnkMzz33XFjhw3EbKEjy5w3mr6QpEEpX0lGNoxQR0Dv2XV1tnmC4j/3J3d6D/OoqN+uOAT1vdkgHpQVXhhg5m409eOjp0TEuQn5RlByn1iB9k0uw4zjtgsa4XAXOUBfzRjhbaIcddghnjoE3mC2VE9C9UJrynGekM0qQHWqK35Vf2cH2QsgN5Nf+Bn5j5Qr0G/pv/Z7126woLYBjJQYOHBh2WuaIGOZfWZTmjpMV3tPjOO2Axk6VNw2hrcjtMxppvnw5nZxhLlYGMZnWNr7NCj0ApJ1VOoB7KTykpZ5zlZKBX+7tO6B7qzDpqndk5K6r/a00YxUc697MkGYynJR+3nnnJddcc02YXK48EKSfLRuOkwWu9DhOO7AVd1y5p1Xq7Er87LPPhhVGnDaPAsR7tuHUe1ztbzRqwyolwsZPdpsu8fP4Pr5i+G3Z42fWbt2gLe7C2hsVZDSWRRR5q1Ri2Fepf//+yT//+c/Qw6NnlliuHScLkEqXQsepAlT6cYPB8Namm26anHXWWWHDOw2XqIHQcIC+ikG/od/jKv+OU02mpaSgzLOh5F//+tfk+eefD5tMOk6ecaXHcaoESot6c9R44MY8H/bwQfHZZZddwr4xsXJkFR2LKz1OLVFPj5U5rrhxhhbL0W+55ZZk0qRJQQES8q8eIcfJCz685ThVQA2DrgI7wwNspsdwF/ddu3ad6rBSa9f7ac8cpxbY4Szk8dVXX0369esXhrO+/PLLINMxVu4dJy+40uM4VcaetC2FBTu7CY8cOTIcutmlS5dk4YUXLikz8Re2GhA9B2t3nGphZZAJyg888EA4Q+uRRx4J945TT1BrujruOFWC4SwaCyktzOGRQiNYzcX5Thxf0bt372SeeeaZ8mRqyilAjlMNrJxyDhrnZ3EqPqelsyoxDcmo5NP+huNkjff0OE4ViSt82xgIJi8zJ+Lll18O18UWWywcgKml8PY39L4rPE4t0LAWh7z27ds3bDqIwqMJ98ihFHvdO06eQUJdDXecKiEFpa0TOlF2OKH96KOPTnbfffcw10fv2tVc+l3HqSZMVmYp+r///e/Q05O2Okty2VYZd5ws8Z4ex6kytqdmWtCoTJw4MUwUZYIoChCKECeFa1jMKj+t/bYrRY7kI5YFKSjWHTdNSGbjSObsnHPOOcndd9+dTJgwYardlcW05NBx8oQrPY6TQ5ggytldb775ZpgI3blz53CcBaihUmPDfZqCk+bmNDcoNpIXa7dy9P777yeDBw9OLrvssrD3znfffTflbcepf6gVXUV3nJxB4wMzzTRTssgiiyTbbLNNss8++yQrrbRS2OdHDRXoqndaU4Sc5gJZQLmhd5BeHK6SC+51DAj+2EaBk9H/8Y9/JC+88ELocUxbiu449YwrPY6TQ9QQCVZ00duz8847B+WHvX3iYS75tw2b09xILpAHKT+SLd1zHTFiRHLJJZeEnp3x48f7zspOw+JKj+PUEczxWW211ZJdd9016dWrV9jZWQqOVXocR0gupPxwlZ1DQi+44ILkxRdfTN55551wbpbkCfSu4zQKrvQ4To5RI2UVGw15bbjhhslee+2VrLfeesnMM89c8qerbbyc5obeHJBMMDGZico333xzMmzYMN9k0GkaXOlxnDqF5ewMczHfh+Xt3bt3D6u81NPjSo8DzMuRLHz11VfJc889F+btsEJw3LhxyU8//RSeSzESuHlPj9NouNLjODnEKixpDZKFIa4lllgi2WSTTZK999476dGjR4v3neYFpQXDsNUrr7wSVmW9/vrrYYUWOyrHPUCgnkLZHaeRcKXHceoQGqVYGUL5obdniy22CD0/9ALR85OGbdTUyMkN1NhZf2D9OLXBKh7ktyYfc43zjnu5cWW5+TPPPJMMGTIkefvtt8MWCJyGLn+O02xQUlzyHafOUEOX1gO00EILJT179gw9P1tuuWXSrVu3MA8onuCshhHD7+g31ZiqUdQ96Arx7zmVx6Y3KF+UV7JbcPv666/DsnOUHRQdDMNY8e85TrPhSo/j1Clq7NIaMvby4dR2en7WX3/9ZLvttkuWXnrpsMGh3lOjKcVJ97GSw72eWfQ7TvUgzTHkEXvqgPbXETxX/rC3DsNYN9xwQzJ69Ohk1KhRQdkhD9MUZMdpNlzpcZwGQUqIGkEMjR3DXssss0yyxhprJDvuuGOY88O+P2oo5X9a4E8KkexOdSB9LVbRQXmREkO+cf3Pf/4Tlp3ffvvtyXvvvRd6dthrR7+jvI7tjtNsuNLjOA2AlBbbsIFt3Oadd95k2WWXTVZYYYVk6623TtZcc81kwQUXDM+sMqOGFDvueqZGVo2mKz2Vh3RNQ/li4Sws9ta5/vrrk9deey0oPmPGjJmqZ8falX+4oUiV+z/HaVRc6XGcJoIGb4455kiWXHLJZPHFFw9KELs8c51llllaNIhSauLGVpRzd9pHawoISovy4/PPP0+efPLJcPL5p59+Gnp4OJxWyg35IiUHuI+VptiP4zQLrvQ4Th2iBkyNWXu+2HmPYa5VVlklDHltuumm4WyvRRddNEx8to0kv0+jylX/aZ87HSfOQ5vWnIvFUvO33norefDBB8MQ1siRI0uKC/6UP7oHm2eO47jS4zh1C42hGjMpINyrR8A2drFf2eWXXh4mPbPMHSVos802C/coRcwl0QZ3akSx6z+djqP8sJDmTEZGwWGuzkcffZR88skn4V550JbeGpvfjtPsuNLjOA2GlJG2NnS2UUTBmW+++ULPD8NfK664YugBYiUY535ZRcf+D4YGGKVIvxf3MuCud/ArO1d7L3jP+tFvxf4gzU3/G5P2PxY91/8J3Fv7H/vMvqt0gDQ/ek4asGEgyg27JXPiOTsmf/bZZ+FAUMFv4F9Xx3HaDiXQS43jOFPxm9/8Juz5s/zyy4dJ0Jz3hQLE/B8Uo9lnn72krGCsXY0ybjTqQo27lCPgHuTPNujyk2bnCtj1DHC3z9LQb9jf0dWi5xirvFi7SAuD3hPc6ze50pvDMnPOwmKeDkNW3LNjMsNZjuNUFkrp1CXdcRwngkNNV1555dAD1Llz57AEftVVVw0K0GyzzRaeW2jYrYKjht4qR2r4Zdd7ssfgzvMY619KFKT9jt4v9x88VxhiP3pGnBSPWKnRu7rX72AnrhzuOWnSpLCsfOzYscnw4cPDmVjsqcMKLKF3HMepHJRML1WO47SKGnY19GxyyE7PzPvp1KlTstpqq4UeoLnnnjtc8cNkaDXaasBtQ86V35W7ntl7i55B/Mzey09bkF/9p5QZ3Yv49/Vc7nKz8QGUHI59YIdkFBxWW7300kthCAvD8JVVdBzHqS6UzLbXEI7jNA003DTgIKVH97oC84BYAs+8H4a8OPwUpYjJ0MwDYjI0GySiBIHejX/f3oNVKOwV9EzY+9g/z2L/Aj+xP7npHWsH9STZNLGG5eMYenPYN4eeHM7AQsGhR4eJyKzG0n8J/b/tqXIcp7JQkn8tdY7jOFOwjb6IG2ph/WJHweH8L3qB2BcIpYc5Quuss05QilCOGBLjmfYH0rugK+j/9Nw+E2lhklvsX/fllBfrH3vsjp2NARmmQplh8jGrqjjQEyWHXh0Mig29ObjxTjn4f/Wg2f9zHKfyUIq9dDmOM03UIOsaI+VByoT1p2XvDIN16dIlKD0oOyg+XBkqo6eIHiMUIc0PQnniHDHex+j3+O3WiJ/b8CpcGBtGa2dX4x9++CHEBYOCwwRjNgZkkjFDUig8GPziTg/Ohx9+ONV/gXWzpD234XAcp7K40uM4TptQYywFJsYqPXHD3do9dhQhVooxSRqFSJsjoghh5pprrqAM8R8YTZyeYYYZwhXDO9zznsCOIUz0zqCgMMeGKz00GM6o4p44cZUS88EHHwRlh3Ci3HzxxRdB8UGxYW6OsP+nXhvFTff4wc2GB+RuSXNzHKcyuNLjOM50oYa8NSrVcLNUniEylBzmCaFw8f/YpfSg7EjpYQiN/xbYMbHS8/PPPweFBztXKT24a+Ixis/3338/5ZfKo/8jvnHaKB10tW7lmNZzx3Hajys9juM4juM0BZP7ox3HcRzHcRocV3ocx3Ecx2kKXOlxHMdxHKcpcKXHcRzHcZymwJUex3Ecx3GaAld6HMdxHMdpClzpcRzHcRynKXClx3Ecx3GcpsCVHsdxHMdxmgJXehzHcRzHaQpc6XEcx3EcpylwpcdxHMdxnKbAlR7HcRzHcZoCV3ocx3Ecx2kKXOlxHMdxHKcpcKXHcRzHcZymwJUex3Ecx3GaAld6HMdxHMdpClzpcRzHcRynKXClx3Ecx3GcpsCVHsdxHMdxmgJXehzHcRzHaQpc6XEcx3EcpylwpcdxHMdxnKbAlR7HcRzHcZoCV3ocx3Ecx2kKXOlxHMdxHKcpcKXHcRzHcZymwJUex3Ecx3GaAld6HMdxHMdpApLk/wfZ6Xr6IdlMwQAAAABJRU5ErkJggg==;" vertex="1" parent="1">
                    <mxGeometry x="540" y="133.5" width="86.68" height="100" as="geometry"/>
                </mxCell>
                <mxCell id="19" value="Document Inteligent" style="shape=image;verticalLabelPosition=bottom;labelBackgroundColor=default;verticalAlign=top;aspect=fixed;imageAspect=0;image=data:image/png,iVBORw0KGgoAAAANSUhEUgAAAEkAAABLCAYAAAA8u6rXAAAAAXNSR0IArs4c6QAAAARnQU1BAACxjwv8YQUAAAAJcEhZcwAAFiUAABYlAUlSJPAAAAdnSURBVHhe7ZprbBRVFMf/u9uWblu6tAW7LaW0lqdQSmsEKkQxikYTFHxAECwKDY2C8RWNMUEFNfpRjc9gMQIfhIQvGg0xoQYFg0iMQQiPAuUNaQt90Me2+/KcmTuw1Hb3due2JeT+kpvZObMzs/Obc8+9M60jJycnDE1UnGKpiYKWJIGWJIGWJIGWJIGWJIGWJIGWJIGWJIGWJIGWJIGWJIGWJIGWJIGWJIGy90kjCspwV9UWsWaTcBA137+L4IHtIjC0KMukSQ+uEZ8U4HDhYmkVuvJmisDQoiyTyp/fjLT8O3GbJwmelAQR7T+Xr/pxpc2PLUfOIRQKIWPXe0g+s0dsHRrU1aSwcG0t4yZif6cLTXPXwpc/WwSGBnWSHD2WcdPjANT1hlqU+tFNSeftgRDVWTBXBAYXhZJEBjhsp1LvkKjme98aElHKJIWpFnGzW5OuHadXHKaoonlifXBQJ4lakB2Zq3FjHadvSNSc1wdVlDJJIbr7QWohm5as40THFNUx4RGxPrAolMQZQF3FZi7x3nycBEfIDPSJAy3lr6Bj0qNifeBQKCmEIJmKmQQxcDmdxnEKk2NJMmmZ+SLaJy0QawODwsJt1hK5S+sbj5tm6zRATsrJQ3mGA6OSgKzE6C1xzmpkL/pUHEE9yh5Lpq3ciIS8MhSOdCN7+DARjY9WXxC19e3wB1k5Tyn4J8ZeHv7yCXTWH6fPalEmqbhyI1y5ZbidJHnT7UmyaO8OImCkZnQ5Jxva0ekP4djGCnScO0AxtSjrbnzTA0ZNUuLcIDXJBU8yt4SoS/bF5zbFqUdd4eZmjG6DD/sJ0ZkH6twKR7cwAtSMGzrI8JTBHFkH5uTKatL4Z6sRzpmOydmpGDMi2YilDXOgNE/ZfTC40BLGicYbx9A/T7egxRfAuU3PwXdefU1SJqlo+TcIeksw1ZuG/Ay3EVsxMxG5nt7rxKFus+zGIol2zyDP3BLEoar3+tHUGYbPb67/caoZLZ1+XNiyEl03s6RClpRdguKcNIwVklbOSkROeu+SPmkBdneYEmSYSPMlltQUBBqptdOvziJx3NxtAZw82IqadU/f3JLGVmxAgCSVkKSCzBQj5nE7MCOfZ9DG6g000QV/N8wFkQx9Ukqzicskhb9XTr14Oq3n0oCWTnIuUfw0bfirC9jnoy7fdAk7Vy9F3ZHD5s6KUCYp/5kN6M6ehtLc4SgUkmJRl5+AJo+zz253N0k5QN2yKh2YTckZLela6UZsugocp+83rn8ZNdu3iS32ofuhBuPpnUaY/oxuoy8E4aBs6I1ZJOgIZclHWcCcGIIYzqw1HhJL33Wv/RizH3pYbLGPOknUzPdJN1oaP8rZZ5tCz2ZjukP/E1BCXeogZcQ7mSSyn394WZRGUklw/gdfwO02a6NdlHU379Kv0TmqGDPyPBg/MtWIzZvoopEu+n1ooLN/2OmAL+JXjCExC+li7xPXWE/ZVkNF3uJx2sYF/xhl2t9Ui5hUOs1887TGbXqpgWrinh2ofmGFGbSBskzieRx3tYhrRXpyrE4CjKKvFET8iqk0ivGqJYhhSVvbrrducZIjlG1W7Md2M8bwWZdTHWstV/P2UpkkY8YdChlLi99OBHHqSggnL0dvZZ0hkBsDLlFcg+zCo2Jj2IW5Ty0RkfhRJ4lbj0xqaAtj57Egfq2N3o4eDcAh0oPnQJxNkaRSakyhmNVcIkFH0lTAivE8KhK+sCkkynvPA2bABmoziVpEIvULL/UpJ5lup8YjVSSFicD7NMpZjaZfBjxFsGKvjTBjkWSTRJd3tFiLH2WSWI6ZSTdaykxxSLUiP+1HF89/tutjVtBveGAMO+xfotpMMmqSCBAluU7MKnBJtdn5Lkwmwfyox48ekfB0YOHF662N+zbxAxVrK7aq3oxFQuUO/nraaBN1krgZmXSdLC4m/WAmifZQF/mXpNiFf8c/9Lhyce/vZsAGSjPJ+JMS9zvBoUshNNPTOtPUEY7ZUuipNZlM76G5T6TseDDeMlBm795cLSLxo2wy6X7yczRm3IF5RVmY7qVJSpy0U1W+MjHRmDnfLx4BuZjXBczPzGQe4WjJD74XRdfkyeUEKvAWrzaSpH27sLXyJpoCWG8HI+dJ8ZBKmTeeis639LB6Rojh2TRPC6zGgpgs+mDFIgVtpn39Ph+2VS0TEXsok8RqzO5mrtvBdzyAEjrQuivA+YgMkmEbzb53Udete6MS4aCacVJZd3Mu+Bj1GVOR6U7E8GE8+EYWbT4Fr/dcWvS+fcniPJyhY1X241VJbVcIZ9+swt4dP4kt9lEmqau0As0lFb1cqr3lsvl5SBuXbqzzSzd+Q5BD3YwnnFyPTomXbvup2BdcOoWfVy1Gw7mz9G11KJPEdGcX0xGV9eBrJGVm4rH1b2PkuCK0ORPQTHKM17cka7i/G8Ezddj/1Weo/WVg/qVZqaRbFfW3/RZES5JAS5JAS5JAS5JAS5JAS5JAS5JAS5JAS5JAS5JAS5JAS5JAS5JAS5JAS5JAS5JAS4oJ8B9rHfQmAxdQnAAAAABJRU5ErkJggg==;" vertex="1" parent="1">
                    <mxGeometry x="230" y="128" width="98.31" height="101" as="geometry"/>
                </mxCell>
                <mxCell id="4" style="edgeStyle=none;html=1;entryX=-0.074;entryY=0.458;entryDx=0;entryDy=0;entryPerimeter=0;strokeWidth=2;" edge="1" parent="1" source="2">
                    <mxGeometry relative="1" as="geometry">
                        <mxPoint x="234.96800000000007" y="181.98400000000004" as="targetPoint"/>
                    </mxGeometry>
                </mxCell>
                <mxCell id="21" value="Cognetive Search" style="aspect=fixed;html=1;points=[];align=center;image;fontSize=12;image=img/lib/azure2/app_services/Search_Services.svg;" vertex="1" parent="1">
                    <mxGeometry x="547.68" y="350" width="72" height="52" as="geometry"/>
                </mxCell>
            </root>
        </mxGraphModel>
    </diagram>
</mxfile>